<?xml version="1.0" encoding="UTF-8" standalone="no"?>
<!-- Created with Inkscape (http://www.inkscape.org/) -->

<svg
   xmlns:dc="http://purl.org/dc/elements/1.1/"
   xmlns:cc="http://creativecommons.org/ns#"
   xmlns:rdf="http://www.w3.org/1999/02/22-rdf-syntax-ns#"
   xmlns:svg="http://www.w3.org/2000/svg"
   xmlns="http://www.w3.org/2000/svg"
   xmlns:xlink="http://www.w3.org/1999/xlink"
   xmlns:sodipodi="http://sodipodi.sourceforge.net/DTD/sodipodi-0.dtd"
   xmlns:inkscape="http://www.inkscape.org/namespaces/inkscape"
   width="1149.1058"
   height="497.97253"
   id="svg23899"
   version="1.1"
   inkscape:version="0.48.4 r9939"
   sodipodi:docname="kicked.svg">
  <defs
     id="defs23901">
    <clipPath
       clipPathUnits="userSpaceOnUse"
       id="clipPath3786-8-7-09-3-58-9-3-5-2-06-7-3-0-7">
      <path
         id="path3788-6-7-4-3-3-5-6-2-5-0-69-7-1-8"
         d="m 437.82312,11466.551 c -9.02138,0 -12.48175,7.253 -12.48175,16.277 l 0,6.153 c 0,2.617 1.22716,5.841 5.96969,6.148 4.03516,0.231 10.92927,0.347 18.27026,0.347 3.66007,-4.526 17.50849,-9.047 24.28509,-9.047 l 2.53247,0 c -0.31836,-1.748 -5.01284,-19.617 -5.8487,-19.895 l -32.72706,0 z"
         style="color:#000000;fill:#698eab;fill-opacity:1;fill-rule:nonzero;stroke:none;stroke-width:0.24476303;marker:none;visibility:visible;display:inline;overflow:visible;enable-background:accumulate"
         inkscape:connector-curvature="0"
         sodipodi:nodetypes="cssccscccc" />
    </clipPath>
    <linearGradient
       inkscape:collect="always"
       xlink:href="#linearGradient5187-7-9-1-3-8-4-4-4-93-1-1-28-1-1-2-9"
       id="linearGradient18577-9-0-0-2-0"
       gradientUnits="userSpaceOnUse"
       x1="1766.3528"
       y1="11764.019"
       x2="1789.3842"
       y2="11764.019" />
    <linearGradient
       id="linearGradient5187-7-9-1-3-8-4-4-4-93-1-1-28-1-1-2-9">
      <stop
         style="stop-color:#8d8d8d;stop-opacity:1;"
         offset="0"
         id="stop5189-2-3-3-1-3-5-8-0-76-5-2-44-9-0-9-6" />
      <stop
         style="stop-color:#aaaaaa;stop-opacity:1;"
         offset="1"
         id="stop5191-2-19-5-9-5-6-3-3-3-9-3-4-5-0-1-0" />
    </linearGradient>
    <clipPath
       clipPathUnits="userSpaceOnUse"
       id="clipPath3808-2-8-1-1-9-4-9-7-9-47-6-8-2-5">
      <path
         sodipodi:nodetypes="cssccscccc"
         inkscape:connector-curvature="0"
         style="color:#000000;fill:#698eab;fill-opacity:1;fill-rule:nonzero;stroke:none;stroke-width:0.24476303;marker:none;visibility:visible;display:inline;overflow:visible;enable-background:accumulate"
         d="m 437.82312,11466.551 c -9.02138,0 -12.48175,7.253 -12.48175,16.277 l 0,6.153 c 0,2.616 1.22716,5.841 5.96969,6.147 4.03516,0.232 10.92927,0.348 18.27026,0.348 3.66007,-4.527 17.50849,-9.048 24.28509,-9.048 l 2.53247,0 c -0.31836,-1.748 -5.01284,-19.617 -5.8487,-19.895 l -32.72706,0 z"
         id="path3810-7-6-2-2-76-1-10-5-0-0-3-6-2-1" />
    </clipPath>
    <clipPath
       clipPathUnits="userSpaceOnUse"
       id="clipPath3737-7-5-0-1-4-2-5-6-7-1-4-9-8-4">
      <path
         sodipodi:nodetypes="sssscssssss"
         inkscape:connector-curvature="0"
         id="path3739-4-0-1-9-5-2-8-5-3-3-0-3-7-5"
         d="m 461.72791,11483.1 c -14.83015,0.06 -20.73616,14.79 -20.73616,29.62 l 0,10.008 c 0,4.307 2.13885,9.54 9.93539,10.043 17.54323,1.129 66.22282,0.678 82.1661,-0.521 9.2373,0.521 10.67864,-6.28 10.67864,-10.077 l 0,-9.447 c 0,-14.836 -5.90659,-29.626 -20.73617,-29.626 l -3.60682,0 c -19.21147,0 -37.96391,0 -54.09474,0 z"
         style="color:#000000;fill:#93afc3;fill-opacity:1;fill-rule:nonzero;stroke:none;stroke-width:0.24476303;marker:none;visibility:visible;display:inline;overflow:visible;enable-background:accumulate" />
    </clipPath>
  </defs>
  <sodipodi:namedview
     id="base"
     pagecolor="#ffffff"
     bordercolor="#666666"
     borderopacity="1.0"
     inkscape:pageopacity="0.0"
     inkscape:pageshadow="2"
     inkscape:zoom="0.24748737"
     inkscape:cx="2467.0744"
     inkscape:cy="520.81641"
     inkscape:document-units="px"
     inkscape:current-layer="layer1"
     showgrid="false"
     fit-margin-top="0"
     fit-margin-left="0"
     fit-margin-right="0"
     fit-margin-bottom="0"
     inkscape:window-width="1855"
     inkscape:window-height="1056"
     inkscape:window-x="65"
     inkscape:window-y="24"
     inkscape:window-maximized="1" />
  <metadata
     id="metadata23904">
    <rdf:RDF>
      <cc:Work
         rdf:about="">
        <dc:format>image/svg+xml</dc:format>
        <dc:type
           rdf:resource="http://purl.org/dc/dcmitype/StillImage" />
        <dc:title></dc:title>
      </cc:Work>
    </rdf:RDF>
  </metadata>
  <g
     inkscape:label="Layer 1"
     inkscape:groupmode="layer"
     id="layer1"
     transform="translate(911.69581,270.90958)">
    <g
       id="g4632-7-6-4-2-1-7-9-20-9-9-8"
       transform="matrix(1.8385971,0,0,1.8385971,-4366.9119,-24925.735)">
      <g
         transform="matrix(-1,0,0,1,2633.1187,2017.5054)"
         id="g5730-0-3-1-1-9-73-8-4-2-7-6-7">
        <path
           sodipodi:nodetypes="cssccscccc"
           inkscape:connector-curvature="0"
           style="color:#000000;fill:#698eab;fill-opacity:1;fill-rule:nonzero;stroke:none;stroke-width:0.24476303;marker:none;visibility:visible;display:inline;overflow:visible;enable-background:accumulate"
           d="m 437.82312,11466.551 c -9.02138,0 -12.48175,7.253 -12.48175,16.277 l 0,6.153 c 0,2.617 1.22716,5.841 5.96969,6.148 4.03516,0.231 10.92927,0.347 18.27026,0.347 3.66007,-4.526 17.50849,-9.047 24.28509,-9.047 l 2.53247,0 c -0.31836,-1.748 -5.01284,-19.617 -5.8487,-19.895 l -32.72706,0 z"
           id="path6027-5-0-4-5-3-19-9-7-2-2-7-4-8-5-9-2-4-5-5-4-1-2-2-9-7-1-2" />
        <path
           clip-path="url(#clipPath3786-8-7-09-3-58-9-3-5-2-06-7-3-0-7)"
           inkscape:connector-curvature="0"
           style="color:#000000;fill:#547b96;fill-opacity:1;fill-rule:nonzero;stroke:none;stroke-width:0.24476303;marker:none;visibility:visible;display:inline;overflow:visible;enable-background:accumulate"
           d="m 440.03125,11463.031 c 0.30859,0.785 0.66445,1.56 1.09375,2.313 4.81177,8.44 15.49928,11.372 23.9375,6.562 2.79871,-1.595 5.003,-3.868 6.53125,-6.468 -0.45968,-1.37 -0.85013,-2.347 -1.03125,-2.407 l -30.53125,0 z"
           id="path6027-5-0-4-5-3-19-9-7-2-2-7-4-8-5-1-4-5-8-9-8-23-4-62-2-7-56-9-6-4" />
        <path
           sodipodi:nodetypes="sssccs"
           inkscape:connector-curvature="0"
           style="color:#000000;fill:#698eab;fill-opacity:1;fill-rule:nonzero;stroke:none;stroke-width:0.24476303;marker:none;visibility:visible;display:inline;overflow:visible;enable-background:accumulate"
           d="m 456.45459,11434.714 c -9.71601,0 -17.54612,7.832 -17.54612,17.545 0,9.725 7.83011,17.73 17.54612,17.73 2.65634,0 5.14482,-0.746 7.41681,-1.811 1.00546,-7.225 4.78478,-13.476 10.12988,-17.91 -0.99793,-8.775 -8.50157,-15.554 -17.54669,-15.554 z"
           id="path6027-5-0-4-5-3-19-9-7-2-2-7-4-8-5-1-3-6-6-2-1-8-0-6-3-7-5-7-7" />
      </g>
      <g
         id="g6138-1-2-7-2-5-5-1-6-2-4-5-2-26-7-8-7"
         transform="matrix(5.7885056,0,0,5.7885056,-8150.0825,-54594.819)"
         inkscape:export-filename="C:\Users\jonescd\Desktop\CloudList\crowdplay_logo0.png"
         inkscape:export-xdpi="90"
         inkscape:export-ydpi="90"
         style="fill:url(#linearGradient18577-9-0-0-2-0);fill-opacity:1;stroke:none">
        <path
           id="path6027-5-0-4-5-3-19-9-7-2-2-7-4-8-5-0-1-9-8-7-6-2-0-2-7-4-0"
           d="m 1768.5091,11761.045 c -1.5585,0 -2.1563,1.253 -2.1563,2.812 l 0,1.063 c 0,0.452 0.212,1.009 1.0313,1.062 0.6971,0.04 1.8881,0.06 3.1563,0.06 0.6323,-0.782 3.0247,-1.563 4.1954,-1.563 l 0.4375,0 c -0.055,-0.302 -0.866,-3.389 -1.0104,-3.437 l -5.6538,0 z"
           style="color:#000000;fill:#698eab;fill-opacity:1;fill-rule:nonzero;stroke:none;stroke-width:0.24476303;marker:none;visibility:visible;display:inline;overflow:visible;enable-background:accumulate"
           inkscape:connector-curvature="0"
           sodipodi:nodetypes="cssccscccc" />
        <path
           style="color:#000000;fill:#d67e6e;fill-opacity:1;fill-rule:nonzero;stroke:none;stroke-width:0.24476303;marker:none;visibility:visible;display:inline;overflow:visible;enable-background:accumulate"
           d="m 1772.6388,11763.904 c -2.562,0.01 -3.5823,2.555 -3.5823,5.117 l 0,6.114 c 0,0.744 0.3695,1.648 1.7164,1.735 3.0307,0.195 11.4404,0.117 14.1947,-0.09 1.5958,0.09 1.8448,-1.085 1.8448,-1.741 l 0,-6.017 c 0,-2.563 -1.0204,-5.118 -3.5823,-5.118 l -0.6231,0 c -3.3189,0 -6.5585,0 -9.3452,0 z"
           id="path6027-5-0-4-5-3-19-9-7-8-4-5-9-4-9-0-3-82-2-82-9-0-2-2-2-2"
           inkscape:connector-curvature="0"
           sodipodi:nodetypes="sssscssssss" />
      </g>
      <path
         clip-path="url(#clipPath3808-2-8-1-1-9-4-9-7-9-47-6-8-2-5)"
         inkscape:connector-curvature="0"
         id="path6027-5-0-4-5-3-19-9-7-2-2-7-4-8-5-1-4-6-0-4-9-9-6-0-1-2-4-1-1"
         d="m 440.03125,11463.031 c 0.30859,0.785 0.66445,1.56 1.09375,2.313 4.81177,8.44 15.49928,11.372 23.9375,6.562 2.79871,-1.595 5.003,-3.868 6.53125,-6.468 -0.45968,-1.37 -0.85013,-2.347 -1.03125,-2.407 l -30.53125,0 z"
         style="color:#000000;fill:#547b96;fill-opacity:1;fill-rule:nonzero;stroke:none;stroke-width:0.24476303;marker:none;visibility:visible;display:inline;overflow:visible;enable-background:accumulate"
         transform="translate(1649.1193,2017.5054)" />
      <path
         id="path6027-5-0-4-5-3-19-9-7-2-2-7-4-8-5-1-37-6-3-9-0-5-0-8-3-0-8-8"
         d="m 2105.5739,13452.22 c -9.7161,0 -17.5462,7.832 -17.5462,17.545 0,9.725 7.8301,17.73 17.5462,17.73 2.6563,0 5.1448,-0.746 7.4168,-1.811 1.0054,-7.225 4.7847,-13.476 10.1298,-17.91 -0.9979,-8.775 -8.5015,-15.554 -17.5466,-15.554 z"
         style="color:#000000;fill:#698eab;fill-opacity:1;fill-rule:nonzero;stroke:none;stroke-width:0.24476303;marker:none;visibility:visible;display:inline;overflow:visible;enable-background:accumulate"
         inkscape:connector-curvature="0"
         sodipodi:nodetypes="sssccs" />
      <path
         clip-path="url(#clipPath3737-7-5-0-1-4-2-5-6-7-1-4-9-8-4)"
         inkscape:connector-curvature="0"
         id="path6027-5-0-4-5-3-19-9-7-8-4-5-9-4-7-9-8-8-9-8-8-83-9-5-5-0-2-6"
         d="m 465.53125,11479.344 c 4.24112,10.667 14.6286,18.218 26.8125,18.218 12.18301,0 22.60948,-7.551 26.875,-18.218 l -53.6875,0 z"
         style="color:#000000;fill:#bc6757;fill-opacity:1;fill-rule:nonzero;stroke:none;stroke-width:0.24476303;marker:none;visibility:visible;display:inline;overflow:visible;enable-background:accumulate"
         transform="translate(1649.1193,2017.5054)" />
      <path
         style="color:#000000;fill:#d67e6e;fill-opacity:1;fill-rule:nonzero;stroke:none;stroke-width:0.24476303;marker:none;visibility:visible;display:inline;overflow:visible;enable-background:accumulate"
         d="m 2141.3562,13451.143 c -15.9751,0 -28.8511,12.885 -28.8511,28.856 0,15.982 12.876,28.937 28.8511,28.937 15.9739,0 28.9385,-12.955 28.9385,-28.937 0,-15.965 -12.9732,-28.856 -28.9385,-28.856 z"
         id="path6027-5-0-4-5-3-19-9-7-8-4-5-9-4-7-82-1-9-3-1-7-8-6-1-1-7-7"
         inkscape:connector-curvature="0"
         sodipodi:nodetypes="sssss" />
    </g>
    <text
       xml:space="preserve"
       style="font-size:24.56724548px;font-style:normal;font-weight:normal;line-height:125%;letter-spacing:0px;word-spacing:0px;fill:#ffffff;fill-opacity:1;stroke:none;font-family:Sans"
       x="-466.02515"
       y="222.19864"
       id="text17888-2-5-5-9-6"
       sodipodi:linespacing="125%"><tspan
         sodipodi:role="line"
         id="tspan17890-4-9-4-0-8"
         x="-466.02515"
         y="222.19864"
         style="font-style:normal;font-variant:normal;font-weight:normal;font-stretch:normal;fill:#ffffff;fill-opacity:1;font-family:NanumGothic;-inkscape-font-specification:NanumGothic">(You might be a d**k)</tspan></text>
    <g
       id="g4935-8-4-2-9-8-3-3-0-6"
       transform="matrix(0.69895751,-0.12732017,0.12732017,0.69895751,-2634.3779,-7765.0228)">
      <g
         transform="matrix(2.5713469,0,0,2.5713469,-1693.5666,-17428.06)"
         id="g4826-81-8-4-6-6-0-1-2-6">
        <g
           inkscape:export-ydpi="90"
           inkscape:export-xdpi="90"
           inkscape:export-filename="C:\Users\jonescd\Desktop\CloudList\crowdplay_logo0.png"
           id="g4777-3-2-8-8-2-3-4-0-0" />
        <g
           inkscape:export-ydpi="90"
           inkscape:export-xdpi="90"
           inkscape:export-filename="C:\Users\jonescd\Desktop\CloudList\crowdplay_logo0.png"
           id="g4620-5-3-0-8-3-5-8-4-3"
           transform="matrix(0.87142169,0,0,0.87142169,-173.29299,1310.1975)">
          <path
             inkscape:connector-curvature="0"
             id="path4366-5-5-5-9-6-4-9-2-4-8-6"
             d="m 1457.6666,11190.065 c -9.2375,0 -17.5718,3.824 -23.5312,9.968 l 1.5937,1.313 c 2.0981,1.766 3.2453,0.968 4.5937,0.03 0.052,-0.04 0.104,-0.08 0.1563,-0.125 4.7156,-3.755 10.6929,-6 17.1875,-6 6.3582,0 12.2047,2.171 16.875,5.781 0.053,0.04 0.1041,0.06 0.1562,0.09 0.053,0.04 0.1042,0.08 0.1563,0.125 1.4438,0.996 2.6063,1.951 4.8125,0.09 l 1.5625,-1.313 c -5.9632,-6.147 -14.3201,-9.968 -23.5625,-9.968 z"
             style="color:#000000;fill:#b8b8b8;fill-opacity:1;fill-rule:nonzero;stroke:none;stroke-width:1.10000002;marker:none;visibility:visible;display:inline;overflow:visible;enable-background:accumulate" />
          <path
             id="path4366-5-6-5-1-9-2-0-9-2-2"
             d="m 1457.6666,11184.971 c -21.8773,0 -39.6979,17.342 -40.4688,39.031 l -0.061,5.157 5.4284,-0.407 1.0394,-4.75 c 0.7721,-18.142 15.7305,-32.625 34.0625,-32.625 18.3327,0 33.2933,14.478 34.0625,32.625 l 1.5076,4.99 4.894,0.192 0,-5.182 c -0.7706,-21.692 -18.5927,-39.031 -40.4688,-39.031 z"
             style="color:#000000;fill:#e2e2e2;fill-opacity:1;fill-rule:nonzero;stroke:none;stroke-width:1.10000002;marker:none;visibility:visible;display:inline;overflow:visible;enable-background:accumulate"
             inkscape:connector-curvature="0"
             sodipodi:nodetypes="sccccsccccs" />
        </g>
        <g
           inkscape:export-ydpi="90"
           inkscape:export-xdpi="90"
           inkscape:export-filename="C:\Users\jonescd\Desktop\CloudList\crowdplay_logo0.png"
           id="g4407-6-1-3-9-4-3-2-1-0"
           transform="matrix(0.98975876,-0.14275014,0.14275014,0.98975876,-1943.1486,200.38958)"
           style="fill:#8d8d8d;fill-opacity:1;stroke:none">
          <rect
             y="11206.25"
             x="1416.3588"
             height="26.25"
             width="9.5"
             id="rect4387-3-9-8-2-6-7-0-1-9"
             style="color:#000000;fill:#e2e2e2;fill-opacity:1;stroke:none;stroke-width:1.10000002;marker:none;visibility:visible;display:inline;overflow:visible;enable-background:accumulate"
             ry="1.9445436" />
          <rect
             ry="4.6948624"
             y="11203.3"
             x="1419.7727"
             height="32.150131"
             width="9.3897247"
             id="rect4387-9-0-0-9-5-1-2-7-5-6"
             style="color:#000000;fill:#b8b8b8;fill-opacity:1;stroke:none;stroke-width:1.21027493;marker:none;visibility:visible;display:inline;overflow:visible;enable-background:accumulate" />
        </g>
        <g
           inkscape:export-ydpi="90"
           inkscape:export-xdpi="90"
           inkscape:export-filename="C:\Users\jonescd\Desktop\CloudList\crowdplay_logo0.png"
           id="g4463-6-1-1-8-6-2-0-1-7"
           transform="matrix(0.99236177,0.12336173,-0.12336173,0.99236177,1034.3095,-215.53235)">
          <rect
             transform="scale(-1,1)"
             ry="1.9445436"
             style="color:#000000;fill:#acacac;fill-opacity:1;stroke:none;stroke-width:1.10000002;marker:none;visibility:visible;display:inline;overflow:visible;enable-background:accumulate"
             id="rect4387-8-5-0-8-08-2-1-6-4-8"
             width="9.5"
             height="26.25"
             x="-1494.8575"
             y="11206.25" />
          <rect
             transform="scale(-1,1)"
             style="color:#000000;fill:#b8b8b8;fill-opacity:1;stroke:none;stroke-width:1.21027493;marker:none;visibility:visible;display:inline;overflow:visible;enable-background:accumulate"
             id="rect4387-9-8-0-4-49-8-9-1-0-3-4"
             width="9.3897247"
             height="32.150131"
             x="-1491.4436"
             y="11203.3"
             ry="4.6948624" />
        </g>
      </g>
    </g>
    <g
       id="g16788-6-8-9"
       transform="matrix(1.9029182,0,0,1.9029182,3144.0071,-20719.284)">
      <g
         id="g16788-63-2"
         transform="matrix(1.0570776,0,0,1.0570776,109.93906,-625.45798)">
        <g
           id="g23522-1-4-5-3-3"
           transform="matrix(2.3550527,0,0,3.3038841,-4066.351,-30685.096)">
          <path
             sodipodi:nodetypes="cccccc"
             inkscape:connector-curvature="0"
             id="rect23497-9-2-2-3-7-8"
             d="m 826.36048,12593.069 8.60662,12.428 -8.59111,12.429 36.70768,0 0,-24.857 z"
             style="fill:#bc6757;fill-opacity:1;stroke:none" />
          <path
             transform="matrix(0.49713348,0,0,0.49713348,3164.7662,-821.84228)"
             inkscape:connector-curvature="0"
             id="path23520-8-8-40-8-4"
             d="m -4662.3047,27021.112 32.2266,13.282 0,-19.532 z"
             style="fill:#71382d;fill-opacity:1;stroke:none" />
        </g>
        <g
           transform="matrix(-2.3550527,0,0,3.3038841,397.15294,-30685.092)"
           id="g23522-2-1-0-4-59-5">
          <path
             sodipodi:nodetypes="cccccc"
             inkscape:connector-curvature="0"
             id="rect23497-9-0-9-5-4-6-0"
             d="m 826.36048,12593.069 8.60662,12.428 -8.59111,12.429 36.70768,0 0,-24.857 z"
             style="fill:#bc6757;fill-opacity:1;stroke:none" />
          <path
             transform="matrix(0.49713348,0,0,0.49713348,3164.7662,-821.84228)"
             inkscape:connector-curvature="0"
             id="path23520-2-1-4-8-7-2"
             d="m -4662.3047,27021.112 32.2266,13.282 0,-19.532 z"
             style="fill:#71382d;fill-opacity:1;stroke:none" />
        </g>
        <rect
           style="fill:#a35141;fill-opacity:1;stroke:none"
           id="rect23497-6-2-6-5-2"
           width="474.71289"
           height="82.123573"
           x="-2071.9006"
           y="10898.915" />
        <g
           transform="matrix(2.3550527,0,0,2.3550527,-4066.3867,-19270.538)"
           id="g17961-1-7-9">
          <rect
             y="12813.982"
             x="853.13989"
             height="27.950127"
             width="189.08546"
             id="rect17574-3-8-5-0-2-9"
             style="fill:#8c4638;fill-opacity:1" />
          <rect
             style="fill:none;stroke:#bb6151;stroke-width:0.33158004;stroke-miterlimit:4;stroke-opacity:1;stroke-dasharray:2.65264055, 2.65264055;stroke-dashoffset:0"
             id="rect17926-4-6-4-2"
             width="184.67168"
             height="24.05921"
             x="855.3468"
             y="12815.928" />
        </g>
        <g
           style="font-size:22.33554268px;font-style:normal;font-variant:normal;font-weight:normal;font-stretch:normal;line-height:125%;letter-spacing:0px;word-spacing:0px;fill:#ffffff;fill-opacity:1;stroke:none;font-family:Roboto;-inkscape-font-specification:Roboto"
           id="text6611-4-1-04-1-6-7-4-7">
          <path
             d="m -2027.0532,10946.18 c 0,0.184 -0.092,0.276 -0.2761,0.276 l -0.9073,0 c -0.184,0 -0.2761,-0.09 -0.2761,-0.276 l 0,-5.897 c -0.8809,-1.38 -1.7618,-2.748 -2.6428,-4.102 -0.8678,-1.367 -1.7421,-2.728 -2.6231,-4.082 -0.026,-0.07 -0.026,-0.125 0,-0.178 0.026,-0.07 0.079,-0.1 0.1578,-0.1 l 1.1242,0 c 0.1578,0 0.2893,0.09 0.3944,0.277 l 4.2995,6.922 c 0.7889,-1.196 1.5318,-2.347 2.2287,-3.451 0.6968,-1.118 1.4397,-2.275 2.2286,-3.471 0.092,-0.184 0.2235,-0.277 0.3944,-0.277 l 0.9861,0 c 0.079,0 0.1315,0.03 0.1578,0.1 0.04,0.05 0.04,0.112 0,0.178 l -5.2461,8.184 0,5.897"
             style="font-size:19.72236443px;fill:#ffffff;font-family:NanumGothic;-inkscape-font-specification:NanumGothic"
             id="path24054" />
          <path
             d="m -2013.4983,10941.131 c 0,-0.618 -0.085,-1.196 -0.2564,-1.735 -0.1577,-0.539 -0.3813,-1.019 -0.6705,-1.44 -0.6837,-0.841 -1.5712,-1.262 -2.6625,-1.262 -0.5523,0 -1.0519,0.112 -1.4989,0.335 -0.4339,0.211 -0.8218,0.52 -1.1636,0.927 -0.3025,0.421 -0.5391,0.901 -0.7101,1.44 -0.1577,0.539 -0.2366,1.117 -0.2366,1.735 0,0.632 0.079,1.217 0.2366,1.756 0.171,0.539 0.4076,1.012 0.7101,1.42 0.6968,0.854 1.5843,1.282 2.6625,1.282 0.5522,0 1.0452,-0.112 1.4791,-0.336 0.4471,-0.223 0.8415,-0.539 1.1834,-0.946 0.2892,-0.408 0.5128,-0.881 0.6705,-1.42 0.171,-0.539 0.2564,-1.124 0.2564,-1.756 m 1.4595,0 c 0,0.776 -0.1118,1.499 -0.3353,2.17 -0.2235,0.657 -0.5194,1.236 -0.8875,1.735 -0.4602,0.553 -1.0124,0.98 -1.6567,1.282 -0.6311,0.303 -1.3542,0.454 -2.1694,0.454 -0.8152,0 -1.545,-0.151 -2.1892,-0.454 -0.6443,-0.302 -1.1965,-0.729 -1.6567,-1.282 -0.3681,-0.499 -0.664,-1.078 -0.8875,-1.735 -0.2104,-0.671 -0.3156,-1.394 -0.3156,-2.17 0,-1.591 0.4011,-2.892 1.2031,-3.905 0.9204,-1.143 2.2023,-1.715 3.8459,-1.715 0.8283,0 1.558,0.144 2.1892,0.433 0.6311,0.277 1.1767,0.704 1.6369,1.282 0.8152,1.039 1.2228,2.341 1.2228,3.905"
             style="font-size:19.72236443px;fill:#ffffff;font-family:NanumGothic;-inkscape-font-specification:NanumGothic"
             id="path24056" />
          <path
             d="m -2000.8672,10946.18 c 0,0.184 -0.092,0.276 -0.2761,0.276 l -0.71,0 c -0.1841,0 -0.2761,-0.09 -0.2761,-0.276 l 0,-1.637 c -0.3419,0.789 -0.802,1.355 -1.3806,1.697 -0.5653,0.355 -1.2819,0.532 -2.1497,0.532 -2.4587,0 -3.6881,-1.374 -3.6881,-4.122 l 0,-6.587 c 0,-0.184 0.092,-0.276 0.2761,-0.276 l 0.7889,0 c 0.1841,0 0.2761,0.09 0.2761,0.276 l 0,6.232 c 0,2.235 0.8547,3.353 2.5639,3.353 0.4997,0 0.9467,-0.105 1.3412,-0.316 0.4076,-0.223 0.7494,-0.519 1.0255,-0.887 0.2761,-0.382 0.4865,-0.822 0.6311,-1.322 0.1447,-0.499 0.2104,-1.025 0.1973,-1.577 l 0,-5.483 c 0,-0.184 0.092,-0.276 0.2761,-0.276 l 0.7889,0 c 0.184,0 0.2761,0.09 0.2761,0.276 l 0,7.928 c 0,0.434 0,0.822 0,1.164 0.013,0.342 0.026,0.683 0.039,1.025"
             style="font-size:19.72236443px;fill:#ffffff;font-family:NanumGothic;-inkscape-font-specification:NanumGothic"
             id="path24058" />
          <path
             d="m -1995.454,10936.004 c 0,0.144 -0.013,0.23 -0.039,0.256 -0.013,0.01 -0.092,0.02 -0.2367,0.02 l -0.7692,0 c -0.1446,0 -0.2301,-0 -0.2564,-0.02 -0.013,-0.03 -0.02,-0.112 -0.02,-0.256 l 0,-4.004 c 0,-0.145 0.01,-0.224 0.02,-0.237 0.026,-0.03 0.1118,-0.04 0.2564,-0.04 l 0.7692,0 c 0.1446,0 0.2235,0.01 0.2367,0.04 0.026,0.01 0.039,0.09 0.039,0.237 l 0,4.004"
             style="font-size:19.72236443px;fill:#ffffff;font-family:NanumGothic;-inkscape-font-specification:NanumGothic"
             id="path24060" />
          <path
             d="m -1987.59,10946.2 c -0.066,0.171 -0.1972,0.256 -0.3945,0.256 l -0.9663,0 c -0.1973,0 -0.3222,-0.09 -0.3748,-0.256 l -3.4711,-10.137 c -0.026,-0.07 -0.02,-0.125 0.02,-0.178 0.04,-0.07 0.099,-0.1 0.1775,-0.1 l 0.8875,0 c 0.1578,0 0.2761,0.09 0.355,0.276 l 2.9189,9.033 3.0373,-9.033 c 0.026,-0.08 0.072,-0.145 0.138,-0.197 0.066,-0.05 0.1381,-0.08 0.217,-0.08 l 0.8678,0 c 0.079,0 0.138,0.03 0.1775,0.1 0.039,0.05 0.046,0.112 0.02,0.178 l -3.6092,10.137"
             style="font-size:19.72236443px;fill:#ffffff;font-family:NanumGothic;-inkscape-font-specification:NanumGothic"
             id="path24062" />
          <path
             d="m -1975.2956,10940.382 c 0,-0.539 -0.053,-1.019 -0.1578,-1.44 -0.1051,-0.42 -0.2695,-0.802 -0.493,-1.144 -0.4865,-0.775 -1.1899,-1.163 -2.1103,-1.163 -0.9467,0 -1.7159,0.394 -2.3075,1.183 -0.2367,0.355 -0.4339,0.763 -0.5917,1.223 -0.1578,0.46 -0.2432,0.907 -0.2564,1.341 l 5.9167,0 m -5.9167,1.124 c -0.013,0.658 0.059,1.243 0.217,1.755 0.1709,0.5 0.4141,0.921 0.7297,1.263 0.3155,0.342 0.6903,0.604 1.1242,0.789 0.447,0.184 0.9401,0.276 1.4791,0.276 0.526,0 1.019,-0.05 1.4792,-0.138 0.4602,-0.106 0.8875,-0.27 1.282,-0.493 0.1709,-0.08 0.2564,-0.03 0.2564,0.138 l 0,0.887 c 0,0.118 -0.072,0.21 -0.217,0.276 -0.4339,0.171 -0.8875,0.296 -1.3608,0.375 -0.4734,0.09 -0.9862,0.138 -1.5384,0.138 -1.6172,0 -2.84,-0.467 -3.6683,-1.4 -0.8284,-0.947 -1.2425,-2.367 -1.2425,-4.26 0,-1.67 0.4141,-3.018 1.2425,-4.043 0.8677,-1.039 1.9656,-1.558 3.2936,-1.558 0.7363,0 1.374,0.131 1.9131,0.394 0.539,0.263 0.9992,0.657 1.3805,1.183 0.6706,0.934 1.0059,2.183 1.0059,3.748 0,0.171 -0.01,0.302 -0.02,0.394 -10e-5,0.09 -0.02,0.158 -0.059,0.197 -0.04,0.04 -0.1118,0.07 -0.217,0.08 -0.092,0 -0.2301,0 -0.4141,0 l -6.6662,0"
             style="font-size:19.72236443px;fill:#ffffff;font-family:NanumGothic;-inkscape-font-specification:NanumGothic"
             id="path24064" />
          <path
             d="m -1958.0145,10941.053 c 0.013,-0.553 -0.039,-1.092 -0.1578,-1.618 -0.1051,-0.526 -0.2826,-0.999 -0.5325,-1.42 -0.2498,-0.42 -0.5851,-0.756 -1.0058,-1.006 -0.4076,-0.263 -0.9138,-0.394 -1.5186,-0.394 -0.5391,0 -1.0124,0.118 -1.42,0.355 -0.3945,0.224 -0.7232,0.539 -0.9861,0.947 -0.263,0.407 -0.4602,0.881 -0.5917,1.42 -0.1315,0.539 -0.1972,1.111 -0.1972,1.716 0,0.591 0.079,1.163 0.2366,1.715 0.1709,0.539 0.3945,1.013 0.6706,1.42 0.2892,0.408 0.6245,0.737 1.0058,0.987 0.3945,0.236 0.8218,0.355 1.282,0.355 0.6048,0 1.111,-0.125 1.5186,-0.375 0.4207,-0.263 0.756,-0.605 1.0058,-1.026 0.2499,-0.421 0.4274,-0.9 0.5325,-1.44 0.1184,-0.539 0.171,-1.084 0.1578,-1.636 m -7.7311,-10.079 c 0,-0.184 0.092,-0.276 0.2761,-0.276 l 0.7691,0 c 0.1841,0 0.2762,0.09 0.2762,0.276 l 0,6.292 c 0.3287,-0.539 0.7954,-0.967 1.4002,-1.282 0.6049,-0.329 1.282,-0.493 2.0314,-0.493 2.9321,0 4.3981,1.854 4.3981,5.562 0.013,0.736 -0.066,1.446 -0.2366,2.13 -0.1578,0.67 -0.4208,1.262 -0.7889,1.775 -0.3682,0.512 -0.8349,0.92 -1.4003,1.222 -0.5522,0.316 -1.2097,0.474 -1.9723,0.474 -1.5777,0 -2.7216,-0.671 -3.4316,-2.012 l 0,1.538 c 0,0.184 -0.092,0.276 -0.2762,0.276 l -0.7691,0 c -0.1841,0 -0.2761,-0.09 -0.2761,-0.276 l 0,-15.206"
             style="font-size:19.72236443px;fill:#ffffff;font-family:NanumGothic;-inkscape-font-specification:NanumGothic"
             id="path24066" />
          <path
             d="m -1947.0988,10940.382 c 0,-0.539 -0.053,-1.019 -0.1577,-1.44 -0.1052,-0.42 -0.2696,-0.802 -0.4931,-1.144 -0.4865,-0.775 -1.1899,-1.163 -2.1103,-1.163 -0.9467,0 -1.7158,0.394 -2.3075,1.183 -0.2367,0.355 -0.4339,0.763 -0.5917,1.223 -0.1578,0.46 -0.2432,0.907 -0.2564,1.341 l 5.9167,0 m -5.9167,1.124 c -0.013,0.658 0.059,1.243 0.217,1.755 0.1709,0.5 0.4141,0.921 0.7297,1.263 0.3156,0.342 0.6903,0.604 1.1242,0.789 0.447,0.184 0.9401,0.276 1.4792,0.276 0.5259,0 1.0189,-0.05 1.4791,-0.138 0.4602,-0.106 0.8875,-0.27 1.282,-0.493 0.1709,-0.08 0.2564,-0.03 0.2564,0.138 l 0,0.887 c 0,0.118 -0.072,0.21 -0.217,0.276 -0.4339,0.171 -0.8875,0.296 -1.3608,0.375 -0.4734,0.09 -0.9861,0.138 -1.5384,0.138 -1.6172,0 -2.84,-0.467 -3.6683,-1.4 -0.8284,-0.947 -1.2425,-2.367 -1.2425,-4.26 0,-1.67 0.4141,-3.018 1.2425,-4.043 0.8678,-1.039 1.9656,-1.558 3.2936,-1.558 0.7363,0 1.374,0.131 1.9131,0.394 0.5391,0.263 0.9992,0.657 1.3806,1.183 0.6705,0.934 1.0058,2.183 1.0058,3.748 0,0.171 -0.01,0.302 -0.02,0.394 0,0.09 -0.02,0.158 -0.059,0.197 -0.039,0.04 -0.1118,0.07 -0.2169,0.08 -0.092,0 -0.2301,0 -0.4142,0 l -6.6662,0"
             style="font-size:19.72236443px;fill:#ffffff;font-family:NanumGothic;-inkscape-font-specification:NanumGothic"
             id="path24068" />
          <path
             d="m -1936.3516,10940.382 c 0,-0.539 -0.053,-1.019 -0.1578,-1.44 -0.1052,-0.42 -0.2695,-0.802 -0.4931,-1.144 -0.4864,-0.775 -1.1899,-1.163 -2.1102,-1.163 -0.9467,0 -1.7159,0.394 -2.3076,1.183 -0.2366,0.355 -0.4339,0.763 -0.5916,1.223 -0.1578,0.46 -0.2433,0.907 -0.2564,1.341 l 5.9167,0 m -5.9167,1.124 c -0.013,0.658 0.059,1.243 0.2169,1.755 0.1709,0.5 0.4142,0.921 0.7298,1.263 0.3155,0.342 0.6902,0.604 1.1241,0.789 0.4471,0.184 0.9401,0.276 1.4792,0.276 0.5259,0 1.019,-0.05 1.4792,-0.138 0.4602,-0.106 0.8875,-0.27 1.2819,-0.493 0.171,-0.08 0.2564,-0.03 0.2564,0.138 l 0,0.887 c 0,0.118 -0.072,0.21 -0.2169,0.276 -0.4339,0.171 -0.8875,0.296 -1.3609,0.375 -0.4733,0.09 -0.9861,0.138 -1.5383,0.138 -1.6172,0 -2.84,-0.467 -3.6684,-1.4 -0.8283,-0.947 -1.2425,-2.367 -1.2425,-4.26 0,-1.67 0.4142,-3.018 1.2425,-4.043 0.8678,-1.039 1.9657,-1.558 3.2937,-1.558 0.7363,0 1.3739,0.131 1.913,0.394 0.5391,0.263 0.9993,0.657 1.3806,1.183 0.6706,0.934 1.0058,2.183 1.0058,3.748 0,0.171 -0.01,0.302 -0.02,0.394 0,0.09 -0.02,0.158 -0.059,0.197 -0.04,0.04 -0.1118,0.07 -0.217,0.08 -0.092,0 -0.2301,0 -0.4142,0 l -6.6661,0"
             style="font-size:19.72236443px;fill:#ffffff;font-family:NanumGothic;-inkscape-font-specification:NanumGothic"
             id="path24070" />
          <path
             d="m -1923.7506,10946.18 c 0,0.184 -0.092,0.276 -0.2761,0.276 l -0.7889,0 c -0.1841,0 -0.2761,-0.09 -0.2761,-0.276 l 0,-6.212 c 0,-1.21 -0.2169,-2.064 -0.6508,-2.564 -0.4339,-0.513 -1.0453,-0.769 -1.8342,-0.769 -1.065,0 -1.8802,0.296 -2.4456,0.887 -0.5522,0.592 -0.8283,1.42 -0.8283,2.485 l 0,6.173 c 0,0.184 -0.092,0.276 -0.2761,0.276 l -0.7889,0 c -0.1841,0 -0.2761,-0.09 -0.2761,-0.276 l 0,-7.889 c 0,-0.565 -0.01,-1.005 -0.02,-1.321 0,-0.316 -0.013,-0.618 -0.039,-0.907 -0.013,-0.09 0.01,-0.158 0.059,-0.197 0.066,-0.05 0.138,-0.08 0.2169,-0.08 l 0.71,0 c 0.1841,0 0.2761,0.09 0.2761,0.276 l 0,1.085 c 0.3682,-0.566 0.8086,-0.98 1.3214,-1.243 0.526,-0.263 1.2425,-0.394 2.1498,-0.394 1.249,0 2.1891,0.361 2.8203,1.084 0.6311,0.723 0.9466,1.742 0.9466,3.057 l 0,6.528"
             style="font-size:19.72236443px;fill:#ffffff;font-family:NanumGothic;-inkscape-font-specification:NanumGothic"
             id="path24072" />
          <path
             d="m -1911.2315,10940.54 4.2601,5.64 c 0.039,0.07 0.053,0.125 0.039,0.178 -0.013,0.07 -0.059,0.1 -0.1381,0.1 l -0.848,0 c -0.1315,0 -0.2498,-0.02 -0.355,-0.06 -0.1052,-0.04 -0.1907,-0.111 -0.2564,-0.217 l -3.55,-4.694 -1.3214,1.48 0,3.214 c 0,0.184 -0.092,0.276 -0.2762,0.276 l -0.7888,0 c -0.1841,0 -0.2762,-0.09 -0.2762,-0.276 l 0,-15.146 c 0,-0.184 0.092,-0.277 0.2762,-0.277 l 0.7888,0 c 0.1841,0 0.2762,0.09 0.2762,0.277 l 0,10.275 4.4967,-5.246 c 0.184,-0.184 0.401,-0.276 0.6508,-0.276 l 0.9269,0 c 0.079,0 0.1315,0.03 0.1578,0.1 0.026,0.05 0.01,0.112 -0.059,0.178 l -4.0037,4.477"
             style="font-size:19.72236443px;fill:#ffffff;font-family:NanumGothic;-inkscape-font-specification:NanumGothic"
             id="path24074" />
          <path
             d="m -1903.0954,10946.18 c 0,0.184 -0.092,0.276 -0.2761,0.276 l -0.8678,0 c -0.1841,0 -0.2761,-0.09 -0.2761,-0.276 l 0,-10.117 c 0,-0.184 0.092,-0.276 0.2761,-0.276 l 0.8678,0 c 0.1841,0 0.2761,0.09 0.2761,0.276 l 0,10.117 m -1.6764,-14.121 c 0,-0.263 0.092,-0.486 0.2761,-0.67 0.1841,-0.198 0.4076,-0.296 0.6706,-0.296 0.2629,0 0.4865,0.1 0.6705,0.296 0.1973,0.184 0.2959,0.407 0.2959,0.67 0,0.263 -0.099,0.487 -0.2959,0.671 -0.184,0.184 -0.4076,0.276 -0.6705,0.276 -0.263,0 -0.4865,-0.09 -0.6706,-0.276 -0.1841,-0.184 -0.2761,-0.408 -0.2761,-0.671"
             style="font-size:19.72236443px;fill:#ffffff;font-family:NanumGothic;-inkscape-font-specification:NanumGothic"
             id="path24076" />
          <path
             d="m -1892.8755,10946.535 c -0.3945,0.07 -0.7758,0.112 -1.1439,0.138 -0.3682,0.03 -0.8086,0.04 -1.3214,0.04 -0.8152,0 -1.5449,-0.145 -2.1892,-0.434 -0.6311,-0.289 -1.1702,-0.684 -1.6172,-1.183 -0.4339,-0.5 -0.7692,-1.092 -1.0059,-1.775 -0.2366,-0.684 -0.355,-1.42 -0.355,-2.209 0,-0.802 0.1249,-1.539 0.3748,-2.209 0.2498,-0.684 0.6048,-1.269 1.065,-1.755 0.4733,-0.5 1.0321,-0.888 1.6764,-1.164 0.6574,-0.289 1.3937,-0.434 2.2089,-0.434 0.4339,0 0.8283,0.02 1.1833,0.06 0.355,0.03 0.7363,0.09 1.1439,0.178 0.1841,0.05 0.2695,0.177 0.2564,0.374 l -0.059,0.632 c -0.026,0.157 -0.1249,0.216 -0.2958,0.177 -0.3419,-0.105 -0.6706,-0.177 -0.9861,-0.217 -0.3156,-0.05 -0.664,-0.08 -1.0453,-0.08 -0.6706,0 -1.2622,0.112 -1.775,0.335 -0.4996,0.211 -0.9204,0.513 -1.2622,0.908 -0.3419,0.394 -0.5983,0.867 -0.7692,1.42 -0.1709,0.539 -0.2564,1.13 -0.2564,1.775 0,0.591 0.086,1.157 0.2564,1.696 0.1841,0.539 0.4404,1.019 0.7692,1.44 0.3418,0.407 0.7494,0.736 1.2227,0.986 0.4865,0.236 1.0388,0.355 1.6567,0.355 0.4602,0 0.8415,-0.02 1.1439,-0.06 0.3024,-0.04 0.6443,-0.112 1.0256,-0.217 0.1972,-0.05 0.3024,-0 0.3155,0.138 l 0.059,0.729 c 0.013,0.198 -0.079,0.316 -0.2761,0.355"
             style="font-size:19.72236443px;fill:#ffffff;font-family:NanumGothic;-inkscape-font-specification:NanumGothic"
             id="path24078" />
          <path
             d="m -1886.6556,10940.54 4.2601,5.64 c 0.039,0.07 0.053,0.125 0.039,0.178 -0.013,0.07 -0.059,0.1 -0.1381,0.1 l -0.848,0 c -0.1315,0 -0.2498,-0.02 -0.355,-0.06 -0.1052,-0.04 -0.1907,-0.111 -0.2564,-0.217 l -3.55,-4.694 -1.3214,1.48 0,3.214 c 0,0.184 -0.092,0.276 -0.2761,0.276 l -0.7889,0 c -0.1841,0 -0.2762,-0.09 -0.2762,-0.276 l 0,-15.146 c 0,-0.184 0.092,-0.277 0.2762,-0.277 l 0.7889,0 c 0.184,0 0.2761,0.09 0.2761,0.277 l 0,10.275 4.4967,-5.246 c 0.184,-0.184 0.401,-0.276 0.6508,-0.276 l 0.927,0 c 0.079,0 0.1314,0.03 0.1577,0.1 0.026,0.05 0.01,0.112 -0.059,0.178 l -4.0037,4.477"
             style="font-size:19.72236443px;fill:#ffffff;font-family:NanumGothic;-inkscape-font-specification:NanumGothic"
             id="path24080" />
          <path
             d="m -1873.3325,10940.382 c 0,-0.539 -0.053,-1.019 -0.1578,-1.44 -0.1052,-0.42 -0.2695,-0.802 -0.493,-1.144 -0.4865,-0.775 -1.1899,-1.163 -2.1103,-1.163 -0.9467,0 -1.7159,0.394 -2.3075,1.183 -0.2367,0.355 -0.4339,0.763 -0.5917,1.223 -0.1578,0.46 -0.2433,0.907 -0.2564,1.341 l 5.9167,0 m -5.9167,1.124 c -0.013,0.658 0.059,1.243 0.2169,1.755 0.171,0.5 0.4142,0.921 0.7298,1.263 0.3155,0.342 0.6903,0.604 1.1242,0.789 0.447,0.184 0.94,0.276 1.4791,0.276 0.526,0 1.019,-0.05 1.4792,-0.138 0.4602,-0.106 0.8875,-0.27 1.282,-0.493 0.1709,-0.08 0.2563,-0.03 0.2564,0.138 l 0,0.887 c -1e-4,0.118 -0.072,0.21 -0.217,0.276 -0.4339,0.171 -0.8875,0.296 -1.3608,0.375 -0.4734,0.09 -0.9862,0.138 -1.5384,0.138 -1.6172,0 -2.84,-0.467 -3.6683,-1.4 -0.8284,-0.947 -1.2426,-2.367 -1.2426,-4.26 0,-1.67 0.4142,-3.018 1.2426,-4.043 0.8677,-1.039 1.9656,-1.558 3.2936,-1.558 0.7363,0 1.374,0.131 1.9131,0.394 0.539,0.263 0.9992,0.657 1.3805,1.183 0.6706,0.934 1.0059,2.183 1.0059,3.748 0,0.171 -0.01,0.302 -0.02,0.394 0,0.09 -0.02,0.158 -0.059,0.197 -0.04,0.04 -0.1118,0.07 -0.217,0.08 -0.092,0 -0.2301,0 -0.4141,0 l -6.6662,0"
             style="font-size:19.72236443px;fill:#ffffff;font-family:NanumGothic;-inkscape-font-specification:NanumGothic"
             id="path24082" />
          <path
             d="m -1868.3048,10941.112 c 0,0.618 0.046,1.183 0.138,1.696 0.1052,0.499 0.263,0.94 0.4734,1.321 0.2892,0.474 0.6377,0.835 1.0453,1.085 0.4207,0.25 0.9203,0.375 1.4989,0.375 0.5259,0 0.9861,-0.138 1.3805,-0.414 0.4076,-0.277 0.7429,-0.625 1.0059,-1.046 0.2761,-0.434 0.4799,-0.914 0.6114,-1.44 0.1314,-0.539 0.1972,-1.065 0.1972,-1.577 0,-0.631 -0.072,-1.217 -0.217,-1.756 -0.1315,-0.539 -0.3353,-1.005 -0.6114,-1.4 -0.2629,-0.394 -0.5916,-0.703 -0.9861,-0.927 -0.3944,-0.223 -0.8546,-0.335 -1.3805,-0.335 -1.1177,0 -1.9657,0.48 -2.5442,1.44 -0.2104,0.381 -0.3682,0.828 -0.4734,1.341 -0.092,0.499 -0.138,1.045 -0.138,1.637 m 7.672,5.068 c 0,0.184 -0.092,0.276 -0.2761,0.276 l -0.7692,0 c -0.1841,0 -0.2761,-0.09 -0.2761,-0.276 l 0,-1.479 c -0.71,1.341 -1.8539,2.012 -3.4317,2.012 -1.4069,0 -2.5048,-0.539 -3.2937,-1.617 -0.7231,-1 -1.0847,-2.328 -1.0847,-3.984 0,-3.695 1.4595,-5.542 4.3784,-5.542 0.7889,0 1.4857,0.158 2.0906,0.473 0.6179,0.316 1.065,0.723 1.3411,1.223 l 0,-6.213 c 0,-0.184 0.092,-0.276 0.2761,-0.276 l 0.7692,0 c 0.184,0 0.2761,0.09 0.2761,0.276 l 0,15.127"
             style="font-size:19.72236443px;fill:#ffffff;font-family:NanumGothic;-inkscape-font-specification:NanumGothic"
             id="path24084" />
          <path
             d="m -1775.341,10930.6 c 0.1709,0.05 0.2498,0.19 0.2367,0.414 l -0.04,0.572 c -0.013,0.08 -0.046,0.131 -0.099,0.158 -0.053,0.01 -0.1118,0 -0.1775,-0.02 -0.1446,-0.05 -0.2761,-0.09 -0.3944,-0.1 -0.1184,-0.03 -0.2564,-0.04 -0.4142,-0.04 -0.7758,0 -1.2754,0.388 -1.4989,1.163 -0.092,0.316 -0.1381,1.013 -0.1381,2.091 l 0,0.947 2.1695,0 c 0.1841,0 0.2761,0.09 0.2761,0.276 l 0,0.591 c 0,0.185 -0.092,0.277 -0.2761,0.277 l -2.1695,0 0,9.249 c 0,0.184 -0.092,0.276 -0.2761,0.276 l -0.7692,0 c -0.184,0 -0.2761,-0.09 -0.2761,-0.276 l 0,-9.249 -1.913,0 c -0.1841,0 -0.2762,-0.09 -0.2761,-0.277 l 0,-0.591 c -10e-5,-0.184 0.092,-0.276 0.2761,-0.276 l 1.913,0 0,-0.809 c 0,-1.433 0.1315,-2.465 0.3945,-3.096 0.4076,-0.947 1.2228,-1.42 2.4456,-1.42 0.3812,0 0.7165,0.05 1.0058,0.138"
             style="font-size:19.72236443px;fill:#ffffff;font-family:NanumGothic;-inkscape-font-specification:NanumGothic"
             id="path24086" />
          <path
             d="m -1767.9396,10936.99 c -0.2366,-0.08 -0.5522,-0.119 -0.9466,-0.119 -0.973,0 -1.6962,0.48 -2.1695,1.44 -0.3682,0.75 -0.5522,1.709 -0.5522,2.88 l 0,4.989 c 0,0.184 -0.092,0.276 -0.2761,0.276 l -0.7692,0 c -0.1841,0 -0.2761,-0.09 -0.2761,-0.276 l 0,-8.007 c 0,-0.473 -0.01,-0.855 -0.02,-1.144 0,-0.302 -0.01,-0.624 -0.02,-0.966 0,-0.184 0.092,-0.276 0.2761,-0.276 l 0.7298,0 c 0.184,0 0.2761,0.09 0.2761,0.276 l 0,1.933 c 0.6442,-1.657 1.5909,-2.485 2.84,-2.485 0.3024,0 0.6048,0.04 0.9072,0.118 0.079,0.03 0.1447,0.07 0.1973,0.138 0.066,0.05 0.099,0.131 0.099,0.237 l 0,0.828 c 0,0.08 -0.033,0.131 -0.099,0.158 -0.066,0.03 -0.1315,0.03 -0.1973,0"
             style="font-size:19.72236443px;fill:#ffffff;font-family:NanumGothic;-inkscape-font-specification:NanumGothic"
             id="path24088" />
          <path
             d="m -1757.9742,10941.131 c 0,-0.618 -0.085,-1.196 -0.2564,-1.735 -0.1578,-0.539 -0.3813,-1.019 -0.6706,-1.44 -0.6837,-0.841 -1.5712,-1.262 -2.6625,-1.262 -0.5522,0 -1.0519,0.112 -1.4989,0.335 -0.4339,0.211 -0.8218,0.52 -1.1636,0.927 -0.3024,0.421 -0.5391,0.901 -0.71,1.44 -0.1578,0.539 -0.2367,1.117 -0.2367,1.735 0,0.632 0.079,1.217 0.2367,1.756 0.1709,0.539 0.4076,1.012 0.71,1.42 0.6968,0.854 1.5843,1.282 2.6625,1.282 0.5522,0 1.0453,-0.112 1.4792,-0.336 0.447,-0.223 0.8415,-0.539 1.1833,-0.946 0.2893,-0.408 0.5128,-0.881 0.6706,-1.42 0.1709,-0.539 0.2564,-1.124 0.2564,-1.756 m 1.4594,0 c 0,0.776 -0.1117,1.499 -0.3353,2.17 -0.2235,0.657 -0.5193,1.236 -0.8875,1.735 -0.4602,0.553 -1.0124,0.98 -1.6566,1.282 -0.6312,0.303 -1.3543,0.454 -2.1695,0.454 -0.8152,0 -1.5449,-0.151 -2.1892,-0.454 -0.6443,-0.302 -1.1965,-0.729 -1.6567,-1.282 -0.3681,-0.499 -0.664,-1.078 -0.8875,-1.735 -0.2103,-0.671 -0.3155,-1.394 -0.3155,-2.17 0,-1.591 0.401,-2.892 1.203,-3.905 0.9204,-1.143 2.2024,-1.715 3.8459,-1.715 0.8283,0 1.5581,0.144 2.1892,0.433 0.6311,0.277 1.1767,0.704 1.6369,1.282 0.8152,1.039 1.2228,2.341 1.2228,3.905"
             style="font-size:19.72236443px;fill:#ffffff;font-family:NanumGothic;-inkscape-font-specification:NanumGothic"
             id="path24090" />
          <path
             d="m -1753.8233,10938.291 c 0,-0.552 -0.01,-0.986 -0.02,-1.301 -0.013,-0.329 -0.033,-0.638 -0.059,-0.927 0,-0.184 0.092,-0.276 0.2761,-0.276 l 0.7298,0 c 0.184,0 0.2761,0.09 0.2761,0.276 l 0,1.065 c 0.3024,-0.487 0.71,-0.868 1.2228,-1.144 0.5127,-0.289 1.1439,-0.434 1.8933,-0.434 0.7889,0 1.4792,0.197 2.0709,0.592 0.5916,0.381 0.9532,0.946 1.0847,1.696 0.2761,-0.75 0.7166,-1.315 1.3214,-1.696 0.6179,-0.395 1.328,-0.592 2.13,-0.592 0.5128,0 0.973,0.09 1.3806,0.276 0.4207,0.184 0.7757,0.441 1.065,0.769 0.3024,0.316 0.5325,0.691 0.6903,1.124 0.1577,0.434 0.2366,0.895 0.2366,1.381 l 0,7.08 c 0,0.184 -0.092,0.276 -0.2761,0.276 l -0.7494,0 c -0.1841,0 -0.2762,-0.09 -0.2761,-0.256 l 0,-6.824 c -10e-5,-1.801 -0.7561,-2.702 -2.2681,-2.702 -0.4602,0 -0.8744,0.105 -1.2425,0.316 -0.355,0.197 -0.664,0.473 -0.927,0.828 -0.2498,0.355 -0.4405,0.769 -0.5719,1.243 -0.1184,0.473 -0.171,0.973 -0.1578,1.498 l 0,5.621 c 0,0.184 -0.092,0.276 -0.2761,0.276 l -0.7889,0 c -0.1841,0 -0.2761,-0.09 -0.2761,-0.276 l 0,-6.804 c 0,-1.801 -0.7626,-2.702 -2.2878,-2.702 -0.8941,0 -1.5975,0.289 -2.1103,0.868 -0.5128,0.578 -0.7692,1.341 -0.7692,2.288 l 0,6.35 c 0,0.184 -0.092,0.276 -0.2761,0.276 l -0.7692,0 c -0.184,0 -0.2761,-0.09 -0.2761,-0.276 l 0,-7.889"
             style="font-size:19.72236443px;fill:#ffffff;font-family:NanumGothic;-inkscape-font-specification:NanumGothic"
             id="path24092" />
          <path
             d="m -1725.4527,10946.476 c -0.5522,0.197 -1.0978,0.296 -1.6369,0.296 -1.065,0 -1.7684,-0.348 -2.1103,-1.045 -0.2235,-0.474 -0.3353,-1.309 -0.3353,-2.505 l 0,-6.291 -1.8539,0 c -0.1841,0 -0.2761,-0.09 -0.2761,-0.277 l 0,-0.591 c 0,-0.184 0.092,-0.276 0.2761,-0.276 l 1.8539,0 0,-2.663 c 0,-0.197 0.086,-0.296 0.2564,-0.296 l 0.8283,0 c 0.171,0 0.2564,0.1 0.2564,0.296 l 0,2.663 2.1892,0 c 0.1841,0 0.2761,0.09 0.2761,0.276 l 0,0.591 c 0,0.185 -0.092,0.277 -0.2761,0.277 l -2.1892,0 0,6.962 c 0,1.17 0.4734,1.755 1.4201,1.755 0.3681,0 0.7823,-0.08 1.2425,-0.237 0.066,-0.03 0.1249,-0.03 0.1775,0 0.066,0.03 0.099,0.08 0.099,0.158 l 0.039,0.513 c 0.026,0.184 -0.053,0.315 -0.2367,0.394"
             style="font-size:19.72236443px;fill:#ffffff;font-family:NanumGothic;-inkscape-font-specification:NanumGothic"
             id="path24094" />
          <path
             d="m -1714.8168,10946.18 c 0,0.184 -0.092,0.276 -0.2761,0.276 l -0.7889,0 c -0.184,0 -0.2761,-0.09 -0.2761,-0.276 l 0,-6.074 c 0,-0.631 -0.059,-1.164 -0.1775,-1.598 -0.1052,-0.447 -0.2629,-0.802 -0.4733,-1.065 -0.2104,-0.276 -0.4668,-0.473 -0.7692,-0.591 -0.3024,-0.119 -0.6377,-0.178 -1.0058,-0.178 -1.0782,0 -1.9065,0.257 -2.485,0.769 -0.5654,0.513 -0.8481,1.223 -0.8481,2.13 l 0,6.607 c 0,0.184 -0.092,0.276 -0.2761,0.276 l -0.7889,0 c -0.1841,0 -0.2761,-0.09 -0.2761,-0.276 l 0,-15.146 c 0,-0.184 0.092,-0.277 0.2761,-0.277 l 0.7889,0 c 0.1841,0 0.2761,0.09 0.2761,0.277 l 0,5.719 c 0.3681,-0.421 0.8218,-0.723 1.3608,-0.907 0.5523,-0.197 1.236,-0.296 2.0512,-0.296 1.2753,0 2.2089,0.375 2.8005,1.124 0.5917,0.75 0.8875,1.887 0.8875,3.412 l 0,6.094"
             style="font-size:19.72236443px;fill:#ffffff;font-family:NanumGothic;-inkscape-font-specification:NanumGothic"
             id="path24096" />
          <path
             d="m -1704.7294,10940.382 c 0,-0.539 -0.053,-1.019 -0.1578,-1.44 -0.1052,-0.42 -0.2695,-0.802 -0.493,-1.144 -0.4865,-0.775 -1.19,-1.163 -2.1103,-1.163 -0.9467,0 -1.7159,0.394 -2.3075,1.183 -0.2367,0.355 -0.4339,0.763 -0.5917,1.223 -0.1578,0.46 -0.2433,0.907 -0.2564,1.341 l 5.9167,0 m -5.9167,1.124 c -0.013,0.658 0.059,1.243 0.2169,1.755 0.171,0.5 0.4142,0.921 0.7298,1.263 0.3155,0.342 0.6902,0.604 1.1241,0.789 0.4471,0.184 0.9401,0.276 1.4792,0.276 0.5259,0 1.019,-0.05 1.4792,-0.138 0.4602,-0.106 0.8875,-0.27 1.2819,-0.493 0.171,-0.08 0.2564,-0.03 0.2564,0.138 l 0,0.887 c 0,0.118 -0.072,0.21 -0.2169,0.276 -0.4339,0.171 -0.8875,0.296 -1.3608,0.375 -0.4734,0.09 -0.9862,0.138 -1.5384,0.138 -1.6172,0 -2.84,-0.467 -3.6684,-1.4 -0.8283,-0.947 -1.2425,-2.367 -1.2425,-4.26 0,-1.67 0.4142,-3.018 1.2425,-4.043 0.8678,-1.039 1.9657,-1.558 3.2937,-1.558 0.7363,0 1.374,0.131 1.9131,0.394 0.539,0.263 0.9992,0.657 1.3805,1.183 0.6706,0.934 1.0058,2.183 1.0059,3.748 -10e-5,0.171 -0.01,0.302 -0.02,0.394 0,0.09 -0.02,0.158 -0.059,0.197 -0.04,0.04 -0.1118,0.07 -0.217,0.08 -0.092,0 -0.2301,0 -0.4141,0 l -6.6662,0"
             style="font-size:19.72236443px;fill:#ffffff;font-family:NanumGothic;-inkscape-font-specification:NanumGothic"
             id="path24098" />
          <path
             d="m -1687.685,10940.974 c 0,-0.539 -0.053,-1.059 -0.1577,-1.558 -0.1052,-0.513 -0.2827,-0.967 -0.5325,-1.361 -0.2499,-0.395 -0.572,-0.71 -0.9664,-0.947 -0.3945,-0.25 -0.8875,-0.375 -1.4792,-0.375 -0.5391,0 -1.0059,0.112 -1.4003,0.336 -0.3944,0.223 -0.7232,0.532 -0.9861,0.927 -0.2498,0.381 -0.4405,0.828 -0.572,1.341 -0.1314,0.512 -0.1972,1.058 -0.1972,1.637 0,1.525 0.2827,2.682 0.8481,3.471 0.5785,0.776 1.3477,1.163 2.3075,1.163 0.4996,0 0.9401,-0.105 1.3214,-0.315 0.3944,-0.224 0.7231,-0.539 0.9861,-0.947 0.2761,-0.407 0.4799,-0.894 0.6114,-1.459 0.1446,-0.566 0.2169,-1.203 0.2169,-1.913 m -7.6128,-4.911 c 0,-0.184 0.092,-0.276 0.2761,-0.276 l 0.7495,0 c 0.1841,0 0.2761,0.09 0.2761,0.276 l -0.099,1.479 c 0.2629,-0.579 0.7034,-1.045 1.3214,-1.4 0.6311,-0.355 1.3608,-0.533 2.1892,-0.533 0.7757,0 1.4331,0.138 1.9722,0.414 0.5522,0.276 0.9993,0.658 1.3411,1.144 0.355,0.474 0.6114,1.039 0.7692,1.696 0.1709,0.658 0.2564,1.361 0.2564,2.111 0,0.815 -0.099,1.571 -0.2959,2.268 -0.184,0.697 -0.4602,1.301 -0.8283,1.814 -0.355,0.513 -0.802,0.914 -1.3411,1.203 -0.5391,0.303 -1.1636,0.454 -1.8736,0.454 -0.8021,0 -1.4924,-0.158 -2.0709,-0.473 -0.5785,-0.303 -1.019,-0.73 -1.3214,-1.282 l 0,4.24 c 0,0.184 -0.092,0.276 -0.2761,0.276 l -0.7494,0 c -0.079,0 -0.1513,-0.03 -0.217,-0.08 -0.053,-0.05 -0.079,-0.118 -0.079,-0.197 l 0,-13.135"
             style="font-size:19.72236443px;fill:#ffffff;font-family:NanumGothic;-inkscape-font-specification:NanumGothic"
             id="path24100" />
          <path
             d="m -1681.6998,10946.18 c 0,0.184 -0.092,0.276 -0.2761,0.276 l -0.8678,0 c -0.1841,0 -0.2761,-0.09 -0.2761,-0.276 l 0,-15.127 c 0,-0.184 0.092,-0.276 0.2761,-0.276 l 0.8678,0 c 0.184,0 0.2761,0.09 0.2761,0.276 l 0,15.127"
             style="font-size:19.72236443px;fill:#ffffff;font-family:NanumGothic;-inkscape-font-specification:NanumGothic"
             id="path24102" />
          <path
             d="m -1672.2689,10940.895 -0.3747,0 c -0.7363,-0.03 -1.3937,0 -1.9722,0.1 -0.5654,0.08 -1.0387,0.191 -1.42,0.336 -0.5523,0.197 -0.9664,0.493 -1.2425,0.887 -0.2761,0.381 -0.4142,0.842 -0.4142,1.381 0,0.328 0.053,0.637 0.1578,0.927 0.1052,0.276 0.2695,0.493 0.493,0.651 0.3945,0.315 0.9204,0.473 1.5778,0.473 0.4602,0 0.881,-0.09 1.2623,-0.276 0.3944,-0.184 0.7363,-0.447 1.0255,-0.789 0.2893,-0.342 0.5128,-0.763 0.6706,-1.262 0.1578,-0.513 0.2366,-1.098 0.2366,-1.756 l 0,-0.67 m -5.6208,-3.452 c -0.066,0.04 -0.1315,0.05 -0.1973,0.04 -0.053,-0.03 -0.079,-0.07 -0.079,-0.138 l 0,-0.75 c 0,-0.184 0.092,-0.322 0.2761,-0.414 0.4602,-0.25 0.9466,-0.421 1.4594,-0.513 0.526,-0.105 1.0979,-0.157 1.7159,-0.157 1.3148,0 2.2746,0.315 2.8794,0.946 0.6048,0.618 0.9073,1.558 0.9073,2.821 l 0,4.95 c 0,0.394 0.01,0.749 0.02,1.065 0.013,0.302 0.033,0.598 0.059,0.887 -10e-5,0.184 -0.092,0.276 -0.2762,0.276 l -0.71,0 c -0.184,0 -0.2761,-0.09 -0.2761,-0.276 l 0,-1.518 c -0.2761,0.67 -0.7429,1.19 -1.4003,1.558 -0.6442,0.368 -1.3477,0.552 -2.1103,0.552 -1.3279,0 -2.3009,-0.388 -2.9189,-1.164 -0.2103,-0.263 -0.3681,-0.565 -0.4733,-0.907 -0.1052,-0.355 -0.1578,-0.703 -0.1578,-1.045 0,-0.802 0.1841,-1.492 0.5522,-2.071 0.3813,-0.578 0.9599,-1.012 1.7356,-1.302 0.9467,-0.341 2.3996,-0.512 4.3587,-0.512 l 0.2563,0 0,-0.592 c 0,-0.828 -0.1906,-1.46 -0.5719,-1.893 -0.3682,-0.434 -0.9927,-0.651 -1.8736,-0.651 -0.5917,0 -1.1505,0.07 -1.6764,0.197 -0.526,0.118 -1.0256,0.322 -1.4989,0.611"
             style="font-size:19.72236443px;fill:#ffffff;font-family:NanumGothic;-inkscape-font-specification:NanumGothic"
             id="path24104" />
          <path
             d="m -1668.5034,10949.375 c -0.1578,-0.04 -0.2235,-0.138 -0.1972,-0.295 l 0.059,-0.671 c 0,-0.158 0.079,-0.204 0.2367,-0.138 0.2104,0.08 0.4536,0.118 0.7297,0.118 0.2761,0 0.526,-0.05 0.7495,-0.138 0.2366,-0.08 0.4141,-0.19 0.5325,-0.335 0.1446,-0.184 0.3024,-0.487 0.4733,-0.907 0.1841,-0.421 0.3616,-0.901 0.5325,-1.44 -0.5916,-1.604 -1.1767,-3.188 -1.7553,-4.753 -0.5785,-1.565 -1.1636,-3.149 -1.7553,-4.753 -0.026,-0.07 -0.026,-0.125 0,-0.178 0.026,-0.07 0.079,-0.1 0.1578,-0.1 l 0.927,0 c 0.184,0 0.3155,0.09 0.3944,0.276 l 2.6625,7.652 c 0.4865,-1.341 0.9467,-2.616 1.3806,-3.826 0.447,-1.223 0.9138,-2.498 1.4003,-3.826 0.066,-0.184 0.1972,-0.276 0.3944,-0.276 l 0.8481,0 c 0.079,0 0.1315,0.03 0.1578,0.1 0.026,0.05 0.026,0.112 0,0.178 l -4.1023,11.005 c -0.1446,0.381 -0.309,0.723 -0.493,1.025 -0.171,0.303 -0.3485,0.546 -0.5325,0.73 -0.2367,0.224 -0.4997,0.388 -0.7889,0.493 -0.2893,0.119 -0.5917,0.178 -0.9073,0.178 -0.1972,0 -0.3747,-0 -0.5325,-0.02 -0.1577,-0.01 -0.3484,-0.05 -0.5719,-0.1"
             style="font-size:19.72236443px;fill:#ffffff;font-family:NanumGothic;-inkscape-font-specification:NanumGothic"
             id="path24106" />
          <path
             d="m -1657.0084,10946.18 c 0,0.184 -0.092,0.276 -0.2761,0.276 l -0.8677,0 c -0.1841,0 -0.2762,-0.09 -0.2762,-0.276 l 0,-15.127 c 0,-0.184 0.092,-0.276 0.2762,-0.276 l 0.8677,0 c 0.1841,0 0.2761,0.09 0.2761,0.276 l 0,15.127"
             style="font-size:19.72236443px;fill:#ffffff;font-family:NanumGothic;-inkscape-font-specification:NanumGothic"
             id="path24108" />
          <path
             d="m -1652.2516,10946.18 c 0,0.184 -0.092,0.276 -0.2761,0.276 l -0.8678,0 c -0.184,0 -0.2761,-0.09 -0.2761,-0.276 l 0,-10.117 c 0,-0.184 0.092,-0.276 0.2761,-0.276 l 0.8678,0 c 0.1841,0 0.2761,0.09 0.2761,0.276 l 0,10.117 m -1.6764,-14.121 c 0,-0.263 0.092,-0.486 0.2762,-0.67 0.184,-0.198 0.4076,-0.296 0.6705,-0.296 0.263,0 0.4865,0.1 0.6706,0.296 0.1972,0.184 0.2958,0.407 0.2958,0.67 0,0.263 -0.099,0.487 -0.2958,0.671 -0.1841,0.184 -0.4076,0.276 -0.6706,0.276 -0.2629,0 -0.4865,-0.09 -0.6705,-0.276 -0.1841,-0.184 -0.2762,-0.408 -0.2762,-0.671"
             style="font-size:19.72236443px;fill:#ffffff;font-family:NanumGothic;-inkscape-font-specification:NanumGothic"
             id="path24110" />
          <path
             d="m -1649.4079,10945.155 c 0.8021,0.328 1.6304,0.493 2.4851,0.493 0.71,0 1.2951,-0.171 1.7553,-0.513 0.4601,-0.355 0.6902,-0.828 0.6902,-1.42 0,-0.342 -0.1315,-0.671 -0.3944,-0.986 -0.2498,-0.329 -0.5588,-0.598 -0.927,-0.809 -0.4076,-0.223 -0.8283,-0.434 -1.2622,-0.631 -0.4207,-0.21 -0.8283,-0.427 -1.2228,-0.651 -0.4733,-0.263 -0.8217,-0.585 -1.0453,-0.966 -0.2235,-0.394 -0.3352,-0.802 -0.3352,-1.223 0,-0.486 0.092,-0.914 0.2761,-1.282 0.184,-0.368 0.4339,-0.677 0.7494,-0.927 0.3156,-0.25 0.6837,-0.434 1.1045,-0.552 0.4207,-0.118 0.8677,-0.177 1.3411,-0.177 0.4996,0 0.9335,0.03 1.3017,0.08 0.3681,0.05 0.7363,0.132 1.1044,0.237 0.079,0.03 0.1446,0.07 0.1972,0.118 0.066,0.05 0.092,0.125 0.079,0.217 l -0.059,0.592 c -0.013,0.105 -0.053,0.171 -0.1184,0.197 -0.066,0.03 -0.1315,0.03 -0.1972,0 -0.3287,-0.118 -0.6574,-0.197 -0.9861,-0.236 -0.3287,-0.05 -0.7232,-0.08 -1.1834,-0.08 -1.5252,0 -2.2878,0.605 -2.2877,1.814 -1e-4,0.263 0.099,0.513 0.2958,0.75 0.2104,0.236 0.5588,0.473 1.0453,0.71 0.4207,0.21 0.8349,0.414 1.2425,0.611 0.4076,0.184 0.848,0.408 1.3214,0.671 0.4076,0.223 0.7428,0.565 1.0058,1.025 0.2761,0.46 0.4142,0.96 0.4142,1.499 0,0.526 -0.1052,0.98 -0.3156,1.361 -0.2103,0.381 -0.493,0.697 -0.848,0.947 -0.355,0.249 -0.7626,0.433 -1.2228,0.552 -0.4602,0.131 -0.9335,0.197 -1.42,0.197 -0.2893,0 -0.5523,-0 -0.7889,-0.02 -0.2235,-0.01 -0.4405,-0.03 -0.6509,-0.06 -0.1972,-0.03 -0.401,-0.06 -0.6114,-0.1 -0.2103,-0.04 -0.4338,-0.09 -0.6705,-0.158 -0.1841,-0.07 -0.2696,-0.184 -0.2564,-0.355 l 0.079,-0.73 c 0.026,-0.21 0.1315,-0.276 0.3155,-0.197"
             style="font-size:19.72236443px;fill:#ffffff;font-family:NanumGothic;-inkscape-font-specification:NanumGothic"
             id="path24112" />
          <path
             d="m -1635.5464,10946.476 c -0.5523,0.197 -1.0979,0.296 -1.637,0.296 -1.065,0 -1.7684,-0.348 -2.1103,-1.045 -0.2235,-0.474 -0.3353,-1.309 -0.3353,-2.505 l 0,-6.291 -1.8539,0 c -0.184,0 -0.2761,-0.09 -0.2761,-0.277 l 0,-0.591 c 0,-0.184 0.092,-0.276 0.2761,-0.276 l 1.8539,0 0,-2.663 c 0,-0.197 0.085,-0.296 0.2564,-0.296 l 0.8284,0 c 0.1709,0 0.2564,0.1 0.2564,0.296 l 0,2.663 2.1891,0 c 0.1841,0 0.2761,0.09 0.2762,0.276 l 0,0.591 c -10e-5,0.185 -0.092,0.277 -0.2762,0.277 l -2.1891,0 0,6.962 c 0,1.17 0.4733,1.755 1.42,1.755 0.3681,0 0.7823,-0.08 1.2425,-0.237 0.066,-0.03 0.1249,-0.03 0.1775,0 0.066,0.03 0.099,0.08 0.099,0.158 l 0.039,0.513 c 0.026,0.184 -0.053,0.315 -0.2366,0.394"
             style="font-size:19.72236443px;fill:#ffffff;font-family:NanumGothic;-inkscape-font-specification:NanumGothic"
             id="path24114" />
        </g>
      </g>
    </g>
    <g
       id="g20402-5-2-5-1-0"
       transform="matrix(1.4025064,0.21811054,-0.21811054,1.4025064,4685.1782,-16130.874)">
      <path
         sodipodi:nodetypes="ssssssssss"
         inkscape:connector-curvature="0"
         id="path20364-1-21-6-3-1-2"
         d="m -1789.4708,11678.742 c 4.2218,34.786 25.7817,63.645 24.6721,114.576 -0.7235,33.219 -11.0157,68.728 11.9039,98.375 7.1592,9.26 21.4107,13.722 33.5034,13.928 23.1237,0.397 38.7063,-15.327 45.173,-33.126 13.1625,-36.231 1.938,-66.87 4.9662,-105.298 2.1152,-26.843 10.4289,-50.238 10.0301,-77.161 -0.5928,-40.025 -14.5643,-85.679 -49.6784,-105.842 -16.8481,-9.673 -43.3707,-6.792 -57.9718,6.024 -24.0408,21.102 -26.4522,56.769 -22.5985,88.524 z"
         style="fill:#8c4638;fill-opacity:1;stroke:none" />
      <path
         sodipodi:nodetypes="ssssssssss"
         inkscape:connector-curvature="0"
         id="path20364-1-2-8-1-8-5-87"
         d="m -1780.6064,11684.84 c 3.6495,30.071 24.0638,57.505 23.1047,101.533 -0.6255,28.716 -10.376,74.394 9.4372,100.023 6.189,8.004 18.5089,11.861 28.9626,12.04 19.9897,0.342 33.4604,-13.25 39.0507,-28.637 11.3785,-31.321 0.9618,-72.661 3.5797,-105.881 1.8285,-23.205 8.8056,-46.041 8.4608,-69.315 -0.5124,-34.6 -12.9261,-85.978 -43.2811,-103.408 -14.5646,-8.362 -37.4926,-5.872 -50.1148,5.207 -20.7825,18.242 -22.5313,60.987 -19.1998,88.438 z"
         style="fill:#bc6757;fill-opacity:1;stroke:none" />
      <g
         transform="matrix(3.3564147,-0.26971544,0.26971544,3.3564147,2688.7376,-28298.221)"
         id="g21182-8-1-4"
         style="fill:#d67e6e;fill-opacity:1;stroke:none">
        <path
           sodipodi:nodetypes="cccccccccccccccccccccccccccccccccccccccccccccccccccccccccccccccccc"
           inkscape:connector-curvature="0"
           id="path20913-0-5-0"
           d="m -2268.6891,11766.637 c 0,0 -0.8788,3.954 -1.1799,8.572 l 6.4816,1.27 c 2.1247,-3.922 5.3314,-7.467 5.3314,-7.467 0,0 2.29,3.396 3.7935,7.183 l 5.8389,-1.135 c 0.4544,-4.284 0.5228,-7.945 0.5228,-7.945 -6.6661,1.156 -13.6744,0.603 -20.7883,-0.478 z m 10.3793,4.57 c 0,0 -2.2174,2.578 -3.8231,5.511 -0.1094,0.199 -0.2112,0.406 -0.314,0.612 -0.1022,0.202 -0.204,0.409 -0.2982,0.612 -0.4172,0.899 -0.7378,1.795 -0.8965,2.643 -0.068,0.37 -0.1056,0.719 -0.1042,1.061 0,0.114 0,0.232 0.014,0.343 0.043,0.539 0.1801,1.037 0.463,1.464 0.2672,0.404 0.6548,0.725 1.1049,0.985 0.085,0.05 0.1644,0.106 0.2543,0.15 0.043,0.02 0.089,0.04 0.1343,0.06 0.096,0.04 0.1978,0.08 0.2986,0.12 0.2428,0.09 0.4975,0.165 0.7618,0.224 0.8492,0.191 1.782,0.215 2.658,0.08 0.1993,-0.03 0.3909,-0.07 0.5826,-0.12 0.038,0 0.08,-0.02 0.1194,-0.03 0.034,-0.01 0.058,-0.02 0.089,-0.03 0.2394,-0.07 0.4674,-0.156 0.6872,-0.254 0,0 0.01,0 0.014,0 0.5749,-0.256 1.0681,-0.601 1.4189,-1.045 0.3302,-0.418 0.5333,-0.926 0.627,-1.493 0.024,-0.142 0.033,-0.284 0.043,-0.434 0,-0.09 0.014,-0.18 0.014,-0.268 0,-0.06 0,-0.131 0,-0.194 0,-0.182 -0.014,-0.363 -0.029,-0.553 -0.076,-0.902 -0.3068,-1.883 -0.6275,-2.852 0,0 -0.014,0 -0.014,0 -0.1482,-0.448 -0.3164,-0.892 -0.4927,-1.329 -1.136,-2.812 -2.6882,-5.258 -2.6882,-5.257 z m 9.6472,5.779 -5.0776,0.628 c 0.3484,1.063 0.6003,2.132 0.702,3.136 l 3.7185,0.254 c 0.2662,-1.299 0.4808,-2.664 0.6571,-4.018 z m -21.2957,0.04 c -0.034,1.337 -0.019,2.689 0.1041,3.988 l 4.7942,-0.329 c 0.1941,-0.942 0.5463,-1.927 1.0007,-2.912 z m 4.7339,5.168 -4.3908,0.597 c 0.345,1.946 0.9715,3.675 2.0014,4.868 0.082,0.09 0.1696,0.177 0.2537,0.269 l 3.6741,-2.479 c -0.3556,-0.273 -0.6586,-0.582 -0.8961,-0.941 -0.4458,-0.673 -0.6375,-1.459 -0.6423,-2.314 z m 12.2011,0.104 c -0.084,0.91 -0.3436,1.728 -0.866,2.389 -0.303,0.384 -0.6929,0.709 -1.135,0.986 l 3.0318,2.046 c 0.088,-0.1 0.1806,-0.194 0.2685,-0.299 0.8359,-0.993 1.4887,-2.68 2.0014,-4.659 z m -9.274,3.913 -3.7782,2.956 c 3.632,3.004 8.5901,3.573 12.8581,-0.208 l -3.3452,-2.599 c -1.8169,0.564 -4.0105,0.523 -5.7347,-0.149 z"
           style="fill:#d67e6e;fill-opacity:1;stroke:none" />
        <path
           inkscape:connector-curvature="0"
           id="path21016-8-9-9"
           d="m -2247.8044,11711.465 c -0.7649,0.466 -1.5175,0.973 -2.2628,1.527 0.3898,1.322 0.717,2.851 0.989,4.483 1.1769,-0.411 2.3621,-0.687 3.5521,-0.93 -0.6163,-1.729 -1.3684,-3.464 -2.2783,-5.08 z m -22.5879,2.921 c -0.8244,2.839 -1.1659,5.778 -1.319,8.185 1.3891,0.166 2.7786,0.385 4.1672,0.779 -0.1368,-2.832 -0.048,-5.474 0.2397,-7.51 -0.9923,-0.514 -2.0279,-0.994 -3.0879,-1.454 z m 25.3761,3.823 c -1.2759,0.195 -2.5554,0.461 -3.8074,0.959 0.2216,1.688 0.3659,3.465 0.4197,5.261 1.5933,-0.453 3.1881,-0.675 4.7814,-0.854 -0.3127,-1.576 -0.7606,-3.435 -1.364,-5.366 -0.01,0 -0.02,0 -0.029,0 z m -26.7846,6.1 c -0.048,1.364 -0.044,2.446 -0.06,3.012 -0.029,0.828 0.034,1.803 0.1496,2.849 1.5785,-0.316 3.1627,-0.592 4.8266,-0.644 -0.2489,-1.449 -0.4201,-2.919 -0.5396,-4.362 -1.459,-0.54 -2.9176,-0.747 -4.3767,-0.855 z m 28.493,1.035 c -1.6835,0.09 -3.3674,0.244 -5.051,0.839 -0.01,1.495 -0.099,2.994 -0.2547,4.437 1.9799,0.11 3.863,0.515 5.7556,0.898 0.01,-1.154 -0.015,-2.352 -0.105,-3.596 -0.029,-0.425 -0.1449,-1.353 -0.3449,-2.578 z m -23.8316,5.86 c -1.5113,0.05 -2.9219,0.384 -4.332,0.749 0.3107,1.918 0.7961,3.975 1.3492,5.951 1.602,-0.69 3.2284,-1.348 4.9911,-1.754 -0.5939,-1.526 -1.0528,-3.2 -1.4241,-4.946 -0.1956,0 -0.3914,0 -0.5842,0 z m 18.3158,1.079 c -0.291,1.846 -0.7387,3.576 -1.3487,5.096 2.1852,0.588 4.1724,1.53 6.2051,2.383 0.5702,-1.954 0.9117,-4.059 1.0493,-6.34 -1.9338,-0.495 -3.8332,-1.074 -5.9057,-1.139 z m -15.6029,5.456 c -1.9109,0.32 -3.5681,1.093 -5.2012,1.903 0.775,2.468 1.6514,4.631 2.4433,5.905 2.8595,4.605 5.6308,0.07 6.415,-3.236 -1.4877,-0.966 -2.6917,-2.582 -3.6571,-4.572 z m 13.5199,1.199 c -0.8241,1.509 -1.8686,2.719 -3.1781,3.478 0.9685,3.419 3.8227,8.409 6.8051,4.212 1.1118,-1.565 2.0082,-3.244 2.6979,-5.052 -2.058,-0.971 -4.0098,-2.123 -6.3249,-2.638 z"
           style="fill:#d67e6e;fill-opacity:1;stroke:none" />
        <path
           inkscape:connector-curvature="0"
           id="path21018-5-9-3"
           d="m -2259.1956,11704.494 c -0.2203,0 -0.4476,0.03 -0.6743,0.04 -7.5381,0.589 -9.4729,8.275 -9.4729,8.275 0,0 0,0 0,0 3.9579,1.612 7.4607,3.606 10.0723,6.34 3.3737,-3.617 6.7868,-7.069 10.5371,-8.994 l 0.015,-0.119 c 0,0 -3.6457,-5.72 -10.4772,-5.561 z"
           style="fill:#d67e6e;fill-opacity:1;stroke:none" />
        <path
           inkscape:connector-curvature="0"
           id="path21020-6-3-1"
           d="m -2252.6156,11715.061 c -2.2604,1.981 -4.4586,4.272 -6.64,6.611 -1.5526,-1.626 -3.3651,-3.036 -5.3657,-4.287 -1.2441,5.62 0.1007,21.652 7.3893,21.089 7.7393,-0.599 7.0669,-17.047 4.6164,-23.413 z"
           style="fill:#d67e6e;fill-opacity:1;stroke:none" />
      </g>
    </g>
    <path
       style="fill:#ba6352;fill-opacity:1;stroke:none"
       d="m -463.70145,-144.50265 28.67056,3.0173 -22.61324,9.68553 c 1.45012,-4.23428 1.70377,-8.46855 -6.05732,-12.70283 z"
       id="path23096"
       inkscape:connector-curvature="0"
       sodipodi:nodetypes="cccc" />
    <path
       style="fill:#ba6352;fill-opacity:1;stroke:none"
       d="m -400.01313,-158.86298 -25.64562,15.56524 27.33833,-1.26928 c -4.2041,-2.58079 -4.14295,-7.72227 -1.69271,-14.29596 z"
       id="path23096-4"
       inkscape:connector-curvature="0"
       sodipodi:nodetypes="cccc" />
    <path
       style="fill:#ba6352;fill-opacity:1;stroke:none"
       d="m -441.0164,-110.68678 c 6.19391,-13.45313 28.5183,-14.91149 37.05122,-10.45192 -7.66998,0.51294 -28.91538,4.82164 -37.05122,10.45192 z"
       id="path23116"
       inkscape:connector-curvature="0"
       sodipodi:nodetypes="ccc" />
  </g>
</svg>
