<?xml version="1.0" encoding="UTF-8" standalone="no"?>
<!-- Created with Inkscape (http://www.inkscape.org/) -->

<svg
   xmlns:dc="http://purl.org/dc/elements/1.1/"
   xmlns:cc="http://creativecommons.org/ns#"
   xmlns:rdf="http://www.w3.org/1999/02/22-rdf-syntax-ns#"
   xmlns:svg="http://www.w3.org/2000/svg"
   xmlns="http://www.w3.org/2000/svg"
   xmlns:xlink="http://www.w3.org/1999/xlink"
   xmlns:sodipodi="http://sodipodi.sourceforge.net/DTD/sodipodi-0.dtd"
   xmlns:inkscape="http://www.inkscape.org/namespaces/inkscape"
   width="610.62073"
   height="496.86899"
   id="svg20991"
   version="1.1"
   inkscape:version="0.48.4 r9939"
   sodipodi:docname="New document 18">
  <defs
     id="defs20993">
    <clipPath
       clipPathUnits="userSpaceOnUse"
       id="clipPath3786-8-7-09-3-58-9-3-5-2-1-44-3-2-9">
      <path
         id="path3788-6-7-4-3-3-5-6-2-5-2-24-0-7-7"
         d="m 437.82312,11466.551 c -9.02138,0 -12.48175,7.253 -12.48175,16.277 l 0,6.153 c 0,2.617 1.22716,5.841 5.96969,6.148 4.03516,0.231 10.92927,0.347 18.27026,0.347 3.66007,-4.526 17.50849,-9.047 24.28509,-9.047 l 2.53247,0 c -0.31836,-1.748 -5.01284,-19.617 -5.8487,-19.895 l -32.72706,0 z"
         style="color:#000000;fill:#698eab;fill-opacity:1;fill-rule:nonzero;stroke:none;stroke-width:0.24476303;marker:none;visibility:visible;display:inline;overflow:visible;enable-background:accumulate"
         inkscape:connector-curvature="0"
         sodipodi:nodetypes="cssccscccc" />
    </clipPath>
    <linearGradient
       inkscape:collect="always"
       xlink:href="#linearGradient5187-7-9-1-3-8-4-4-4-93-1-1-2-5-7-7-9"
       id="linearGradient18561-6-9-8-5"
       gradientUnits="userSpaceOnUse"
       x1="1766.3528"
       y1="11764.019"
       x2="1789.3842"
       y2="11764.019" />
    <linearGradient
       id="linearGradient5187-7-9-1-3-8-4-4-4-93-1-1-2-5-7-7-9">
      <stop
         style="stop-color:#8d8d8d;stop-opacity:1;"
         offset="0"
         id="stop5189-2-3-3-1-3-5-8-0-76-5-2-7-0-5-9-5" />
      <stop
         style="stop-color:#aaaaaa;stop-opacity:1;"
         offset="1"
         id="stop5191-2-19-5-9-5-6-3-3-3-9-3-1-0-6-7-2" />
    </linearGradient>
    <clipPath
       clipPathUnits="userSpaceOnUse"
       id="clipPath3808-2-8-1-1-9-4-9-7-9-9-0-8-9-2">
      <path
         sodipodi:nodetypes="cssccscccc"
         inkscape:connector-curvature="0"
         style="color:#000000;fill:#698eab;fill-opacity:1;fill-rule:nonzero;stroke:none;stroke-width:0.24476303;marker:none;visibility:visible;display:inline;overflow:visible;enable-background:accumulate"
         d="m 437.82312,11466.551 c -9.02138,0 -12.48175,7.253 -12.48175,16.277 l 0,6.153 c 0,2.616 1.22716,5.841 5.96969,6.147 4.03516,0.232 10.92927,0.348 18.27026,0.348 3.66007,-4.527 17.50849,-9.048 24.28509,-9.048 l 2.53247,0 c -0.31836,-1.748 -5.01284,-19.617 -5.8487,-19.895 l -32.72706,0 z"
         id="path3810-7-6-2-2-76-1-10-5-0-9-95-4-1-0" />
    </clipPath>
    <clipPath
       clipPathUnits="userSpaceOnUse"
       id="clipPath3737-7-5-0-1-4-2-5-6-7-6-15-5-6-2">
      <path
         sodipodi:nodetypes="sssscssssss"
         inkscape:connector-curvature="0"
         id="path3739-4-0-1-9-5-2-8-5-3-2-6-8-8-6"
         d="m 461.72791,11483.1 c -14.83015,0.06 -20.73616,14.79 -20.73616,29.62 l 0,10.008 c 0,4.307 2.13885,9.54 9.93539,10.043 17.54323,1.129 66.22282,0.678 82.1661,-0.521 9.2373,0.521 10.67864,-6.28 10.67864,-10.077 l 0,-9.447 c 0,-14.836 -5.90659,-29.626 -20.73617,-29.626 l -3.60682,0 c -19.21147,0 -37.96391,0 -54.09474,0 z"
         style="color:#000000;fill:#93afc3;fill-opacity:1;fill-rule:nonzero;stroke:none;stroke-width:0.24476303;marker:none;visibility:visible;display:inline;overflow:visible;enable-background:accumulate" />
    </clipPath>
    <linearGradient
       inkscape:collect="always"
       xlink:href="#linearGradient5026-2-81-6-4-4-1-8-1-8-9-7-5"
       id="linearGradient18565-2-7-1-5"
       gradientUnits="userSpaceOnUse"
       x1="1010.2803"
       y1="11109.737"
       x2="1007.9489"
       y2="11067.737" />
    <linearGradient
       id="linearGradient5026-2-81-6-4-4-1-8-1-8-9-7-5">
      <stop
         style="stop-color:#a8a8a8;stop-opacity:1;"
         offset="0"
         id="stop5028-4-8-4-8-4-71-0-5-2-5-8-8" />
      <stop
         style="stop-color:#bcbcbc;stop-opacity:1;"
         offset="1"
         id="stop5030-5-2-5-6-2-3-0-9-1-6-7-3" />
    </linearGradient>
    <linearGradient
       inkscape:collect="always"
       xlink:href="#linearGradient5026-2-81-6-4-4-1-8-1-8-9-7-5"
       id="linearGradient18563-3-9-9-9"
       gradientUnits="userSpaceOnUse"
       x1="1010.2803"
       y1="11109.737"
       x2="1007.9489"
       y2="11067.737" />
    <linearGradient
       id="linearGradient20898">
      <stop
         style="stop-color:#a8a8a8;stop-opacity:1;"
         offset="0"
         id="stop20900" />
      <stop
         style="stop-color:#bcbcbc;stop-opacity:1;"
         offset="1"
         id="stop20902" />
    </linearGradient>
    <linearGradient
       inkscape:collect="always"
       xlink:href="#linearGradient5034-1-01-3-6-2-4-6-9-2-8-2-6"
       id="linearGradient18575-4-9-4-4"
       gradientUnits="userSpaceOnUse"
       x1="1197.5093"
       y1="11091.737"
       x2="1342.941"
       y2="11091.737" />
    <linearGradient
       id="linearGradient5034-1-01-3-6-2-4-6-9-2-8-2-6">
      <stop
         style="stop-color:#f4f4f4;stop-opacity:1;"
         offset="0"
         id="stop5036-7-2-8-35-7-2-4-5-4-7-0-7" />
      <stop
         style="stop-color:#ffffff;stop-opacity:1;"
         offset="1"
         id="stop5038-1-5-7-6-7-4-9-9-1-8-1-7" />
    </linearGradient>
    <linearGradient
       inkscape:collect="always"
       xlink:href="#linearGradient5034-1-01-3-6-2-4-6-9-2-8-2-6"
       id="linearGradient18567-7-0-6-8"
       gradientUnits="userSpaceOnUse"
       x1="1197.5093"
       y1="11091.737"
       x2="1342.941"
       y2="11091.737" />
    <linearGradient
       id="linearGradient20909">
      <stop
         style="stop-color:#f4f4f4;stop-opacity:1;"
         offset="0"
         id="stop20911" />
      <stop
         style="stop-color:#ffffff;stop-opacity:1;"
         offset="1"
         id="stop20913" />
    </linearGradient>
    <linearGradient
       inkscape:collect="always"
       xlink:href="#linearGradient5034-1-01-3-6-2-4-6-9-2-8-2-6"
       id="linearGradient18569-7-0-0-7"
       gradientUnits="userSpaceOnUse"
       x1="1197.5093"
       y1="11091.737"
       x2="1342.941"
       y2="11091.737" />
    <linearGradient
       id="linearGradient20916">
      <stop
         style="stop-color:#f4f4f4;stop-opacity:1;"
         offset="0"
         id="stop20918" />
      <stop
         style="stop-color:#ffffff;stop-opacity:1;"
         offset="1"
         id="stop20920" />
    </linearGradient>
    <linearGradient
       inkscape:collect="always"
       xlink:href="#linearGradient5034-1-01-3-6-2-4-6-9-2-8-2-6"
       id="linearGradient18571-9-8-5-2"
       gradientUnits="userSpaceOnUse"
       x1="1197.5093"
       y1="11091.737"
       x2="1342.941"
       y2="11091.737" />
    <linearGradient
       id="linearGradient20923">
      <stop
         style="stop-color:#f4f4f4;stop-opacity:1;"
         offset="0"
         id="stop20925" />
      <stop
         style="stop-color:#ffffff;stop-opacity:1;"
         offset="1"
         id="stop20927" />
    </linearGradient>
    <linearGradient
       inkscape:collect="always"
       xlink:href="#linearGradient5034-1-01-3-6-2-4-6-9-2-8-2-6"
       id="linearGradient18573-9-2-3-0"
       gradientUnits="userSpaceOnUse"
       x1="1197.5093"
       y1="11091.737"
       x2="1342.941"
       y2="11091.737" />
    <linearGradient
       id="linearGradient20930">
      <stop
         style="stop-color:#f4f4f4;stop-opacity:1;"
         offset="0"
         id="stop20932" />
      <stop
         style="stop-color:#ffffff;stop-opacity:1;"
         offset="1"
         id="stop20934" />
    </linearGradient>
  </defs>
  <sodipodi:namedview
     id="base"
     pagecolor="#ffffff"
     bordercolor="#666666"
     borderopacity="1.0"
     inkscape:pageopacity="0.0"
     inkscape:pageshadow="2"
     inkscape:zoom="0.35"
     inkscape:cx="305.31032"
     inkscape:cy="248.43458"
     inkscape:document-units="px"
     inkscape:current-layer="layer1"
     showgrid="false"
     fit-margin-top="0"
     fit-margin-left="0"
     fit-margin-right="0"
     fit-margin-bottom="0"
     inkscape:window-width="472"
     inkscape:window-height="383"
     inkscape:window-x="312"
     inkscape:window-y="24"
     inkscape:window-maximized="0" />
  <metadata
     id="metadata20996">
    <rdf:RDF>
      <cc:Work
         rdf:about="">
        <dc:format>image/svg+xml</dc:format>
        <dc:type
           rdf:resource="http://purl.org/dc/dcmitype/StillImage" />
        <dc:title></dc:title>
      </cc:Work>
    </rdf:RDF>
  </metadata>
  <g
     inkscape:label="Layer 1"
     inkscape:groupmode="layer"
     id="layer1"
     transform="translate(-69.689684,-283.92776)">
    <g
       id="g18332-1-1-8-0"
       transform="matrix(2.4242594,0,0,2.4242594,5029.208,-25038.546)">
      <g
         transform="matrix(1.4182094,0,0,1.4182094,-3418.6299,-5134.1767)"
         id="g4935-5-9-1-1-8-14-9-8-90-1-9-1">
        <g
           id="g5019-2-8-0-4-2-3-0-8-9-6-2-1"
           style="fill:url(#linearGradient18565-2-7-1-5);fill-opacity:1"
           inkscape:export-filename="C:\Users\jonescd\Desktop\CloudList\crowdplay_logo0.png"
           inkscape:export-xdpi="90"
           inkscape:export-ydpi="90"
           transform="matrix(0.49945317,0,0,0.49945317,474.57854,5563.9921)">
          <g
             transform="translate(-44.547727,0)"
             id="text4673-3-8-3-0-3-3-2-7-0-0-3-5"
             style="font-size:60.04922485px;font-style:normal;font-variant:normal;font-weight:normal;font-stretch:normal;line-height:125%;letter-spacing:0px;word-spacing:0px;fill:url(#linearGradient18563-3-9-9-9);fill-opacity:1;stroke:none;font-family:Roboto;-inkscape-font-specification:Roboto">
            <path
               inkscape:connector-curvature="0"
               id="path4931-3-0-2-6-0-2-1-4-3-2-0-7"
               d="m 1066.9461,11098.686 c -0.2933,4.926 -1.9157,8.66 -4.8673,11.201 -2.9517,2.541 -7.1446,3.812 -12.5786,3.812 -5.3365,0 -9.5049,-1.579 -12.5054,-4.736 -3.0005,-3.156 -4.5008,-7.413 -4.5008,-12.769 l 0,-8.913 c 0,-5.278 1.5394,-9.515 4.6181,-12.711 3.0787,-3.196 7.208,-4.794 12.3881,-4.794 5.5122,0 9.6905,1.295 12.5346,3.885 2.8441,2.59 4.5007,6.377 4.9699,11.362 l -9.8811,0 c -0.1369,-2.619 -0.7673,-4.545 -1.8912,-5.776 -1.124,-1.232 -3.0347,-1.848 -5.7322,-1.848 -2.2871,0 -4.0463,0.885 -5.2778,2.654 -1.2315,1.769 -1.8472,4.159 -1.8472,7.169 l 0,8.972 c 0,3.108 0.5717,5.532 1.7152,7.272 1.1435,1.739 2.9468,2.609 5.4098,2.609 2.502,0 4.3541,-0.596 5.5562,-1.788 1.2022,-1.193 1.8717,-3.059 2.0085,-5.601 z"
               style="fill:#a6a6a6;fill-opacity:1" />
            <path
               sodipodi:nodetypes="ccccscsccccccscccssccccscscscc"
               inkscape:connector-curvature="0"
               id="path4933-4-8-5-1-6-1-9-4-5-0-0-1"
               d="m 1081.9877,11096.722 0,16.361 -9.9398,0 0,-42.691 17.4166,0 c 5.0041,0 8.7718,1.07 11.3032,3.21 2.5314,2.141 3.7971,5.264 3.7971,9.368 0,2.463 -0.65,4.447 -1.9498,5.953 -1.3,1.505 -3.2107,2.726 -5.7323,3.665 l 0.029,0.09 c 2.6389,0.742 4.5008,1.969 5.5857,3.679 1.0848,1.711 1.6272,3.905 1.6273,6.583 l 0,2.697 c -10e-5,1.115 0.2126,2.325 0.4838,3.666 0.3432,1.697 0.7446,2.634 1.1821,3.782 l -10.1744,0 c -0.3913,-0.751 -0.7423,-1.71 -1.0062,-3.255 -0.2639,-1.544 -0.3958,-2.961 -0.3958,-4.251 l 0,-2.58 c 0,-2.111 -0.4643,-3.685 -1.3927,-4.721 -0.9286,-1.036 -2.4386,-1.554 -4.5301,-1.554 z m 0,-7.623 6.5386,0 c 2.0328,0 3.5673,-0.445 4.6033,-1.335 1.036,-0.889 1.554,-2.204 1.554,-3.943 0,-1.799 -0.4838,-3.216 -1.4513,-4.252 -0.9677,-1.036 -2.4484,-1.554 -4.4422,-1.554 l -6.8024,0 z"
               style="fill:#a6a6a6;fill-opacity:1" />
          </g>
          <g
             style="font-size:60.04922485px;font-style:normal;font-variant:normal;font-weight:normal;font-stretch:normal;line-height:125%;letter-spacing:0px;word-spacing:0px;fill:#a6a6a6;stroke:none;font-family:Roboto;-inkscape-font-specification:Roboto"
             id="text4673-1-1-7-0-2-5-9-8-6-4-8-6-9">
            <path
               d="m 1136.3194,11097.865 0.088,0 4.8379,-27.473 9.5,0 -8.8842,42.691 -9.2068,0 -6.3333,-25.656 -0.088,0 -6.304,25.656 -9.2067,0 -8.9136,-42.691 9.5293,0 4.838,27.503 0.088,0 6.6559,-27.503 6.7145,0 z"
               style="fill:#a6a6a6"
               id="path14877-5-9-9-3-5"
               inkscape:connector-curvature="0" />
            <path
               d="m 1155.7006,11113.083 0,-42.691 14.1033,0 c 6.0401,0 10.8243,1.696 14.3526,5.087 3.5282,3.391 5.2924,7.922 5.2924,13.59 l 0,5.337 c 0,5.688 -1.7593,10.223 -5.2777,13.604 -3.5186,3.382 -8.2881,5.073 -14.3086,5.073 z m 9.9397,-35.068 0,27.445 3.5772,0 c 3.6162,0 6.2404,-0.963 7.8727,-2.889 1.6321,-1.925 2.4482,-4.647 2.4483,-8.165 l 0,-5.395 c -1e-4,-3.499 -0.8162,-6.207 -2.4483,-8.122 -1.6323,-1.916 -4.2858,-2.874 -7.9607,-2.874 z"
               style="fill:#a6a6a6"
               id="path14879-7-91-4-8-0"
               inkscape:connector-curvature="0" />
          </g>
        </g>
        <g
           style="font-size:60.04922485px;font-style:normal;font-variant:normal;font-weight:normal;font-stretch:normal;line-height:125%;letter-spacing:0px;word-spacing:0px;fill:url(#linearGradient18575-4-9-4-4);fill-opacity:1;stroke:none;font-family:Roboto;-inkscape-font-specification:Roboto"
           id="text4673-1-2-3-83-2-4-9-9-0-2-8-2-5-5"
           transform="matrix(0.49945317,0,0,0.49945317,474.87898,5563.9921)">
          <path
             d="m 1207.4491,11098.452 0,14.631 -9.9398,0 0,-42.691 17.3287,0 c 5.1604,0 9.2018,1.27 12.1242,3.811 2.9223,2.542 4.3834,5.953 4.3835,10.233 -10e-5,4.281 -1.4612,7.687 -4.3835,10.219 -2.9224,2.531 -6.9638,3.797 -12.1242,3.797 z m 0,-7.624 7.3889,0 c 2.1893,0 3.8361,-0.581 4.9406,-1.744 1.1044,-1.163 1.6566,-2.693 1.6566,-4.589 0,-1.935 -0.5474,-3.499 -1.642,-4.691 -1.0946,-1.193 -2.7464,-1.789 -4.9552,-1.789 l -7.3889,0 z"
             id="path14882-6-0-7-1-8"
             inkscape:connector-curvature="0"
             style="fill:url(#linearGradient18567-7-0-6-8)" />
          <path
             d="m 1246.8564,11105.46 18.3842,0 0,7.623 -28.324,0 0,-42.691 9.9398,0 z"
             id="path14884-2-1-6-5-3"
             inkscape:connector-curvature="0"
             style="fill:url(#linearGradient18569-7-0-0-7)" />
          <path
             d="m 1292.0693,11104.785 -13.5756,0 -2.3164,8.298 -9.9398,0 13.7222,-42.691 10.6728,0 13.7809,42.691 -9.9691,0 z m -11.4352,-7.623 9.2947,0 -4.6327,-16.332 -0.088,0 z"
             id="path14886-3-1-8-4-3"
             inkscape:connector-curvature="0"
             style="fill:url(#linearGradient18571-9-8-5-2)" />
          <path
             d="m 1323.5893,11089.245 8.591,-18.853 10.7608,0 -14.5139,27.679 0,15.012 -9.8811,0 0,-15.511 -14.2207,-27.18 10.7021,0 z"
             id="path14888-6-6-5-0-5"
             inkscape:connector-curvature="0"
             style="fill:url(#linearGradient18573-9-2-3-0)" />
        </g>
      </g>
      <g
         style="font-size:15.26815891px;font-style:normal;font-weight:normal;line-height:125%;letter-spacing:0px;word-spacing:0px;fill:#c5c5c5;fill-opacity:1;stroke:none;font-family:Sans"
         id="text17888-2-5-1-7-1-7">
        <path
           d="m -2029.0041,10648.068 c -0.4275,0.153 -0.8499,0.229 -1.2672,0.229 -0.8245,0 -1.3691,-0.269 -1.6337,-0.809 -0.1731,-0.366 -0.2596,-1.013 -0.2596,-1.939 l 0,-4.871 -1.4352,0 c -0.1425,0 -0.2138,-0.07 -0.2138,-0.213 l 0,-0.458 c 0,-0.143 0.071,-0.214 0.2138,-0.214 l 1.4352,0 0,-2.061 c 0,-0.153 0.066,-0.229 0.1985,-0.229 l 0.6412,0 c 0.1324,0 0.1985,0.08 0.1985,0.229 l 0,2.061 1.6948,0 c 0.1425,0 0.2137,0.07 0.2138,0.214 l 0,0.458 c -1e-4,0.142 -0.071,0.214 -0.2138,0.213 l -1.6948,0 0,5.39 c 0,0.906 0.3665,1.359 1.0993,1.359 0.285,0 0.6057,-0.06 0.9619,-0.183 0.051,-0.02 0.097,-0.02 0.1374,0 0.051,0.02 0.076,0.06 0.076,0.122 l 0.031,0.397 c 0.02,0.142 -0.041,0.244 -0.1832,0.305"
           style="font-variant:normal;font-stretch:normal;fill:#c5c5c5;font-family:NanumGothic;-inkscape-font-specification:NanumGothic"
           id="path21191" />
        <path
           d="m -2020.7703,10647.839 c 0,0.143 -0.071,0.214 -0.2137,0.214 l -0.6107,0 c -0.1426,0 -0.2138,-0.07 -0.2138,-0.214 l 0,-4.702 c 0,-0.489 -0.046,-0.901 -0.1374,-1.237 -0.081,-0.346 -0.2036,-0.621 -0.3664,-0.825 -0.1629,-0.213 -0.3614,-0.366 -0.5955,-0.458 -0.2341,-0.09 -0.4937,-0.137 -0.7787,-0.137 -0.8346,0 -1.4759,0.199 -1.9238,0.595 -0.4377,0.397 -0.6565,0.947 -0.6565,1.649 l 0,5.115 c 0,0.143 -0.071,0.214 -0.2138,0.214 l -0.6107,0 c -0.1425,0 -0.2137,-0.07 -0.2137,-0.214 l 0,-11.726 c 0,-0.142 0.071,-0.213 0.2137,-0.213 l 0.6107,0 c 0.1425,0 0.2138,0.07 0.2138,0.213 l 0,4.428 c 0.285,-0.326 0.6362,-0.56 1.0535,-0.702 0.4275,-0.153 0.9568,-0.229 1.5879,-0.229 0.9873,0 1.71,0.29 2.1681,0.87 0.458,0.58 0.687,1.461 0.687,2.641 l 0,4.718"
           style="font-variant:normal;font-stretch:normal;fill:#c5c5c5;font-family:NanumGothic;-inkscape-font-specification:NanumGothic"
           id="path21193" />
        <path
           d="m -2012.9611,10643.35 c 0,-0.417 -0.041,-0.788 -0.1221,-1.114 -0.082,-0.326 -0.2087,-0.621 -0.3817,-0.886 -0.3766,-0.6 -0.9212,-0.901 -1.6337,-0.901 -0.7329,0 -1.3283,0.306 -1.7864,0.917 -0.1832,0.274 -0.3359,0.59 -0.458,0.946 -0.1222,0.356 -0.1883,0.703 -0.1985,1.038 l 4.5804,0 m -4.5804,0.871 c -0.01,0.509 0.046,0.962 0.1679,1.359 0.1324,0.386 0.3207,0.712 0.565,0.977 0.2442,0.264 0.5343,0.468 0.8702,0.61 0.3461,0.143 0.7278,0.214 1.1451,0.214 0.4072,0 0.7889,-0.03 1.1452,-0.107 0.3562,-0.08 0.687,-0.208 0.9924,-0.381 0.1323,-0.06 0.1985,-0.03 0.1985,0.107 l 0,0.687 c 0,0.09 -0.056,0.162 -0.168,0.213 -0.3359,0.133 -0.687,0.229 -1.0535,0.29 -0.3664,0.07 -0.7634,0.107 -1.1909,0.107 -1.252,0 -2.1986,-0.361 -2.8399,-1.084 -0.6412,-0.733 -0.9619,-1.832 -0.9619,-3.298 0,-1.292 0.3207,-2.336 0.9619,-3.13 0.6718,-0.804 1.5218,-1.206 2.5498,-1.206 0.57,0 1.0637,0.102 1.481,0.306 0.4173,0.203 0.7736,0.508 1.0688,0.916 0.5191,0.722 0.7787,1.689 0.7787,2.901 0,0.132 -0.01,0.234 -0.015,0.305 0,0.07 -0.015,0.122 -0.046,0.153 -0.031,0.03 -0.087,0.05 -0.168,0.06 -0.071,0 -0.1781,0 -0.3206,0 l -5.1606,0"
           style="font-variant:normal;font-stretch:normal;fill:#c5c5c5;font-family:NanumGothic;-inkscape-font-specification:NanumGothic"
           id="path21195" />
        <path
           d="m -2005.8886,10647.045 c 0.6209,0.255 1.2622,0.382 1.9238,0.382 0.5497,0 1.0026,-0.132 1.3589,-0.397 0.3562,-0.275 0.5344,-0.641 0.5344,-1.099 0,-0.265 -0.1018,-0.519 -0.3054,-0.764 -0.1934,-0.254 -0.4326,-0.463 -0.7176,-0.626 -0.3155,-0.173 -0.6413,-0.336 -0.9772,-0.488 -0.3257,-0.163 -0.6412,-0.331 -0.9466,-0.504 -0.3664,-0.204 -0.6362,-0.453 -0.8092,-0.748 -0.173,-0.306 -0.2596,-0.621 -0.2596,-0.947 0,-0.376 0.071,-0.707 0.2138,-0.992 0.1425,-0.285 0.3359,-0.524 0.5802,-0.718 0.2443,-0.193 0.5293,-0.336 0.855,-0.427 0.3257,-0.09 0.6718,-0.138 1.0382,-0.138 0.3868,0 0.7227,0.02 1.0077,0.06 0.285,0.04 0.57,0.102 0.855,0.183 0.061,0.02 0.112,0.05 0.1527,0.09 0.051,0.04 0.071,0.1 0.061,0.168 l -0.046,0.458 c -0.01,0.08 -0.041,0.132 -0.092,0.153 -0.051,0.02 -0.1018,0.02 -0.1527,0 -0.2545,-0.09 -0.5089,-0.153 -0.7634,-0.183 -0.2545,-0.04 -0.5598,-0.06 -0.9161,-0.06 -1.1807,0 -1.7711,0.469 -1.7711,1.405 0,0.204 0.076,0.397 0.229,0.58 0.1629,0.184 0.4326,0.367 0.8092,0.55 0.3258,0.163 0.6464,0.321 0.9619,0.473 0.3156,0.143 0.6566,0.316 1.023,0.519 0.3155,0.173 0.5751,0.438 0.7787,0.794 0.2137,0.357 0.3206,0.743 0.3206,1.161 0,0.407 -0.081,0.758 -0.2443,1.053 -0.1628,0.295 -0.3817,0.54 -0.6565,0.733 -0.2748,0.194 -0.5904,0.336 -0.9466,0.428 -0.3563,0.101 -0.7227,0.152 -1.0993,0.152 -0.224,0 -0.4276,-0 -0.6108,-0.02 -0.173,-0.01 -0.341,-0.02 -0.5038,-0.05 -0.1527,-0.02 -0.3105,-0.05 -0.4733,-0.08 -0.1629,-0.03 -0.3359,-0.07 -0.5192,-0.122 -0.1425,-0.05 -0.2086,-0.143 -0.1984,-0.275 l 0.061,-0.565 c 0.02,-0.163 0.1018,-0.214 0.2443,-0.153"
           style="font-variant:normal;font-stretch:normal;fill:#c5c5c5;font-family:NanumGothic;-inkscape-font-specification:NanumGothic"
           id="path21197" />
        <path
           d="m -1998.99,10641.732 c 0,-0.428 -0.01,-0.763 -0.015,-1.008 -0.01,-0.254 -0.025,-0.493 -0.046,-0.717 0,-0.143 0.071,-0.214 0.2138,-0.214 l 0.5649,0 c 0.1425,0 0.2138,0.07 0.2138,0.214 l 0,0.824 c 0.2341,-0.376 0.5496,-0.672 0.9466,-0.885 0.397,-0.224 0.8855,-0.336 1.4657,-0.336 0.6108,0 1.1451,0.152 1.6032,0.458 0.458,0.295 0.7379,0.733 0.8397,1.313 0.2138,-0.58 0.5548,-1.018 1.023,-1.313 0.4784,-0.306 1.0281,-0.458 1.649,-0.458 0.3969,0 0.7532,0.07 1.0687,0.213 0.3257,0.143 0.6006,0.341 0.8245,0.596 0.2341,0.244 0.4122,0.534 0.5344,0.87 0.1221,0.336 0.1832,0.692 0.1832,1.069 l 0,5.481 c 0,0.143 -0.071,0.214 -0.2137,0.214 l -0.5802,0 c -0.1425,0 -0.2138,-0.07 -0.2138,-0.198 l 0,-5.283 c 0,-1.395 -0.5853,-2.092 -1.7558,-2.092 -0.3563,0 -0.6769,0.08 -0.9619,0.244 -0.2748,0.153 -0.514,0.367 -0.7176,0.642 -0.1934,0.274 -0.341,0.595 -0.4428,0.961 -0.092,0.367 -0.1323,0.754 -0.1221,1.161 l 0,4.351 c 0,0.143 -0.071,0.214 -0.2138,0.214 l -0.6107,0 c -0.1425,0 -0.2138,-0.07 -0.2138,-0.214 l 0,-5.267 c 0,-1.395 -0.5903,-2.092 -1.7711,-2.092 -0.6921,0 -1.2367,0.224 -1.6337,0.672 -0.3969,0.448 -0.5954,1.038 -0.5954,1.771 l 0,4.916 c 0,0.143 -0.071,0.214 -0.2138,0.214 l -0.5954,0 c -0.1425,0 -0.2138,-0.07 -0.2138,-0.214 l 0,-6.107"
           style="font-variant:normal;font-stretch:normal;fill:#c5c5c5;font-family:NanumGothic;-inkscape-font-specification:NanumGothic"
           id="path21199" />
        <path
           d="m -1980.4361,10643.747 -0.2901,0 c -0.57,-0.02 -1.0789,0 -1.5268,0.08 -0.4377,0.06 -0.8041,0.147 -1.0993,0.259 -0.4275,0.153 -0.7481,0.382 -0.9619,0.687 -0.2137,0.296 -0.3206,0.652 -0.3206,1.069 0,0.255 0.041,0.494 0.1221,0.718 0.082,0.213 0.2087,0.381 0.3817,0.504 0.3054,0.244 0.7125,0.366 1.2215,0.366 0.3562,0 0.682,-0.07 0.9771,-0.214 0.3054,-0.142 0.57,-0.346 0.794,-0.61 0.2239,-0.265 0.397,-0.591 0.5191,-0.978 0.1221,-0.397 0.1832,-0.85 0.1832,-1.358 l 0,-0.52 m -4.3514,-2.672 c -0.051,0.03 -0.1018,0.04 -0.1527,0.03 -0.041,-0.02 -0.061,-0.06 -0.061,-0.107 l 0,-0.58 c 0,-0.143 0.071,-0.249 0.2138,-0.321 0.3563,-0.193 0.7329,-0.325 1.1298,-0.397 0.4072,-0.08 0.85,-0.122 1.3284,-0.122 1.0178,0 1.7609,0.244 2.2291,0.733 0.4682,0.478 0.7024,1.206 0.7024,2.183 l 0,3.833 c 0,0.305 0,0.58 0.015,0.824 0.01,0.234 0.025,0.463 0.046,0.687 0,0.143 -0.071,0.214 -0.2137,0.214 l -0.5497,0 c -0.1425,0 -0.2137,-0.07 -0.2137,-0.214 l 0,-1.175 c -0.2138,0.519 -0.5751,0.921 -1.0841,1.206 -0.4987,0.285 -1.0433,0.427 -1.6337,0.427 -1.028,0 -1.7813,-0.3 -2.2597,-0.901 -0.1628,-0.203 -0.285,-0.437 -0.3664,-0.702 -0.081,-0.275 -0.1221,-0.544 -0.1221,-0.809 0,-0.621 0.1425,-1.155 0.4275,-1.603 0.2952,-0.448 0.743,-0.784 1.3436,-1.008 0.7328,-0.265 1.8576,-0.397 3.3742,-0.397 l 0.1985,0 0,-0.458 c 0,-0.641 -0.1476,-1.13 -0.4428,-1.466 -0.285,-0.336 -0.7685,-0.504 -1.4504,-0.504 -0.4581,0 -0.8907,0.05 -1.2978,0.153 -0.4072,0.09 -0.794,0.25 -1.1604,0.473"
           style="font-variant:normal;font-stretch:normal;fill:#c5c5c5;font-family:NanumGothic;-inkscape-font-specification:NanumGothic"
           id="path21201" />
        <path
           d="m -1972.9406,10640.724 c -0.1832,-0.06 -0.4275,-0.09 -0.7329,-0.09 -0.7532,0 -1.313,0.371 -1.6795,1.114 -0.285,0.58 -0.4275,1.324 -0.4275,2.229 l 0,3.863 c 0,0.143 -0.071,0.214 -0.2137,0.214 l -0.5955,0 c -0.1425,0 -0.2137,-0.07 -0.2137,-0.214 l 0,-6.199 c 0,-0.366 -0.01,-0.661 -0.015,-0.885 0,-0.234 -0.01,-0.484 -0.015,-0.748 0,-0.143 0.071,-0.214 0.2138,-0.214 l 0.5649,0 c 0.1425,0 0.2137,0.07 0.2137,0.214 l 0,1.496 c 0.4988,-1.283 1.2317,-1.924 2.1987,-1.924 0.2341,0 0.4682,0.03 0.7023,0.09 0.061,0.02 0.112,0.06 0.1527,0.107 0.051,0.04 0.076,0.101 0.076,0.183 l 0,0.641 c 0,0.06 -0.025,0.102 -0.076,0.122 -0.051,0.02 -0.1018,0.02 -0.1527,0"
           style="font-variant:normal;font-stretch:normal;fill:#c5c5c5;font-family:NanumGothic;-inkscape-font-specification:NanumGothic"
           id="path21203" />
        <path
           d="m -1967.4245,10648.068 c -0.4275,0.153 -0.8499,0.229 -1.2673,0.229 -0.8244,0 -1.369,-0.269 -1.6337,-0.809 -0.173,-0.366 -0.2595,-1.013 -0.2595,-1.939 l 0,-4.871 -1.4352,0 c -0.1425,0 -0.2138,-0.07 -0.2138,-0.213 l 0,-0.458 c 0,-0.143 0.071,-0.214 0.2138,-0.214 l 1.4352,0 0,-2.061 c 0,-0.153 0.066,-0.229 0.1985,-0.229 l 0.6412,0 c 0.1324,0 0.1985,0.08 0.1985,0.229 l 0,2.061 1.6948,0 c 0.1425,0 0.2137,0.07 0.2137,0.214 l 0,0.458 c 0,0.142 -0.071,0.214 -0.2137,0.213 l -1.6948,0 0,5.39 c 0,0.906 0.3665,1.359 1.0993,1.359 0.285,0 0.6057,-0.06 0.9619,-0.183 0.051,-0.02 0.097,-0.02 0.1374,0 0.051,0.02 0.076,0.06 0.076,0.122 l 0.031,0.397 c 0.02,0.142 -0.041,0.244 -0.1832,0.305"
           style="font-variant:normal;font-stretch:normal;fill:#c5c5c5;font-family:NanumGothic;-inkscape-font-specification:NanumGothic"
           id="path21205" />
        <path
           d="m -1956.0867,10638.953 c 0,-0.519 -0.1476,-0.926 -0.4428,-1.221 -0.2748,-0.275 -0.6667,-0.412 -1.1756,-0.413 -0.2545,0 -0.4937,0.04 -0.7176,0.107 -0.2138,0.07 -0.4072,0.173 -0.5802,0.306 -0.3868,0.336 -0.5802,0.748 -0.5802,1.236 0,0.296 0.1221,0.652 0.3664,1.069 0.2443,0.407 0.5497,0.825 0.9161,1.252 0.3664,-0.173 0.6769,-0.331 0.9314,-0.473 0.2646,-0.143 0.4529,-0.265 0.5649,-0.367 0.4784,-0.417 0.7176,-0.916 0.7176,-1.496 m -2.5498,3.374 c -0.6209,0.245 -1.1146,0.576 -1.481,0.993 -0.4479,0.478 -0.6718,1.023 -0.6718,1.634 0,0.702 0.2697,1.282 0.8092,1.74 0.5191,0.397 1.1299,0.596 1.8322,0.596 0.2545,0 0.514,-0.03 0.7787,-0.09 0.2646,-0.07 0.5191,-0.163 0.7634,-0.275 0.2443,-0.122 0.4733,-0.264 0.687,-0.427 0.224,-0.163 0.4174,-0.341 0.5802,-0.535 l -3.2979,-3.634 m 6.3516,5.451 c 0.081,0.08 0.117,0.127 0.1068,0.138 -0.01,0.01 -0.071,0.02 -0.1832,0.02 l -0.9466,0 c -0.1018,0 -0.168,-0 -0.1985,-0.02 -0.02,0 -0.066,-0.04 -0.1374,-0.123 l -1.0688,-1.145 c -0.9059,1.008 -2.0612,1.512 -3.4658,1.512 -1.0281,0 -1.8831,-0.255 -2.5651,-0.764 -0.7532,-0.58 -1.1298,-1.379 -1.1298,-2.397 0,-1.516 0.8957,-2.616 2.6872,-3.298 -0.2647,-0.295 -0.4784,-0.539 -0.6413,-0.732 -0.1629,-0.204 -0.285,-0.372 -0.3664,-0.504 -0.3258,-0.53 -0.4886,-1.049 -0.4886,-1.558 0,-0.743 0.3257,-1.353 0.9771,-1.832 0.2749,-0.193 0.5904,-0.346 0.9467,-0.458 0.3562,-0.112 0.7277,-0.168 1.1145,-0.168 0.7329,0 1.3487,0.189 1.8475,0.565 0.5496,0.458 0.8245,1.049 0.8245,1.771 0,0.815 -0.2901,1.466 -0.8703,1.955 l 0,-0.02 c -0.1731,0.153 -0.4123,0.326 -0.7176,0.519 -0.3054,0.184 -0.6922,0.392 -1.1604,0.626 0.5191,0.57 1.0179,1.125 1.4963,1.665 0.4886,0.539 0.9873,1.094 1.4963,1.664 0.3257,-0.458 0.5649,-0.947 0.7176,-1.466 0.1628,-0.529 0.2544,-1.114 0.2748,-1.756 0,-0.112 0.01,-0.178 0.031,-0.198 0.02,-0.02 0.086,-0.03 0.1985,-0.03 l 0.4886,0 c 0.1221,0 0.1934,0.01 0.2138,0.03 0.02,0.02 0.031,0.09 0.031,0.198 -0.02,0.672 -0.1323,1.334 -0.3359,1.985 -0.2036,0.652 -0.5191,1.283 -0.9466,1.893 l 1.7711,1.924"
           style="font-variant:normal;font-stretch:normal;fill:#c5c5c5;font-family:NanumGothic;-inkscape-font-specification:NanumGothic"
           id="path21207" />
        <path
           d="m -1940.8054,10648.114 c -0.3054,0.05 -0.6006,0.09 -0.8856,0.107 -0.285,0.02 -0.626,0.03 -1.0229,0.03 -0.6311,0 -1.1961,-0.112 -1.6948,-0.336 -0.4886,-0.224 -0.9059,-0.53 -1.252,-0.916 -0.3359,-0.387 -0.5955,-0.845 -0.7787,-1.375 -0.1832,-0.529 -0.2748,-1.099 -0.2748,-1.71 0,-0.621 0.097,-1.191 0.2901,-1.71 0.1934,-0.529 0.4682,-0.982 0.8245,-1.359 0.3664,-0.386 0.799,-0.687 1.2978,-0.9 0.5089,-0.224 1.0789,-0.336 1.71,-0.336 0.3359,0 0.6413,0.01 0.9161,0.05 0.2748,0.02 0.57,0.07 0.8855,0.137 0.1425,0.04 0.2087,0.137 0.1985,0.29 l -0.046,0.489 c -0.02,0.122 -0.097,0.168 -0.229,0.137 -0.2647,-0.08 -0.5191,-0.137 -0.7634,-0.168 -0.2443,-0.04 -0.514,-0.06 -0.8092,-0.06 -0.5191,0 -0.9772,0.09 -1.3742,0.26 -0.3867,0.162 -0.7125,0.397 -0.9771,0.702 -0.2647,0.305 -0.4632,0.672 -0.5955,1.099 -0.1323,0.418 -0.1985,0.876 -0.1985,1.374 0,0.458 0.066,0.896 0.1985,1.313 0.1425,0.418 0.341,0.789 0.5955,1.115 0.2646,0.316 0.5802,0.57 0.9466,0.763 0.3766,0.184 0.8041,0.275 1.2825,0.275 0.3563,0 0.6515,-0.01 0.8856,-0.05 0.2341,-0.03 0.4987,-0.09 0.7939,-0.168 0.1527,-0.04 0.2341,-0 0.2443,0.107 l 0.046,0.565 c 0.01,0.153 -0.061,0.245 -0.2137,0.275"
           style="font-variant:normal;font-stretch:normal;fill:#c5c5c5;font-family:NanumGothic;-inkscape-font-specification:NanumGothic"
           id="path21209" />
        <path
           d="m -1932.6618,10643.931 c 0,-0.479 -0.066,-0.927 -0.1985,-1.344 -0.1221,-0.417 -0.2951,-0.789 -0.5191,-1.115 -0.5293,-0.651 -1.2163,-0.977 -2.0612,-0.977 -0.4275,0 -0.8143,0.09 -1.1604,0.26 -0.3359,0.163 -0.6361,0.402 -0.9008,0.717 -0.2341,0.326 -0.4173,0.698 -0.5496,1.115 -0.1222,0.417 -0.1832,0.865 -0.1832,1.344 0,0.488 0.061,0.941 0.1832,1.358 0.1323,0.418 0.3155,0.784 0.5496,1.1 0.5395,0.661 1.2266,0.992 2.0612,0.992 0.4275,0 0.8092,-0.09 1.1451,-0.259 0.3461,-0.173 0.6515,-0.418 0.9161,-0.733 0.224,-0.316 0.397,-0.682 0.5191,-1.1 0.1324,-0.417 0.1985,-0.87 0.1985,-1.358 m 1.1299,0 c 0,0.6 -0.087,1.16 -0.2596,1.679 -0.173,0.509 -0.4021,0.957 -0.6871,1.344 -0.3562,0.427 -0.7837,0.758 -1.2825,0.992 -0.4886,0.234 -1.0484,0.351 -1.6795,0.351 -0.6311,0 -1.196,-0.117 -1.6947,-0.351 -0.4988,-0.234 -0.9263,-0.565 -1.2826,-0.992 -0.285,-0.387 -0.514,-0.835 -0.687,-1.344 -0.1629,-0.519 -0.2443,-1.079 -0.2443,-1.679 0,-1.232 0.3104,-2.24 0.9313,-3.023 0.7125,-0.886 1.705,-1.329 2.9773,-1.329 0.6413,0 1.2062,0.112 1.6948,0.336 0.4886,0.214 0.911,0.545 1.2672,0.993 0.6311,0.804 0.9467,1.811 0.9467,3.023"
           style="font-variant:normal;font-stretch:normal;fill:#c5c5c5;font-family:NanumGothic;-inkscape-font-specification:NanumGothic"
           id="path21211" />
        <path
           d="m -1928.3643,10647.839 c 0,0.143 -0.071,0.214 -0.2137,0.214 l -0.6718,0 c -0.1425,0 -0.2138,-0.07 -0.2138,-0.214 l 0,-11.71 c 0,-0.143 0.071,-0.214 0.2138,-0.214 l 0.6718,0 c 0.1425,0 0.2137,0.07 0.2137,0.214 l 0,11.71"
           style="font-variant:normal;font-stretch:normal;fill:#c5c5c5;font-family:NanumGothic;-inkscape-font-specification:NanumGothic"
           id="path21213" />
        <path
           d="m -1924.6665,10647.839 c 0,0.143 -0.071,0.214 -0.2138,0.214 l -0.6718,0 c -0.1425,0 -0.2137,-0.07 -0.2137,-0.214 l 0,-11.71 c 0,-0.143 0.071,-0.214 0.2137,-0.214 l 0.6718,0 c 0.1425,0 0.2138,0.07 0.2138,0.214 l 0,11.71"
           style="font-variant:normal;font-stretch:normal;fill:#c5c5c5;font-family:NanumGothic;-inkscape-font-specification:NanumGothic"
           id="path21215" />
        <path
           d="m -1917.3655,10643.747 -0.2901,0 c -0.57,-0.02 -1.0789,0 -1.5268,0.08 -0.4377,0.06 -0.8041,0.147 -1.0993,0.259 -0.4275,0.153 -0.7481,0.382 -0.9619,0.687 -0.2137,0.296 -0.3206,0.652 -0.3206,1.069 0,0.255 0.041,0.494 0.1221,0.718 0.082,0.213 0.2087,0.381 0.3817,0.504 0.3054,0.244 0.7126,0.366 1.2215,0.366 0.3563,0 0.682,-0.07 0.9772,-0.214 0.3053,-0.142 0.57,-0.346 0.7939,-0.61 0.2239,-0.265 0.397,-0.591 0.5191,-0.978 0.1222,-0.397 0.1832,-0.85 0.1832,-1.358 l 0,-0.52 m -4.3514,-2.672 c -0.051,0.03 -0.1018,0.04 -0.1527,0.03 -0.041,-0.02 -0.061,-0.06 -0.061,-0.107 l 0,-0.58 c 0,-0.143 0.071,-0.249 0.2137,-0.321 0.3563,-0.193 0.7329,-0.325 1.1299,-0.397 0.4071,-0.08 0.8499,-0.122 1.3283,-0.122 1.0179,0 1.7609,0.244 2.2291,0.733 0.4683,0.478 0.7024,1.206 0.7024,2.183 l 0,3.833 c 0,0.305 0.01,0.58 0.015,0.824 0.01,0.234 0.025,0.463 0.046,0.687 0,0.143 -0.071,0.214 -0.2137,0.214 l -0.5497,0 c -0.1425,0 -0.2137,-0.07 -0.2137,-0.214 l 0,-1.175 c -0.2138,0.519 -0.5751,0.921 -1.0841,1.206 -0.4987,0.285 -1.0433,0.427 -1.6336,0.427 -1.0281,0 -1.7813,-0.3 -2.2597,-0.901 -0.1629,-0.203 -0.285,-0.437 -0.3665,-0.702 -0.081,-0.275 -0.1221,-0.544 -0.1221,-0.809 0,-0.621 0.1425,-1.155 0.4275,-1.603 0.2952,-0.448 0.743,-0.784 1.3436,-1.008 0.7329,-0.265 1.8576,-0.397 3.3743,-0.397 l 0.1984,0 0,-0.458 c 0,-0.641 -0.1476,-1.13 -0.4427,-1.466 -0.285,-0.336 -0.7685,-0.504 -1.4505,-0.504 -0.4581,0 -0.8907,0.05 -1.2978,0.153 -0.4072,0.09 -0.794,0.25 -1.1604,0.473"
           style="font-variant:normal;font-stretch:normal;fill:#c5c5c5;font-family:NanumGothic;-inkscape-font-specification:NanumGothic"
           id="path21217" />
        <path
           d="m -1907.8546,10643.87 c 0.01,-0.428 -0.031,-0.845 -0.1221,-1.252 -0.082,-0.408 -0.2189,-0.774 -0.4123,-1.1 -0.1934,-0.325 -0.4529,-0.585 -0.7787,-0.778 -0.3155,-0.204 -0.7074,-0.306 -1.1756,-0.306 -0.4173,0 -0.7838,0.09 -1.0993,0.275 -0.3054,0.173 -0.5598,0.417 -0.7634,0.733 -0.2036,0.315 -0.3563,0.682 -0.4581,1.099 -0.1017,0.418 -0.1526,0.86 -0.1526,1.329 0,0.458 0.061,0.9 0.1832,1.328 0.1323,0.417 0.3053,0.784 0.5191,1.099 0.2239,0.316 0.4835,0.57 0.7787,0.764 0.3053,0.183 0.6361,0.274 0.9924,0.274 0.4682,0 0.8601,-0.1 1.1756,-0.29 0.3258,-0.203 0.5853,-0.468 0.7787,-0.794 0.1934,-0.325 0.3308,-0.697 0.4123,-1.114 0.092,-0.418 0.1323,-0.84 0.1221,-1.267 m -5.9851,-7.802 c 0,-0.143 0.071,-0.214 0.2137,-0.214 l 0.5955,0 c 0.1425,0 0.2138,0.07 0.2138,0.214 l 0,4.87 c 0.2544,-0.417 0.6158,-0.748 1.084,-0.992 0.4682,-0.255 0.9924,-0.382 1.5726,-0.382 2.2699,0 3.4048,1.435 3.4048,4.306 0.01,0.57 -0.051,1.119 -0.1832,1.649 -0.1222,0.519 -0.3257,0.977 -0.6107,1.374 -0.285,0.397 -0.6464,0.712 -1.0841,0.946 -0.4275,0.245 -0.9364,0.367 -1.5268,0.367 -1.2214,0 -2.107,-0.519 -2.6566,-1.558 l 0,1.191 c 0,0.143 -0.071,0.214 -0.2138,0.214 l -0.5955,0 c -0.1425,0 -0.2137,-0.07 -0.2137,-0.214 l 0,-11.771"
           style="font-variant:normal;font-stretch:normal;fill:#c5c5c5;font-family:NanumGothic;-inkscape-font-specification:NanumGothic"
           id="path21219" />
        <path
           d="m -1898.4575,10643.931 c 0,-0.479 -0.066,-0.927 -0.1985,-1.344 -0.1222,-0.417 -0.2952,-0.789 -0.5191,-1.115 -0.5293,-0.651 -1.2164,-0.977 -2.0612,-0.977 -0.4275,0 -0.8143,0.09 -1.1604,0.26 -0.3359,0.163 -0.6362,0.402 -0.9008,0.717 -0.2341,0.326 -0.4174,0.698 -0.5497,1.115 -0.1221,0.417 -0.1832,0.865 -0.1832,1.344 0,0.488 0.061,0.941 0.1832,1.358 0.1323,0.418 0.3156,0.784 0.5497,1.1 0.5395,0.661 1.2265,0.992 2.0612,0.992 0.4275,0 0.8092,-0.09 1.1451,-0.259 0.3461,-0.173 0.6514,-0.418 0.9161,-0.733 0.2239,-0.316 0.3969,-0.682 0.5191,-1.1 0.1323,-0.417 0.1985,-0.87 0.1985,-1.358 m 1.1298,0 c 0,0.6 -0.086,1.16 -0.2595,1.679 -0.1731,0.509 -0.4021,0.957 -0.6871,1.344 -0.3563,0.427 -0.7838,0.758 -1.2825,0.992 -0.4886,0.234 -1.0484,0.351 -1.6795,0.351 -0.6311,0 -1.196,-0.117 -1.6948,-0.351 -0.4987,-0.234 -0.9263,-0.565 -1.2825,-0.992 -0.285,-0.387 -0.514,-0.835 -0.6871,-1.344 -0.1628,-0.519 -0.2443,-1.079 -0.2443,-1.679 0,-1.232 0.3105,-2.24 0.9314,-3.023 0.7125,-0.886 1.7049,-1.329 2.9773,-1.329 0.6412,0 1.2062,0.112 1.6947,0.336 0.4886,0.214 0.911,0.545 1.2673,0.993 0.6311,0.804 0.9466,1.811 0.9466,3.023"
           style="font-variant:normal;font-stretch:normal;fill:#c5c5c5;font-family:NanumGothic;-inkscape-font-specification:NanumGothic"
           id="path21221" />
        <path
           d="m -1891.3812,10640.724 c -0.1832,-0.06 -0.4275,-0.09 -0.7329,-0.09 -0.7532,0 -1.313,0.371 -1.6795,1.114 -0.285,0.58 -0.4275,1.324 -0.4275,2.229 l 0,3.863 c 0,0.143 -0.071,0.214 -0.2137,0.214 l -0.5955,0 c -0.1425,0 -0.2138,-0.07 -0.2138,-0.214 l 0,-6.199 c 0,-0.366 -0.01,-0.661 -0.015,-0.885 0,-0.234 -0.01,-0.484 -0.015,-0.748 0,-0.143 0.071,-0.214 0.2138,-0.214 l 0.5649,0 c 0.1425,0 0.2137,0.07 0.2137,0.214 l 0,1.496 c 0.4988,-1.283 1.2317,-1.924 2.1987,-1.924 0.2341,0 0.4682,0.03 0.7023,0.09 0.061,0.02 0.112,0.06 0.1527,0.107 0.051,0.04 0.076,0.101 0.076,0.183 l 0,0.641 c 0,0.06 -0.025,0.102 -0.076,0.122 -0.051,0.02 -0.1018,0.02 -0.1527,0"
           style="font-variant:normal;font-stretch:normal;fill:#c5c5c5;font-family:NanumGothic;-inkscape-font-specification:NanumGothic"
           id="path21223" />
        <path
           d="m -1885.0101,10643.747 -0.2901,0 c -0.57,-0.02 -1.0789,0 -1.5268,0.08 -0.4377,0.06 -0.8041,0.147 -1.0993,0.259 -0.4275,0.153 -0.7481,0.382 -0.9619,0.687 -0.2138,0.296 -0.3206,0.652 -0.3206,1.069 0,0.255 0.041,0.494 0.1221,0.718 0.081,0.213 0.2087,0.381 0.3817,0.504 0.3054,0.244 0.7125,0.366 1.2215,0.366 0.3562,0 0.6819,-0.07 0.9771,-0.214 0.3054,-0.142 0.57,-0.346 0.794,-0.61 0.2239,-0.265 0.3969,-0.591 0.5191,-0.978 0.1221,-0.397 0.1832,-0.85 0.1832,-1.358 l 0,-0.52 m -4.3514,-2.672 c -0.051,0.03 -0.1018,0.04 -0.1527,0.03 -0.041,-0.02 -0.061,-0.06 -0.061,-0.107 l 0,-0.58 c 0,-0.143 0.071,-0.249 0.2138,-0.321 0.3562,-0.193 0.7329,-0.325 1.1298,-0.397 0.4072,-0.08 0.85,-0.122 1.3284,-0.122 1.0178,0 1.7609,0.244 2.2291,0.733 0.4682,0.478 0.7023,1.206 0.7024,2.183 l 0,3.833 c -10e-5,0.305 0.01,0.58 0.015,0.824 0.01,0.234 0.025,0.463 0.046,0.687 0,0.143 -0.071,0.214 -0.2137,0.214 l -0.5497,0 c -0.1425,0 -0.2137,-0.07 -0.2137,-0.214 l 0,-1.175 c -0.2138,0.519 -0.5751,0.921 -1.0841,1.206 -0.4987,0.285 -1.0433,0.427 -1.6337,0.427 -1.028,0 -1.7813,-0.3 -2.2597,-0.901 -0.1628,-0.203 -0.285,-0.437 -0.3664,-0.702 -0.081,-0.275 -0.1221,-0.544 -0.1221,-0.809 0,-0.621 0.1425,-1.155 0.4275,-1.603 0.2952,-0.448 0.743,-0.784 1.3436,-1.008 0.7328,-0.265 1.8576,-0.397 3.3742,-0.397 l 0.1985,0 0,-0.458 c 0,-0.641 -0.1476,-1.13 -0.4428,-1.466 -0.285,-0.336 -0.7685,-0.504 -1.4504,-0.504 -0.4581,0 -0.8907,0.05 -1.2978,0.153 -0.4072,0.09 -0.794,0.25 -1.1604,0.473"
           style="font-variant:normal;font-stretch:normal;fill:#c5c5c5;font-family:NanumGothic;-inkscape-font-specification:NanumGothic"
           id="path21225" />
        <path
           d="m -1877.5452,10648.068 c -0.4275,0.153 -0.8499,0.229 -1.2672,0.229 -0.8245,0 -1.3691,-0.269 -1.6337,-0.809 -0.173,-0.366 -0.2596,-1.013 -0.2596,-1.939 l 0,-4.871 -1.4352,0 c -0.1425,0 -0.2137,-0.07 -0.2137,-0.213 l 0,-0.458 c 0,-0.143 0.071,-0.214 0.2137,-0.214 l 1.4352,0 0,-2.061 c 0,-0.153 0.066,-0.229 0.1985,-0.229 l 0.6413,0 c 0.1323,0 0.1985,0.08 0.1985,0.229 l 0,2.061 1.6947,0 c 0.1425,0 0.2138,0.07 0.2138,0.214 l 0,0.458 c 0,0.142 -0.071,0.214 -0.2138,0.213 l -1.6947,0 0,5.39 c 0,0.906 0.3664,1.359 1.0993,1.359 0.285,0 0.6056,-0.06 0.9619,-0.183 0.051,-0.02 0.097,-0.02 0.1374,0 0.051,0.02 0.076,0.06 0.076,0.122 l 0.031,0.397 c 0.02,0.142 -0.041,0.244 -0.1833,0.305"
           style="font-variant:normal;font-stretch:normal;fill:#c5c5c5;font-family:NanumGothic;-inkscape-font-specification:NanumGothic"
           id="path21227" />
        <path
           d="m -1874.762,10647.839 c 0,0.143 -0.071,0.214 -0.2138,0.214 l -0.6718,0 c -0.1425,0 -0.2138,-0.07 -0.2138,-0.214 l 0,-7.832 c 0,-0.143 0.071,-0.214 0.2138,-0.214 l 0.6718,0 c 0.1425,0 0.2138,0.07 0.2138,0.214 l 0,7.832 m -1.2978,-10.932 c 0,-0.203 0.071,-0.376 0.2137,-0.519 0.1425,-0.153 0.3156,-0.229 0.5191,-0.229 0.2036,0 0.3766,0.08 0.5192,0.229 0.1526,0.143 0.229,0.316 0.229,0.519 0,0.204 -0.076,0.377 -0.229,0.519 -0.1426,0.143 -0.3156,0.214 -0.5192,0.214 -0.2035,0 -0.3766,-0.07 -0.5191,-0.214 -0.1425,-0.142 -0.2137,-0.315 -0.2137,-0.519"
           style="font-variant:normal;font-stretch:normal;fill:#c5c5c5;font-family:NanumGothic;-inkscape-font-specification:NanumGothic"
           id="path21229" />
        <path
           d="m -1869.171,10647.855 c -0.051,0.132 -0.1527,0.198 -0.3054,0.198 l -0.7481,0 c -0.1527,0 -0.2494,-0.07 -0.2901,-0.198 l -2.6872,-7.848 c -0.02,-0.05 -0.015,-0.1 0.015,-0.138 0.031,-0.05 0.076,-0.08 0.1374,-0.08 l 0.6871,0 c 0.1222,0 0.2138,0.07 0.2748,0.214 l 2.2597,6.993 2.3513,-6.993 c 0.02,-0.06 0.056,-0.112 0.1069,-0.153 0.051,-0.04 0.1069,-0.06 0.168,-0.06 l 0.6718,0 c 0.061,0 0.1068,0.02 0.1374,0.08 0.031,0.04 0.036,0.09 0.015,0.138 l -2.794,7.848"
           style="font-variant:normal;font-stretch:normal;fill:#c5c5c5;font-family:NanumGothic;-inkscape-font-specification:NanumGothic"
           id="path21231" />
        <path
           d="m -1859.6533,10643.35 c 0,-0.417 -0.041,-0.788 -0.1221,-1.114 -0.081,-0.326 -0.2087,-0.621 -0.3817,-0.886 -0.3766,-0.6 -0.9212,-0.901 -1.6337,-0.901 -0.7329,0 -1.3283,0.306 -1.7864,0.917 -0.1832,0.274 -0.3359,0.59 -0.458,0.946 -0.1222,0.356 -0.1883,0.703 -0.1985,1.038 l 4.5804,0 m -4.5804,0.871 c -0.01,0.509 0.046,0.962 0.1679,1.359 0.1324,0.386 0.3207,0.712 0.565,0.977 0.2443,0.264 0.5344,0.468 0.8703,0.61 0.346,0.143 0.7277,0.214 1.1451,0.214 0.4071,0 0.7888,-0.03 1.1451,-0.107 0.3562,-0.08 0.687,-0.208 0.9924,-0.381 0.1323,-0.06 0.1985,-0.03 0.1985,0.107 l 0,0.687 c 0,0.09 -0.056,0.162 -0.168,0.213 -0.3359,0.133 -0.687,0.229 -1.0535,0.29 -0.3664,0.07 -0.7634,0.107 -1.1909,0.107 -1.252,0 -2.1986,-0.361 -2.8399,-1.084 -0.6412,-0.733 -0.9618,-1.832 -0.9618,-3.298 0,-1.292 0.3206,-2.336 0.9618,-3.13 0.6718,-0.804 1.5218,-1.206 2.5498,-1.206 0.57,0 1.0637,0.102 1.481,0.306 0.4174,0.203 0.7736,0.508 1.0688,0.916 0.5191,0.722 0.7787,1.689 0.7787,2.901 0,0.132 -0.01,0.234 -0.015,0.305 0,0.07 -0.015,0.122 -0.046,0.153 -0.031,0.03 -0.087,0.05 -0.1679,0.06 -0.071,0 -0.1782,0 -0.3207,0 l -5.1606,0"
           style="font-variant:normal;font-stretch:normal;fill:#c5c5c5;font-family:NanumGothic;-inkscape-font-specification:NanumGothic"
           id="path21233" />
        <path
           d="m -1846.4582,10643.808 c 0,-0.417 -0.041,-0.819 -0.1222,-1.206 -0.081,-0.397 -0.2188,-0.748 -0.4122,-1.053 -0.1934,-0.306 -0.4428,-0.55 -0.7482,-0.733 -0.3053,-0.193 -0.687,-0.29 -1.1451,-0.29 -0.4173,0 -0.7786,0.09 -1.084,0.259 -0.3054,0.173 -0.5598,0.413 -0.7634,0.718 -0.1934,0.295 -0.341,0.641 -0.4428,1.038 -0.1018,0.397 -0.1527,0.82 -0.1527,1.267 0,1.181 0.2189,2.077 0.6566,2.688 0.4478,0.6 1.0433,0.9 1.7863,0.9 0.3868,0 0.7278,-0.08 1.023,-0.244 0.3054,-0.173 0.5598,-0.417 0.7634,-0.733 0.2138,-0.315 0.3715,-0.692 0.4733,-1.13 0.112,-0.437 0.168,-0.931 0.168,-1.481 m -5.8935,-3.801 c 0,-0.143 0.071,-0.214 0.2137,-0.214 l 0.5802,0 c 0.1425,0 0.2138,0.07 0.2138,0.214 l -0.076,1.145 c 0.2036,-0.448 0.5446,-0.809 1.023,-1.084 0.4886,-0.275 1.0535,-0.412 1.6948,-0.412 0.6005,0 1.1094,0.106 1.5268,0.32 0.4275,0.214 0.7736,0.509 1.0382,0.886 0.2748,0.366 0.4733,0.804 0.5955,1.313 0.1323,0.509 0.1984,1.053 0.1985,1.633 -10e-5,0.632 -0.076,1.217 -0.2291,1.756 -0.1425,0.54 -0.3562,1.008 -0.6412,1.405 -0.2749,0.397 -0.6209,0.707 -1.0383,0.931 -0.4173,0.234 -0.9008,0.352 -1.4504,0.352 -0.621,0 -1.1553,-0.123 -1.6032,-0.367 -0.4479,-0.234 -0.7889,-0.565 -1.023,-0.992 l 0,3.282 c 0,0.143 -0.071,0.214 -0.2137,0.214 l -0.5802,0 c -0.061,0 -0.1171,-0.02 -0.168,-0.06 -0.041,-0.04 -0.061,-0.09 -0.061,-0.153 l 0,-10.168"
           style="font-variant:normal;font-stretch:normal;fill:#c5c5c5;font-family:NanumGothic;-inkscape-font-specification:NanumGothic"
           id="path21235" />
        <path
           d="m -1841.8248,10647.839 c 0,0.143 -0.071,0.214 -0.2138,0.214 l -0.6718,0 c -0.1425,0 -0.2137,-0.07 -0.2137,-0.214 l 0,-11.71 c 0,-0.143 0.071,-0.214 0.2137,-0.214 l 0.6718,0 c 0.1425,0 0.2138,0.07 0.2138,0.214 l 0,11.71"
           style="font-variant:normal;font-stretch:normal;fill:#c5c5c5;font-family:NanumGothic;-inkscape-font-specification:NanumGothic"
           id="path21237" />
        <path
           d="m -1834.5238,10643.747 -0.2901,0 c -0.57,-0.02 -1.0789,0 -1.5268,0.08 -0.4377,0.06 -0.8041,0.147 -1.0993,0.259 -0.4275,0.153 -0.7481,0.382 -0.9619,0.687 -0.2137,0.296 -0.3206,0.652 -0.3206,1.069 0,0.255 0.041,0.494 0.1221,0.718 0.082,0.213 0.2087,0.381 0.3817,0.504 0.3054,0.244 0.7125,0.366 1.2215,0.366 0.3562,0 0.682,-0.07 0.9772,-0.214 0.3053,-0.142 0.57,-0.346 0.7939,-0.61 0.2239,-0.265 0.397,-0.591 0.5191,-0.978 0.1222,-0.397 0.1832,-0.85 0.1832,-1.358 l 0,-0.52 m -4.3514,-2.672 c -0.051,0.03 -0.1018,0.04 -0.1527,0.03 -0.041,-0.02 -0.061,-0.06 -0.061,-0.107 l 0,-0.58 c -10e-5,-0.143 0.071,-0.249 0.2137,-0.321 0.3563,-0.193 0.7329,-0.325 1.1298,-0.397 0.4072,-0.08 0.85,-0.122 1.3284,-0.122 1.0179,0 1.7609,0.244 2.2291,0.733 0.4682,0.478 0.7024,1.206 0.7024,2.183 l 0,3.833 c 0,0.305 0.01,0.58 0.015,0.824 0.01,0.234 0.025,0.463 0.046,0.687 0,0.143 -0.071,0.214 -0.2137,0.214 l -0.5497,0 c -0.1425,0 -0.2137,-0.07 -0.2137,-0.214 l 0,-1.175 c -0.2138,0.519 -0.5751,0.921 -1.0841,1.206 -0.4987,0.285 -1.0433,0.427 -1.6337,0.427 -1.028,0 -1.7812,-0.3 -2.2596,-0.901 -0.1629,-0.203 -0.2851,-0.437 -0.3665,-0.702 -0.081,-0.275 -0.1221,-0.544 -0.1221,-0.809 0,-0.621 0.1425,-1.155 0.4275,-1.603 0.2952,-0.448 0.743,-0.784 1.3436,-1.008 0.7328,-0.265 1.8576,-0.397 3.3742,-0.397 l 0.1985,0 0,-0.458 c 0,-0.641 -0.1476,-1.13 -0.4427,-1.466 -0.2851,-0.336 -0.7685,-0.504 -1.4505,-0.504 -0.4581,0 -0.8907,0.05 -1.2978,0.153 -0.4072,0.09 -0.794,0.25 -1.1604,0.473"
           style="font-variant:normal;font-stretch:normal;fill:#c5c5c5;font-family:NanumGothic;-inkscape-font-specification:NanumGothic"
           id="path21239" />
        <path
           d="m -1831.6088,10650.313 c -0.1221,-0.03 -0.173,-0.107 -0.1526,-0.229 l 0.046,-0.519 c 0,-0.123 0.061,-0.158 0.1832,-0.107 0.1628,0.06 0.3512,0.09 0.5649,0.09 0.2138,0 0.4072,-0.04 0.5802,-0.107 0.1832,-0.06 0.3206,-0.147 0.4122,-0.259 0.112,-0.143 0.2342,-0.377 0.3665,-0.702 0.1425,-0.326 0.2799,-0.698 0.4122,-1.115 -0.458,-1.242 -0.911,-2.468 -1.3588,-3.68 -0.4479,-1.211 -0.9009,-2.437 -1.3589,-3.679 -0.02,-0.05 -0.02,-0.1 0,-0.138 0.02,-0.05 0.061,-0.08 0.1221,-0.08 l 0.7176,0 c 0.1425,0 0.2443,0.07 0.3054,0.214 l 2.0612,5.924 c 0.3766,-1.038 0.7329,-2.026 1.0688,-2.962 0.346,-0.947 0.7074,-1.934 1.084,-2.962 0.051,-0.143 0.1527,-0.214 0.3054,-0.214 l 0.6565,0 c 0.061,0 0.1018,0.02 0.1221,0.08 0.02,0.04 0.02,0.09 0,0.138 l -3.1757,8.519 c -0.112,0.296 -0.2392,0.56 -0.3817,0.794 -0.1324,0.234 -0.2698,0.423 -0.4123,0.565 -0.1832,0.173 -0.3868,0.3 -0.6107,0.382 -0.2239,0.09 -0.458,0.137 -0.7023,0.137 -0.1527,0 -0.2901,-0 -0.4123,-0.02 -0.1221,-0.01 -0.2697,-0.04 -0.4428,-0.08"
           style="font-variant:normal;font-stretch:normal;fill:#c5c5c5;font-family:NanumGothic;-inkscape-font-specification:NanumGothic"
           id="path21241" />
        <path
           d="m -1822.7098,10647.839 c 0,0.143 -0.071,0.214 -0.2137,0.214 l -0.6718,0 c -0.1425,0 -0.2138,-0.07 -0.2138,-0.214 l 0,-11.71 c 0,-0.143 0.071,-0.214 0.2138,-0.214 l 0.6718,0 c 0.1425,0 0.2137,0.07 0.2137,0.214 l 0,11.71"
           style="font-variant:normal;font-stretch:normal;fill:#c5c5c5;font-family:NanumGothic;-inkscape-font-specification:NanumGothic"
           id="path21243" />
        <path
           d="m -1819.0273,10647.839 c 0,0.143 -0.071,0.214 -0.2138,0.214 l -0.6718,0 c -0.1425,0 -0.2137,-0.07 -0.2137,-0.214 l 0,-7.832 c 0,-0.143 0.071,-0.214 0.2137,-0.214 l 0.6718,0 c 0.1425,0 0.2138,0.07 0.2138,0.214 l 0,7.832 m -1.2978,-10.932 c 0,-0.203 0.071,-0.376 0.2138,-0.519 0.1425,-0.153 0.3155,-0.229 0.5191,-0.229 0.2035,0 0.3766,0.08 0.5191,0.229 0.1527,0.143 0.229,0.316 0.229,0.519 0,0.204 -0.076,0.377 -0.229,0.519 -0.1425,0.143 -0.3156,0.214 -0.5191,0.214 -0.2036,0 -0.3766,-0.07 -0.5191,-0.214 -0.1425,-0.142 -0.2138,-0.315 -0.2138,-0.519"
           style="font-variant:normal;font-stretch:normal;fill:#c5c5c5;font-family:NanumGothic;-inkscape-font-specification:NanumGothic"
           id="path21245" />
        <path
           d="m -1816.8258,10647.045 c 0.6209,0.255 1.2621,0.382 1.9238,0.382 0.5496,0 1.0026,-0.132 1.3588,-0.397 0.3563,-0.275 0.5344,-0.641 0.5344,-1.099 0,-0.265 -0.1018,-0.519 -0.3054,-0.764 -0.1934,-0.254 -0.4326,-0.463 -0.7176,-0.626 -0.3155,-0.173 -0.6412,-0.336 -0.9771,-0.488 -0.3257,-0.163 -0.6413,-0.331 -0.9466,-0.504 -0.3665,-0.204 -0.6362,-0.453 -0.8093,-0.748 -0.173,-0.306 -0.2595,-0.621 -0.2595,-0.947 0,-0.376 0.071,-0.707 0.2137,-0.992 0.1425,-0.285 0.3359,-0.524 0.5802,-0.718 0.2443,-0.193 0.5293,-0.336 0.855,-0.427 0.3258,-0.09 0.6718,-0.138 1.0383,-0.138 0.3868,0 0.7227,0.02 1.0077,0.06 0.285,0.04 0.57,0.102 0.855,0.183 0.061,0.02 0.112,0.05 0.1527,0.09 0.051,0.04 0.071,0.1 0.061,0.168 l -0.046,0.458 c -0.01,0.08 -0.041,0.132 -0.092,0.153 -0.051,0.02 -0.1018,0.02 -0.1526,0 -0.2545,-0.09 -0.509,-0.153 -0.7635,-0.183 -0.2544,-0.04 -0.5598,-0.06 -0.916,-0.06 -1.1808,0 -1.7711,0.469 -1.7711,1.405 0,0.204 0.076,0.397 0.229,0.58 0.1628,0.184 0.4326,0.367 0.8092,0.55 0.3257,0.163 0.6463,0.321 0.9619,0.473 0.3155,0.143 0.6565,0.316 1.0229,0.519 0.3156,0.173 0.5751,0.438 0.7787,0.794 0.2138,0.357 0.3206,0.743 0.3207,1.161 -10e-5,0.407 -0.082,0.758 -0.2443,1.053 -0.1629,0.295 -0.3817,0.54 -0.6566,0.733 -0.2748,0.194 -0.5903,0.336 -0.9466,0.428 -0.3563,0.101 -0.7227,0.152 -1.0993,0.152 -0.2239,0 -0.4275,-0 -0.6107,-0.02 -0.1731,-0.01 -0.341,-0.02 -0.5039,-0.05 -0.1527,-0.02 -0.3104,-0.05 -0.4733,-0.08 -0.1628,-0.03 -0.3359,-0.07 -0.5191,-0.122 -0.1425,-0.05 -0.2087,-0.143 -0.1985,-0.275 l 0.061,-0.565 c 0.02,-0.163 0.1018,-0.214 0.2443,-0.153"
           style="font-variant:normal;font-stretch:normal;fill:#c5c5c5;font-family:NanumGothic;-inkscape-font-specification:NanumGothic"
           id="path21247" />
        <path
           d="m -1806.0949,10648.068 c -0.4276,0.153 -0.85,0.229 -1.2673,0.229 -0.8245,0 -1.369,-0.269 -1.6337,-0.809 -0.173,-0.366 -0.2596,-1.013 -0.2596,-1.939 l 0,-4.871 -1.4352,0 c -0.1425,0 -0.2137,-0.07 -0.2137,-0.213 l 0,-0.458 c 0,-0.143 0.071,-0.214 0.2137,-0.214 l 1.4352,0 0,-2.061 c 0,-0.153 0.066,-0.229 0.1985,-0.229 l 0.6413,0 c 0.1323,0 0.1985,0.08 0.1985,0.229 l 0,2.061 1.6947,0 c 0.1425,0 0.2138,0.07 0.2138,0.214 l 0,0.458 c 0,0.142 -0.071,0.214 -0.2138,0.213 l -1.6947,0 0,5.39 c 0,0.906 0.3664,1.359 1.0993,1.359 0.285,0 0.6056,-0.06 0.9619,-0.183 0.051,-0.02 0.097,-0.02 0.1374,0 0.051,0.02 0.076,0.06 0.076,0.122 l 0.031,0.397 c 0.02,0.142 -0.041,0.244 -0.1832,0.305"
           style="font-variant:normal;font-stretch:normal;fill:#c5c5c5;font-family:NanumGothic;-inkscape-font-specification:NanumGothic"
           id="path21249" />
      </g>
      <path
         style="font-size:60.04922485px;font-style:normal;font-variant:normal;font-weight:normal;font-stretch:normal;line-height:125%;letter-spacing:0px;word-spacing:0px;fill:#a6a6a6;fill-opacity:1;stroke:none;font-family:Roboto;-inkscape-font-specification:Roboto"
         d="m -1979.652,10597.774 c -3.6266,0.02 -6.5252,1.146 -8.6884,3.39 -2.1804,2.264 -3.274,5.259 -3.274,8.998 l 0,6.316 c 0,3.794 1.0713,6.813 3.1969,9.049 2.1078,2.218 5.0291,3.334 8.7655,3.352 0.031,0 0.059,0 0.09,0 0.026,0 0.051,0 0.077,0 3.736,-0.02 6.6577,-1.134 8.7656,-3.352 2.1256,-2.236 3.1968,-5.255 3.1968,-9.049 l 0,-6.316 c 0,-3.739 -1.0939,-6.734 -3.274,-8.998 -2.1627,-2.245 -5.0617,-3.372 -8.6884,-3.39 -0.026,0 -0.052,0 -0.077,0 0,0 -0.01,0 -0.013,0 l -0.077,0 z m 0,5.388 0.077,0 c 0.031,0 0.06,0 0.09,0 1.5758,0.02 2.7922,0.653 3.6481,1.882 0.8721,1.253 1.3147,2.948 1.3147,5.079 l 0,6.355 c 0,2.202 -0.4014,3.924 -1.2115,5.156 -0.7953,1.21 -2.0534,1.822 -3.7513,1.844 -0.026,0 -0.051,0 -0.077,0 -0.031,0 -0.06,0 -0.09,0 -1.6978,-0.02 -2.9559,-0.634 -3.7512,-1.844 -0.8101,-1.232 -1.2115,-2.954 -1.2115,-5.156 l 0,-6.355 c 0,-2.132 0.4422,-3.826 1.3146,-5.079 0.856,-1.229 2.0724,-1.858 3.6481,-1.882 z"
         id="path4931-3-0-2-6-0-2-1-4-3-2-0-7-5"
         inkscape:connector-curvature="0" />
    </g>
    <g
       transform="matrix(1.5275858,0,0,1.5275858,-2895.743,-20168.63)"
       id="g4632-7-6-4-2-1-7-9-8-76-0-0">
      <g
         id="g5730-0-3-1-1-9-73-8-4-9-7-6-9"
         transform="matrix(-1,0,0,1,2633.1187,2017.5054)">
        <path
           id="path6027-5-0-4-5-3-19-9-7-2-2-7-4-8-5-9-2-4-5-5-4-1-2-2-6-1-1-0"
           d="m 437.82312,11466.551 c -9.02138,0 -12.48175,7.253 -12.48175,16.277 l 0,6.153 c 0,2.617 1.22716,5.841 5.96969,6.148 4.03516,0.231 10.92927,0.347 18.27026,0.347 3.66007,-4.526 17.50849,-9.047 24.28509,-9.047 l 2.53247,0 c -0.31836,-1.748 -5.01284,-19.617 -5.8487,-19.895 l -32.72706,0 z"
           style="color:#000000;fill:#698eab;fill-opacity:1;fill-rule:nonzero;stroke:none;stroke-width:0.24476303;marker:none;visibility:visible;display:inline;overflow:visible;enable-background:accumulate"
           inkscape:connector-curvature="0"
           sodipodi:nodetypes="cssccscccc" />
        <path
           id="path6027-5-0-4-5-3-19-9-7-2-2-7-4-8-5-1-4-5-8-9-8-23-4-62-2-7-3-4-3-7"
           d="m 440.03125,11463.031 c 0.30859,0.785 0.66445,1.56 1.09375,2.313 4.81177,8.44 15.49928,11.372 23.9375,6.562 2.79871,-1.595 5.003,-3.868 6.53125,-6.468 -0.45968,-1.37 -0.85013,-2.347 -1.03125,-2.407 l -30.53125,0 z"
           style="color:#000000;fill:#547b96;fill-opacity:1;fill-rule:nonzero;stroke:none;stroke-width:0.24476303;marker:none;visibility:visible;display:inline;overflow:visible;enable-background:accumulate"
           inkscape:connector-curvature="0"
           clip-path="url(#clipPath3786-8-7-09-3-58-9-3-5-2-1-44-3-2-9)" />
        <path
           id="path6027-5-0-4-5-3-19-9-7-2-2-7-4-8-5-1-3-6-6-2-1-8-0-6-3-9-7-0-4"
           d="m 456.45459,11434.714 c -9.71601,0 -17.54612,7.832 -17.54612,17.545 0,9.725 7.83011,17.73 17.54612,17.73 2.65634,0 5.14482,-0.746 7.41681,-1.811 1.00546,-7.225 4.78478,-13.476 10.12988,-17.91 -0.99793,-8.775 -8.50157,-15.554 -17.54669,-15.554 z"
           style="color:#000000;fill:#698eab;fill-opacity:1;fill-rule:nonzero;stroke:none;stroke-width:0.24476303;marker:none;visibility:visible;display:inline;overflow:visible;enable-background:accumulate"
           inkscape:connector-curvature="0"
           sodipodi:nodetypes="sssccs" />
      </g>
      <g
         style="fill:url(#linearGradient18561-6-9-8-5);fill-opacity:1;stroke:none"
         inkscape:export-ydpi="90"
         inkscape:export-xdpi="90"
         inkscape:export-filename="C:\Users\jonescd\Desktop\CloudList\crowdplay_logo0.png"
         transform="matrix(5.7885056,0,0,5.7885056,-8150.0825,-54594.819)"
         id="g6138-1-2-7-2-5-5-1-6-2-4-5-2-2-15-4-8">
        <path
           sodipodi:nodetypes="cssccscccc"
           inkscape:connector-curvature="0"
           style="color:#000000;fill:#698eab;fill-opacity:1;fill-rule:nonzero;stroke:none;stroke-width:0.24476303;marker:none;visibility:visible;display:inline;overflow:visible;enable-background:accumulate"
           d="m 1768.5091,11761.045 c -1.5585,0 -2.1563,1.253 -2.1563,2.812 l 0,1.063 c 0,0.452 0.212,1.009 1.0313,1.062 0.6971,0.04 1.8881,0.06 3.1563,0.06 0.6323,-0.782 3.0247,-1.563 4.1954,-1.563 l 0.4375,0 c -0.055,-0.302 -0.866,-3.389 -1.0104,-3.437 l -5.6538,0 z"
           id="path6027-5-0-4-5-3-19-9-7-2-2-7-4-8-5-0-1-9-8-7-6-2-0-3-2-2-0" />
        <path
           sodipodi:nodetypes="sssscssssss"
           inkscape:connector-curvature="0"
           id="path6027-5-0-4-5-3-19-9-7-8-4-5-9-4-9-0-3-82-2-82-9-0-0-9-94-1"
           d="m 1772.6388,11763.904 c -2.562,0.01 -3.5823,2.555 -3.5823,5.117 l 0,1.729 c 0,0.744 0.3695,1.648 1.7164,1.735 3.0307,0.195 11.4404,0.117 14.1947,-0.09 1.5958,0.09 1.8448,-1.085 1.8448,-1.741 l 0,-1.632 c 0,-2.563 -1.0204,-5.118 -3.5823,-5.118 l -0.6231,0 c -3.3189,0 -6.5585,0 -9.3452,0 z"
           style="color:#000000;fill:#93afc3;fill-opacity:1;fill-rule:nonzero;stroke:none;stroke-width:0.24476303;marker:none;visibility:visible;display:inline;overflow:visible;enable-background:accumulate" />
      </g>
      <g
         id="g4966-4-4-0-9-9-7-5-9-1-4-9-78-0-4"
         transform="translate(996.46614,2396.4164)"
         inkscape:export-filename="C:\Users\jonescd\Desktop\CloudList\crowdplay_logo3.png"
         inkscape:export-xdpi="90"
         inkscape:export-ydpi="90">
        <g
           transform="translate(5.7924295,0)"
           id="g4935-8-4-2-9-7-71-8-68-9-4-3-8-8-6">
          <g
             id="g4826-81-8-4-6-2-2-4-19-8-9-0-2-4-9"
             transform="matrix(2.5713469,0,0,2.5713469,-1693.5666,-17428.06)">
            <g
               id="g4777-3-2-8-8-1-6-7-63-8-1-0-25-0-8"
               inkscape:export-filename="C:\Users\jonescd\Desktop\CloudList\crowdplay_logo0.png"
               inkscape:export-xdpi="90"
               inkscape:export-ydpi="90">
              <path
                 style="color:#000000;fill:#7e7e7e;fill-opacity:1;stroke:none;stroke-width:1.0679903;marker:none;visibility:visible;display:inline;overflow:visible;enable-background:accumulate"
                 d="m 1101.6595,11053.906 c -21.7898,0 -39.4375,17.678 -39.4375,39.469 0,21.789 17.6477,39.469 39.4375,39.469 14.1534,0 26.5719,-7.464 33.5312,-18.657 l -1.1771,-0.51 c -6.5792,10.461 -18.4734,17.732 -32.3541,17.732 -21.4482,0 -37.8229,-16.586 -37.8229,-38.034 0,-21.448 16.3747,-38.844 37.8229,-38.844 21.4367,0 38.8275,17.376 38.8438,38.813 l 0,0.03 c 0,3.072 -0.3568,6.072 -1.0313,8.938 l 0.625,0.03 c 0.6674,-2.877 1,-5.889 1,-8.969 l 0,-0.03 c -0.016,-21.779 -17.6592,-39.438 -39.4375,-39.438 z"
                 id="path4366-6-7-6-3-3-0-3-9-1-9-6-1-9-6"
                 inkscape:connector-curvature="0"
                 sodipodi:nodetypes="cssccssscsccsccc" />
            </g>
            <path
               inkscape:connector-curvature="0"
               id="rect4513-11-5-7-0-4-2-49-9-87-9-0-3-6-8-1"
               d="m 2535.1433,10863.435 2.1073,0 0,4.678 -2.1073,0 z"
               style="color:#000000;fill:#4f4f4f;fill-opacity:1;fill-rule:nonzero;stroke:none;stroke-width:1.10000002;marker:none;visibility:visible;display:inline;overflow:visible;enable-background:accumulate"
               transform="matrix(-0.94766953,0.31925299,0.31925299,0.94766953,0,0)" />
            <g
               transform="translate(-355.96551,-126.12489)"
               id="g4620-5-3-0-8-0-4-5-5-0-8-9-1-0-3"
               inkscape:export-filename="C:\Users\jonescd\Desktop\CloudList\crowdplay_logo0.png"
               inkscape:export-xdpi="90"
               inkscape:export-ydpi="90">
              <path
                 style="color:#000000;fill:#7d7d7d;fill-opacity:1;fill-rule:nonzero;stroke:none;stroke-width:1.10000002;marker:none;visibility:visible;display:inline;overflow:visible;enable-background:accumulate"
                 d="m 1457.5,11183.969 c -9.2375,0 -17.5718,3.824 -23.5312,9.968 l 1.5937,1.313 c 2.0981,1.766 3.2453,0.968 4.5937,0.03 0.052,-0.04 0.104,-0.08 0.1563,-0.125 4.7156,-3.755 10.6929,-6 17.1875,-6 6.3582,0 12.2047,2.171 16.875,5.781 0.053,0.04 0.1041,0.06 0.1562,0.09 0.053,0.04 0.1042,0.08 0.1563,0.125 1.4438,0.996 2.6063,1.951 4.8125,0.09 l 1.5625,-1.313 c -5.9632,-6.147 -14.3201,-9.968 -23.5625,-9.968 z"
                 id="path4366-5-5-5-9-6-4-92-6-1-3-6-8-4-5-2-0"
                 inkscape:connector-curvature="0" />
              <path
                 inkscape:connector-curvature="0"
                 style="color:#000000;fill:#b0b0b0;fill-opacity:1;fill-rule:nonzero;stroke:none;stroke-width:1.10000002;marker:none;visibility:visible;display:inline;overflow:visible;enable-background:accumulate"
                 d="m 1457.5,11178.875 c -21.8773,0 -39.6979,17.342 -40.4688,39.031 l 6.4063,0 c 0.7721,-18.142 15.7305,-32.625 34.0625,-32.625 18.3327,0 33.2933,14.478 34.0625,32.625 l 6.4063,0 c -0.7706,-21.692 -18.5927,-39.031 -40.4688,-39.031 z"
                 id="path4366-5-6-5-1-9-7-0-9-0-8-3-5-2-0-4" />
            </g>
            <g
               style="fill:#8d8d8d;fill-opacity:1;stroke:none"
               transform="translate(-355.32428,-126.12471)"
               id="g4407-6-1-3-9-45-3-0-05-9-7-5-83-7-5"
               inkscape:export-filename="C:\Users\jonescd\Desktop\CloudList\crowdplay_logo0.png"
               inkscape:export-xdpi="90"
               inkscape:export-ydpi="90">
              <path
                 inkscape:connector-curvature="0"
                 id="rect4387-3-9-8-2-0-6-2-4-4-6-9-2-2-5"
                 d="m 1418.3033,11206.25 5.6109,0 c 1.0773,0 1.9446,0.867 1.9446,1.945 l 0,22.36 c 0,1.078 -0.8673,1.945 -1.9446,1.945 l -5.6109,0 c -1.0773,0 -1.9445,-0.867 -1.9445,-1.945 l 0,-22.36 c 0,-1.078 0.8672,-1.945 1.9445,-1.945 z"
                 style="color:#000000;fill:#acacac;fill-opacity:1;stroke-width:1.10000002;marker:none;visibility:visible;display:inline;overflow:visible;enable-background:accumulate" />
              <path
                 inkscape:connector-curvature="0"
                 id="rect4387-9-0-0-9-5-3-24-8-1-7-4-7-83-1-3"
                 d="m 1424.4676,11203.3 c 2.6009,0 4.6948,2.094 4.6948,4.695 l 0,22.76 c 0,2.601 -2.0939,4.695 -4.6948,4.695 -2.601,0 -4.6949,-2.094 -4.6949,-4.695 l 0,-22.76 c 0,-2.601 2.0939,-4.695 4.6949,-4.695 z"
                 style="color:#000000;stroke-width:1.21027493;marker:none;visibility:visible;display:inline;overflow:visible;enable-background:accumulate" />
            </g>
            <g
               transform="matrix(0.97122088,0.68325084,-0.68325084,0.97122088,7359.1654,-819.12427)"
               id="g4544-0-2-3-5-2-58-3-35-5-5-8-2-9-2"
               inkscape:export-filename="C:\Users\jonescd\Desktop\CloudList\crowdplay_logo0.png"
               inkscape:export-xdpi="90"
               inkscape:export-ydpi="90">
              <g
                 transform="matrix(1.2029343,0,0,1.2029343,-303.47199,-2279.9051)"
                 id="g4644-8-8-4-3-9-8-1-73-6-9-3-5-9-5">
                <path
                   sodipodi:nodetypes="ccccccccccc"
                   inkscape:connector-curvature="0"
                   id="rect4513-1-7-8-3-46-3-7-1-4-7-6-2-9-6-3-2"
                   d="m 1494.6923,11230.515 -0.1091,0.202 0.085,0.255 -0.078,0.304 0,1.677 0.6746,0 -5e-4,-1.693 -0.1156,-0.318 0.088,-0.188 -0.1211,-0.261 z"
                   style="color:#000000;fill:#bbbbbb;fill-opacity:1;fill-rule:nonzero;stroke:none;stroke-width:1.10000002;marker:none;visibility:visible;display:inline;overflow:visible;enable-background:accumulate" />
              </g>
              <path
                 inkscape:connector-curvature="0"
                 id="rect4513-7-2-1-0-3-8-2-3-8-7-0-5-9-6-6"
                 d="m 1493.6747,11231.954 2.2539,0 0,5.005 -2.2539,0 z"
                 style="color:#000000;fill:#222222;fill-opacity:1;fill-rule:nonzero;stroke:none;stroke-width:1.10000002;marker:none;visibility:visible;display:inline;overflow:visible;enable-background:accumulate" />
              <path
                 inkscape:connector-curvature="0"
                 id="rect4513-1-3-4-6-7-0-1-1-42-0-2-5-2-7-8"
                 d="m 1493.8363,11234.832 1.9307,0 0,4.287 -1.9307,0 z"
                 style="color:#000000;fill:#424242;fill-opacity:1;fill-rule:nonzero;stroke:none;stroke-width:1.10000002;marker:none;visibility:visible;display:inline;overflow:visible;enable-background:accumulate" />
              <path
                 inkscape:connector-curvature="0"
                 id="rect4513-0-3-6-43-1-49-0-8-8-7-7-5-6-0"
                 d="m 1493.4979,11232.181 2.6075,0 0,5.789 -2.6075,0 z"
                 style="color:#000000;fill:#646464;fill-opacity:1;fill-rule:nonzero;stroke:none;stroke-width:1.10000002;marker:none;visibility:visible;display:inline;overflow:visible;enable-background:accumulate" />
            </g>
            <g
               transform="translate(-352.82298,-126.12471)"
               id="g4463-6-1-1-8-1-82-4-0-6-9-6-5-9-9"
               inkscape:export-filename="C:\Users\jonescd\Desktop\CloudList\crowdplay_logo0.png"
               inkscape:export-xdpi="90"
               inkscape:export-ydpi="90">
              <path
                 inkscape:connector-curvature="0"
                 id="rect4387-8-5-0-8-08-4-4-0-4-8-1-6-1-5-9"
                 d="m -1492.913,11206.25 5.6109,0 c 1.0773,0 1.9446,0.867 1.9446,1.945 l 0,22.36 c 0,1.078 -0.8673,1.945 -1.9446,1.945 l -5.6109,0 c -1.0773,0 -1.9445,-0.867 -1.9445,-1.945 l 0,-22.36 c 0,-1.078 0.8672,-1.945 1.9445,-1.945 z"
                 style="color:#000000;fill:#acacac;fill-opacity:1;stroke:none;stroke-width:1.10000002;marker:none;visibility:visible;display:inline;overflow:visible;enable-background:accumulate"
                 transform="scale(-1,1)" />
              <path
                 inkscape:connector-curvature="0"
                 id="rect4387-9-8-0-4-49-8-7-52-7-1-0-4-8-6-3-9"
                 d="m -1486.7487,11203.3 c 2.6009,0 4.6948,2.094 4.6948,4.695 l 0,22.76 c 0,2.601 -2.0939,4.695 -4.6948,4.695 -2.601,0 -4.6949,-2.094 -4.6949,-4.695 l 0,-22.76 c 0,-2.601 2.0939,-4.695 4.6949,-4.695 z"
                 style="color:#000000;fill:#848484;fill-opacity:1;stroke:none;stroke-width:1.21027493;marker:none;visibility:visible;display:inline;overflow:visible;enable-background:accumulate"
                 transform="scale(-1,1)" />
            </g>
          </g>
        </g>
      </g>
      <path
         transform="translate(1649.1193,2017.5054)"
         style="color:#000000;fill:#547b96;fill-opacity:1;fill-rule:nonzero;stroke:none;stroke-width:0.24476303;marker:none;visibility:visible;display:inline;overflow:visible;enable-background:accumulate"
         d="m 440.03125,11463.031 c 0.30859,0.785 0.66445,1.56 1.09375,2.313 4.81177,8.44 15.49928,11.372 23.9375,6.562 2.79871,-1.595 5.003,-3.868 6.53125,-6.468 -0.45968,-1.37 -0.85013,-2.347 -1.03125,-2.407 l -30.53125,0 z"
         id="path6027-5-0-4-5-3-19-9-7-2-2-7-4-8-5-1-4-6-0-4-9-9-6-0-1-3-9-0-0"
         inkscape:connector-curvature="0"
         clip-path="url(#clipPath3808-2-8-1-1-9-4-9-7-9-9-0-8-9-2)" />
      <path
         sodipodi:nodetypes="sssccs"
         inkscape:connector-curvature="0"
         style="color:#000000;fill:#698eab;fill-opacity:1;fill-rule:nonzero;stroke:none;stroke-width:0.24476303;marker:none;visibility:visible;display:inline;overflow:visible;enable-background:accumulate"
         d="m 2105.5739,13452.22 c -9.7161,0 -17.5462,7.832 -17.5462,17.545 0,9.725 7.8301,17.73 17.5462,17.73 2.6563,0 5.1448,-0.746 7.4168,-1.811 1.0054,-7.225 4.7847,-13.476 10.1298,-17.91 -0.9979,-8.775 -8.5015,-15.554 -17.5466,-15.554 z"
         id="path6027-5-0-4-5-3-19-9-7-2-2-7-4-8-5-1-37-6-3-9-0-5-0-8-8-8-7-2" />
      <path
         transform="translate(1649.1193,2017.5054)"
         style="color:#000000;fill:#7997ac;fill-opacity:1;fill-rule:nonzero;stroke:none;stroke-width:0.24476303;marker:none;visibility:visible;display:inline;overflow:visible;enable-background:accumulate"
         d="m 465.53125,11479.344 c 4.24112,10.667 14.6286,18.218 26.8125,18.218 12.18301,0 22.60948,-7.551 26.875,-18.218 l -53.6875,0 z"
         id="path6027-5-0-4-5-3-19-9-7-8-4-5-9-4-7-9-8-8-9-8-8-83-9-5-8-9-1-0"
         inkscape:connector-curvature="0"
         clip-path="url(#clipPath3737-7-5-0-1-4-2-5-6-7-6-15-5-6-2)" />
      <path
         sodipodi:nodetypes="sssss"
         inkscape:connector-curvature="0"
         id="path6027-5-0-4-5-3-19-9-7-8-4-5-9-4-7-82-1-9-3-1-7-8-6-4-6-4-2"
         d="m 2141.4574,13451.143 c -15.9751,0 -28.8511,12.885 -28.8511,28.856 0,15.982 12.876,28.937 28.8511,28.937 15.9739,0 28.9385,-12.955 28.9385,-28.937 0,-15.965 -12.9732,-28.856 -28.9385,-28.856 z"
         style="color:#000000;fill:#93afc3;fill-opacity:1;fill-rule:nonzero;stroke:none;stroke-width:0.24476303;marker:none;visibility:visible;display:inline;overflow:visible;enable-background:accumulate" />
      <g
         transform="matrix(0.98359366,-0.27636536,0.27636536,0.98359366,-2645.1948,2936.4167)"
         id="g16715-5-2-2-2">
        <path
           id="path17018-0-28-7"
           d="m 1765.0946,11255.973 -71.902,-4.078 4.067,-3.21 -6.206,-4.316 -6.582,7.054 -0.09,-0.03 -0.08,0.119 -3.454,62.633 82.139,2.851 c 0,0 0.05,0.01 0.05,0.01 l 6.528,-7.217 -4.137,-3.932 c 0,0 -1.382,0.903 -2.12,1.383 l 1.796,-51.278 z"
           style="fill:#71382d;fill-opacity:1;stroke:none"
           inkscape:connector-curvature="0" />
        <path
           inkscape:connector-curvature="0"
           id="rect16709-5-3-4-8"
           transform="matrix(1.4668353,0.41214426,-0.41214426,1.4668353,15633.008,-23590.123)"
           d="m -2573.1875,24474.125 -51.8125,11.437 -0.031,0.09 8.9374,40.188 52.4063,-12.782 -9.5,-38.937 z"
           style="fill:#a35141;fill-opacity:1" />
        <g
           transform="matrix(0.99845453,0.05557466,-0.05557466,0.99845453,0,0)"
           style="font-size:56.8098793px;font-style:normal;font-weight:normal;line-height:125%;letter-spacing:0px;word-spacing:0px;fill:#ffffff;fill-opacity:1;stroke:none;font-family:Sans"
           id="text16711-0-18-3-2">
          <path
             d="m 2322.9431,11141.27 c 2.5375,0.08 4.6773,0.569 6.4195,1.478 1.7421,0.909 3.1435,2.12 4.2039,3.635 1.0605,1.477 1.8179,3.201 2.2724,5.17 0.4924,1.969 0.7385,4.053 0.7385,6.249 0,3.371 -0.6059,6.211 -1.8179,8.522 -1.2119,2.31 -2.7458,4.128 -4.6016,5.453 l 0,0.171 c 1.8179,0.303 3.2192,1.041 4.204,2.215 1.0225,1.137 1.5338,2.481 1.5338,4.034 0,1.136 -0.1894,2.197 -0.5681,3.181 -0.3787,0.947 -1.0604,1.78 -2.0451,2.5 -0.9469,0.682 -2.2535,1.231 -3.9199,1.647 -1.6664,0.417 -3.8063,0.625 -6.4195,0.625 l 0,-44.88 m 3.579,30.28 c 2.1966,-1.591 3.8252,-3.408 4.8856,-5.454 1.0605,-2.083 1.5907,-4.658 1.5907,-7.726 0,-1.515 -0.1325,-3.011 -0.3976,-4.488 -0.2273,-1.477 -0.606,-2.802 -1.1362,-3.976 -0.5303,-1.212 -1.212,-2.235 -2.0452,-3.068 -0.7953,-0.833 -1.7611,-1.401 -2.8973,-1.704 l 0,26.416 m 0,11.305 c 2.0451,0 3.5222,-0.435 4.4312,-1.306 0.9468,-0.909 1.4202,-1.97 1.4202,-3.182 0,-0.492 -0.1136,-0.965 -0.3408,-1.42 -0.1894,-0.492 -0.4924,-0.928 -0.909,-1.307 -0.3787,-0.416 -0.8522,-0.738 -1.4202,-0.965 -0.5682,-0.265 -1.2309,-0.398 -1.9884,-0.398 -0.1894,0 -0.3977,0.02 -0.6249,0.06 -0.1894,0 -0.3787,0.02 -0.5681,0.06 l 0,8.464"
             style="font-variant:normal;font-weight:bold;font-stretch:normal;fill:#ffffff;font-family:Breamcatcher;-inkscape-font-specification:Breamcatcher Bold"
             id="path21252" />
          <path
             d="m 2342.4715,11185.866 0,-44.255 9.1464,0 0,3.579 -5.5106,0 0,26.871 5.3969,0 0,2.727 -5.3969,0 0,7.67 6.0219,0 0,3.408 -9.6577,0"
             style="font-variant:normal;font-weight:bold;font-stretch:normal;fill:#ffffff;font-family:Breamcatcher;-inkscape-font-specification:Breamcatcher Bold"
             id="path21254" />
          <path
             d="m 2360.1589,11185.866 0,-40.676 -4.7152,0 0,-3.579 12.8958,0 0,3.579 -4.6016,0 0,40.676 -3.579,0"
             style="font-variant:normal;font-weight:bold;font-stretch:normal;fill:#ffffff;font-family:Breamcatcher;-inkscape-font-specification:Breamcatcher Bold"
             id="path21256" />
          <path
             d="m 2380.8616,11174.788 -6.3059,0 -1.9315,11.078 -3.5222,0 8.8623,-46.3 8.4647,46.3 -3.6358,0 -1.9316,-11.078 m -5.8514,-2.727 5.397,0 -2.5565,-14.884 -0.2272,0 -2.6133,14.884"
             style="font-variant:normal;font-weight:bold;font-stretch:normal;fill:#ffffff;font-family:Breamcatcher;-inkscape-font-specification:Breamcatcher Bold"
             id="path21258" />
        </g>
      </g>
    </g>
  </g>
</svg>
