<?xml version="1.0" encoding="UTF-8" standalone="no"?>
<!-- Created with Inkscape (http://www.inkscape.org/) -->

<svg
   xmlns:dc="http://purl.org/dc/elements/1.1/"
   xmlns:cc="http://creativecommons.org/ns#"
   xmlns:rdf="http://www.w3.org/1999/02/22-rdf-syntax-ns#"
   xmlns:svg="http://www.w3.org/2000/svg"
   xmlns="http://www.w3.org/2000/svg"
   xmlns:xlink="http://www.w3.org/1999/xlink"
   xmlns:sodipodi="http://sodipodi.sourceforge.net/DTD/sodipodi-0.dtd"
   xmlns:inkscape="http://www.inkscape.org/namespaces/inkscape"
   width="789.02979"
   height="209.11635"
   id="svg2"
   version="1.1"
   inkscape:version="0.48.4 r9939"
   sodipodi:docname="maintain_2.svg">
  <defs
     id="defs4">
    <clipPath
       clipPathUnits="userSpaceOnUse"
       id="clipPath3786-8-7-09-3-58-9-3-5-2-06">
      <path
         id="path3788-6-7-4-3-3-5-6-2-5-0"
         d="m 437.82312,11466.551 c -9.02138,0 -12.48175,7.253 -12.48175,16.277 l 0,6.153 c 0,2.617 1.22716,5.841 5.96969,6.148 4.03516,0.231 10.92927,0.347 18.27026,0.347 3.66007,-4.526 17.50849,-9.047 24.28509,-9.047 l 2.53247,0 c -0.31836,-1.748 -5.01284,-19.617 -5.8487,-19.895 l -32.72706,0 z"
         style="color:#000000;fill:#698eab;fill-opacity:1;fill-rule:nonzero;stroke:none;stroke-width:0.24476303;marker:none;visibility:visible;display:inline;overflow:visible;enable-background:accumulate"
         inkscape:connector-curvature="0"
         sodipodi:nodetypes="cssccscccc" />
    </clipPath>
    <linearGradient
       inkscape:collect="always"
       xlink:href="#linearGradient5187-7-9-1-3-8-4-4-4-93-1-1-28"
       id="linearGradient18577-9"
       gradientUnits="userSpaceOnUse"
       x1="1766.3528"
       y1="11764.019"
       x2="1789.3842"
       y2="11764.019" />
    <linearGradient
       id="linearGradient5187-7-9-1-3-8-4-4-4-93-1-1-28">
      <stop
         style="stop-color:#8d8d8d;stop-opacity:1;"
         offset="0"
         id="stop5189-2-3-3-1-3-5-8-0-76-5-2-44" />
      <stop
         style="stop-color:#aaaaaa;stop-opacity:1;"
         offset="1"
         id="stop5191-2-19-5-9-5-6-3-3-3-9-3-4" />
    </linearGradient>
    <clipPath
       clipPathUnits="userSpaceOnUse"
       id="clipPath3808-2-8-1-1-9-4-9-7-9-47">
      <path
         sodipodi:nodetypes="cssccscccc"
         inkscape:connector-curvature="0"
         style="color:#000000;fill:#698eab;fill-opacity:1;fill-rule:nonzero;stroke:none;stroke-width:0.24476303;marker:none;visibility:visible;display:inline;overflow:visible;enable-background:accumulate"
         d="m 437.82312,11466.551 c -9.02138,0 -12.48175,7.253 -12.48175,16.277 l 0,6.153 c 0,2.616 1.22716,5.841 5.96969,6.147 4.03516,0.232 10.92927,0.348 18.27026,0.348 3.66007,-4.527 17.50849,-9.048 24.28509,-9.048 l 2.53247,0 c -0.31836,-1.748 -5.01284,-19.617 -5.8487,-19.895 l -32.72706,0 z"
         id="path3810-7-6-2-2-76-1-10-5-0-0" />
    </clipPath>
    <clipPath
       clipPathUnits="userSpaceOnUse"
       id="clipPath3737-7-5-0-1-4-2-5-6-7-1">
      <path
         sodipodi:nodetypes="sssscssssss"
         inkscape:connector-curvature="0"
         id="path3739-4-0-1-9-5-2-8-5-3-3"
         d="m 461.72791,11483.1 c -14.83015,0.06 -20.73616,14.79 -20.73616,29.62 l 0,10.008 c 0,4.307 2.13885,9.54 9.93539,10.043 17.54323,1.129 66.22282,0.678 82.1661,-0.521 9.2373,0.521 10.67864,-6.28 10.67864,-10.077 l 0,-9.447 c 0,-14.836 -5.90659,-29.626 -20.73617,-29.626 l -3.60682,0 c -19.21147,0 -37.96391,0 -54.09474,0 z"
         style="color:#000000;fill:#93afc3;fill-opacity:1;fill-rule:nonzero;stroke:none;stroke-width:0.24476303;marker:none;visibility:visible;display:inline;overflow:visible;enable-background:accumulate" />
    </clipPath>
    <linearGradient
       inkscape:collect="always"
       xlink:href="#linearGradient5026-2-81-6-4-4-1-8-1-64"
       id="linearGradient18565-3"
       gradientUnits="userSpaceOnUse"
       x1="1010.2803"
       y1="11109.737"
       x2="1007.9489"
       y2="11067.737" />
    <linearGradient
       id="linearGradient5026-2-81-6-4-4-1-8-1-64">
      <stop
         style="stop-color:#a8a8a8;stop-opacity:1;"
         offset="0"
         id="stop5028-4-8-4-8-4-71-0-5-8" />
      <stop
         style="stop-color:#bcbcbc;stop-opacity:1;"
         offset="1"
         id="stop5030-5-2-5-6-2-3-0-9-6" />
    </linearGradient>
    <linearGradient
       inkscape:collect="always"
       xlink:href="#linearGradient5026-2-81-6-4-4-1-8-1-64"
       id="linearGradient18563-9"
       gradientUnits="userSpaceOnUse"
       x1="1010.2803"
       y1="11109.737"
       x2="1007.9489"
       y2="11067.737" />
    <linearGradient
       id="linearGradient30275">
      <stop
         style="stop-color:#a8a8a8;stop-opacity:1;"
         offset="0"
         id="stop30277" />
      <stop
         style="stop-color:#bcbcbc;stop-opacity:1;"
         offset="1"
         id="stop30279" />
    </linearGradient>
    <linearGradient
       inkscape:collect="always"
       xlink:href="#linearGradient5034-1-01-3-6-2-4-6-9-3"
       id="linearGradient18575-8"
       gradientUnits="userSpaceOnUse"
       x1="1197.5093"
       y1="11091.737"
       x2="1342.941"
       y2="11091.737" />
    <linearGradient
       id="linearGradient5034-1-01-3-6-2-4-6-9-3">
      <stop
         style="stop-color:#f4f4f4;stop-opacity:1;"
         offset="0"
         id="stop5036-7-2-8-35-7-2-4-5-3" />
      <stop
         style="stop-color:#ffffff;stop-opacity:1;"
         offset="1"
         id="stop5038-1-5-7-6-7-4-9-9-5" />
    </linearGradient>
    <linearGradient
       inkscape:collect="always"
       xlink:href="#linearGradient5034-1-01-3-6-2-4-6-9-3"
       id="linearGradient18567-9"
       gradientUnits="userSpaceOnUse"
       x1="1197.5093"
       y1="11091.737"
       x2="1342.941"
       y2="11091.737" />
    <linearGradient
       id="linearGradient30286">
      <stop
         style="stop-color:#f4f4f4;stop-opacity:1;"
         offset="0"
         id="stop30288" />
      <stop
         style="stop-color:#ffffff;stop-opacity:1;"
         offset="1"
         id="stop30290" />
    </linearGradient>
    <linearGradient
       inkscape:collect="always"
       xlink:href="#linearGradient5034-1-01-3-6-2-4-6-9-3"
       id="linearGradient18569-4"
       gradientUnits="userSpaceOnUse"
       x1="1197.5093"
       y1="11091.737"
       x2="1342.941"
       y2="11091.737" />
    <linearGradient
       id="linearGradient30293">
      <stop
         style="stop-color:#f4f4f4;stop-opacity:1;"
         offset="0"
         id="stop30295" />
      <stop
         style="stop-color:#ffffff;stop-opacity:1;"
         offset="1"
         id="stop30297" />
    </linearGradient>
    <linearGradient
       inkscape:collect="always"
       xlink:href="#linearGradient5034-1-01-3-6-2-4-6-9-3"
       id="linearGradient18571-4"
       gradientUnits="userSpaceOnUse"
       x1="1197.5093"
       y1="11091.737"
       x2="1342.941"
       y2="11091.737" />
    <linearGradient
       id="linearGradient30300">
      <stop
         style="stop-color:#f4f4f4;stop-opacity:1;"
         offset="0"
         id="stop30302" />
      <stop
         style="stop-color:#ffffff;stop-opacity:1;"
         offset="1"
         id="stop30304" />
    </linearGradient>
    <linearGradient
       inkscape:collect="always"
       xlink:href="#linearGradient5034-1-01-3-6-2-4-6-9-3"
       id="linearGradient18573-6"
       gradientUnits="userSpaceOnUse"
       x1="1197.5093"
       y1="11091.737"
       x2="1342.941"
       y2="11091.737" />
    <linearGradient
       id="linearGradient30307">
      <stop
         style="stop-color:#f4f4f4;stop-opacity:1;"
         offset="0"
         id="stop30309" />
      <stop
         style="stop-color:#ffffff;stop-opacity:1;"
         offset="1"
         id="stop30311" />
    </linearGradient>
    <linearGradient
       y2="11091.737"
       x2="1342.941"
       y1="11091.737"
       x1="1197.5093"
       gradientUnits="userSpaceOnUse"
       id="linearGradient30394"
       xlink:href="#linearGradient5034-1-01-3-6-2-4-6-9-3"
       inkscape:collect="always" />
  </defs>
  <sodipodi:namedview
     id="base"
     pagecolor="#ffffff"
     bordercolor="#666666"
     borderopacity="1.0"
     inkscape:pageopacity="0.0"
     inkscape:pageshadow="2"
     inkscape:zoom="0.24748737"
     inkscape:cx="574.73051"
     inkscape:cy="35.207548"
     inkscape:document-units="px"
     inkscape:current-layer="layer1"
     showgrid="false"
     inkscape:window-width="472"
     inkscape:window-height="383"
     inkscape:window-x="65"
     inkscape:window-y="24"
     inkscape:window-maximized="0"
     fit-margin-top="0"
     fit-margin-left="0"
     fit-margin-right="0"
     fit-margin-bottom="0" />
  <metadata
     id="metadata7">
    <rdf:RDF>
      <cc:Work
         rdf:about="">
        <dc:format>image/svg+xml</dc:format>
        <dc:type
           rdf:resource="http://purl.org/dc/dcmitype/StillImage" />
        <dc:title></dc:title>
      </cc:Work>
    </rdf:RDF>
  </metadata>
  <g
     inkscape:label="Layer 1"
     inkscape:groupmode="layer"
     id="layer1"
     transform="translate(19.514863,-427.80383)">
    <g
       transform="matrix(1.933135,0,0,1.933135,-1826.5715,-20885.974)"
       id="g4935-5-9-1-1-8-14-9-8-5">
      <g
         id="g5019-2-8-0-4-2-3-0-8-16"
         style="fill:url(#linearGradient18565-3);fill-opacity:1"
         inkscape:export-filename="C:\Users\jonescd\Desktop\CloudList\crowdplay_logo0.png"
         inkscape:export-xdpi="90"
         inkscape:export-ydpi="90">
        <g
           transform="translate(-44.547727,0)"
           id="text4673-3-8-3-0-3-3-2-7-06"
           style="font-size:60.04922485px;font-style:normal;font-variant:normal;font-weight:normal;font-stretch:normal;line-height:125%;letter-spacing:0px;word-spacing:0px;fill:url(#linearGradient18563-9);fill-opacity:1;stroke:none;font-family:Roboto;-inkscape-font-specification:Roboto">
          <path
             inkscape:connector-curvature="0"
             id="path4931-3-0-2-6-0-2-1-4-1"
             d="m 1013.7802,11098.686 c -0.2933,4.926 -1.9157,8.66 -4.8673,11.201 -2.9517,2.541 -7.1446,3.812 -12.57868,3.812 -5.33642,0 -9.50487,-1.579 -12.50537,-4.736 -3.00051,-3.156 -4.50076,-7.413 -4.50076,-12.769 l 0,-8.913 c 0,-5.278 1.53935,-9.515 4.61805,-12.711 3.07868,-3.196 7.20804,-4.794 12.38808,-4.794 5.51228,0 9.69058,1.295 12.53468,3.885 2.8441,2.59 4.5007,6.377 4.9699,11.362 l -9.8811,0 c -0.1369,-2.619 -0.7673,-4.545 -1.8912,-5.776 -1.124,-1.232 -3.03478,-1.848 -5.73228,-1.848 -2.28705,0 -4.0463,0.885 -5.27776,2.654 -1.23149,1.769 -1.84723,4.159 -1.84722,7.169 l 0,8.972 c -10e-6,3.108 0.57174,5.532 1.71527,7.272 1.1435,1.739 2.94674,2.609 5.40971,2.609 2.50203,0 4.35418,-0.596 5.55628,-1.788 1.2022,-1.193 1.8717,-3.059 2.0085,-5.601 z"
             style="fill:#a6a6a6;fill-opacity:1" />
          <path
             sodipodi:nodetypes="ccccscsccccccscccssccccscscscc"
             inkscape:connector-curvature="0"
             id="path4933-4-8-5-1-6-1-9-4-1"
             d="m 1028.8218,11096.722 0,16.361 -9.9398,0 0,-42.691 17.4166,0 c 5.0041,0 8.7718,1.07 11.3032,3.21 2.5314,2.141 3.7971,5.264 3.7971,9.368 0,2.463 -0.65,4.447 -1.9498,5.953 -1.3,1.505 -3.2107,2.726 -5.7323,3.665 l 0.029,0.09 c 2.6389,0.742 4.5008,1.969 5.5857,3.679 1.0848,1.711 1.6272,3.905 1.6273,6.583 l 0,2.697 c -1e-4,1.115 0.2126,2.325 0.4838,3.666 0.3432,1.697 0.7446,2.634 1.1821,3.782 l -10.1744,0 c -0.3913,-0.751 -0.7423,-1.71 -1.0062,-3.255 -0.2639,-1.544 -0.3958,-2.961 -0.3958,-4.251 l 0,-2.58 c 0,-2.111 -0.4643,-3.685 -1.3927,-4.721 -0.9286,-1.036 -2.4386,-1.554 -4.5301,-1.554 z m 0,-7.623 6.5386,0 c 2.0328,0 3.5673,-0.445 4.6033,-1.335 1.036,-0.889 1.554,-2.204 1.554,-3.943 0,-1.799 -0.4838,-3.216 -1.4513,-4.252 -0.9677,-1.036 -2.4484,-1.554 -4.4422,-1.554 l -6.8024,0 z"
             style="fill:#a6a6a6;fill-opacity:1" />
        </g>
        <g
           style="font-size:60.04922485px;font-style:normal;font-variant:normal;font-weight:normal;font-stretch:normal;line-height:125%;letter-spacing:0px;word-spacing:0px;fill:#a6a6a6;stroke:none;font-family:Roboto;-inkscape-font-specification:Roboto"
           id="text4673-1-1-7-0-2-5-9-8-6-05">
          <path
             d="m 1136.3194,11097.865 0.088,0 4.8379,-27.473 9.5,0 -8.8842,42.691 -9.2068,0 -6.3333,-25.656 -0.088,0 -6.304,25.656 -9.2067,0 -8.9136,-42.691 9.5293,0 4.838,27.503 0.088,0 6.6559,-27.503 6.7145,0 z"
             style="fill:#a6a6a6"
             id="path14877-5-7"
             inkscape:connector-curvature="0" />
          <path
             d="m 1155.7006,11113.083 0,-42.691 14.1033,0 c 6.0401,0 10.8243,1.696 14.3526,5.087 3.5282,3.391 5.2924,7.922 5.2924,13.59 l 0,5.337 c 0,5.688 -1.7593,10.223 -5.2777,13.604 -3.5186,3.382 -8.2881,5.073 -14.3086,5.073 z m 9.9397,-35.068 0,27.445 3.5772,0 c 3.6162,0 6.2404,-0.963 7.8727,-2.889 1.6321,-1.925 2.4482,-4.647 2.4483,-8.165 l 0,-5.395 c -1e-4,-3.499 -0.8162,-6.207 -2.4483,-8.122 -1.6323,-1.916 -4.2858,-2.874 -7.9607,-2.874 z"
             style="fill:#a6a6a6"
             id="path14879-7-1"
             inkscape:connector-curvature="0" />
        </g>
      </g>
      <g
         style="font-size:60.04922485px;font-style:normal;font-variant:normal;font-weight:normal;font-stretch:normal;line-height:125%;letter-spacing:0px;word-spacing:0px;fill:url(#linearGradient30394);fill-opacity:1;stroke:none;font-family:Roboto;-inkscape-font-specification:Roboto"
         id="text4673-1-2-3-83-2-4-9-9-0-2-3">
        <path
           d="m 1207.4491,11098.452 0,14.631 -9.9398,0 0,-42.691 17.3287,0 c 5.1604,0 9.2018,1.27 12.1242,3.811 2.9223,2.542 4.3834,5.953 4.3835,10.233 -10e-5,4.281 -1.4612,7.687 -4.3835,10.219 -2.9224,2.531 -6.9638,3.797 -12.1242,3.797 z m 0,-7.624 7.3889,0 c 2.1893,0 3.8361,-0.581 4.9406,-1.744 1.1044,-1.163 1.6566,-2.693 1.6566,-4.589 0,-1.935 -0.5474,-3.499 -1.642,-4.691 -1.0946,-1.193 -2.7464,-1.789 -4.9552,-1.789 l -7.3889,0 z"
           id="path14882-6-9"
           inkscape:connector-curvature="0"
           style="fill:url(#linearGradient18567-9)" />
        <path
           d="m 1246.8564,11105.46 18.3842,0 0,7.623 -28.324,0 0,-42.691 9.9398,0 z"
           id="path14884-2-25"
           inkscape:connector-curvature="0"
           style="fill:url(#linearGradient18569-4)" />
        <path
           d="m 1292.0693,11104.785 -13.5756,0 -2.3164,8.298 -9.9398,0 13.7222,-42.691 10.6728,0 13.7809,42.691 -9.9691,0 z m -11.4352,-7.623 9.2947,0 -4.6327,-16.332 -0.088,0 z"
           id="path14886-3-7"
           inkscape:connector-curvature="0"
           style="fill:url(#linearGradient18571-4)" />
        <path
           d="m 1323.5893,11089.245 8.591,-18.853 10.7608,0 -14.5139,27.679 0,15.012 -9.8811,0 0,-15.511 -14.2207,-27.18 10.7021,0 z"
           id="path14888-6-8"
           inkscape:connector-curvature="0"
           style="fill:url(#linearGradient18573-6)" />
      </g>
    </g>
    <g
       transform="matrix(1.7113353,0,0,1.7113353,-1526.4115,-18482.989)"
       id="g4744-7-3-6-5-2-5-3-9-2"
       inkscape:export-filename="C:\Users\jonescd\Desktop\CloudList\crowdplay_logo0.png"
       inkscape:export-xdpi="90"
       inkscape:export-ydpi="90">
      <g
         style="font-size:18.88660431px;font-style:normal;font-variant:normal;font-weight:normal;font-stretch:normal;line-height:125%;letter-spacing:0px;word-spacing:0px;fill:#c5c5c5;fill-opacity:1;stroke:none;font-family:Roboto;-inkscape-font-specification:Roboto"
         id="text4719-4-71-3-2-2-5-0-2-1">
        <path
           d="m 1075.6897,11167.237 c 0.123,0 0.249,0 0.3781,-0.01 0.1291,0 0.2613,-0.03 0.3966,-0.06 l 0,1.457 c -0.1906,0.05 -0.3843,0.08 -0.581,0.102 -0.1968,0.02 -0.4119,0.03 -0.6456,0.03 -0.498,0 -0.9053,-0.06 -1.2219,-0.166 -0.3166,-0.11 -0.5656,-0.276 -0.747,-0.498 -0.1813,-0.221 -0.3043,-0.499 -0.3688,-0.834 -0.065,-0.335 -0.097,-0.727 -0.097,-1.176 l 0,-4.989 -1.1527,0 0,-1.513 1.1527,0 0,-2.25 2.0196,0 0,2.25 1.4663,0 0,1.513 -1.4663,0 0,4.74 c 0,0.295 0.02,0.535 0.06,0.719 0.04,0.185 0.097,0.328 0.1706,0.429 0.074,0.101 0.1644,0.171 0.272,0.207 0.1076,0.04 0.229,0.06 0.3643,0.06 z"
           style="font-weight:bold;word-spacing:-2.14068913px;fill:#c5c5c5;font-family:Shruti;-inkscape-font-specification:Shruti Bold"
           id="path14891-5-3"
           inkscape:connector-curvature="0" />
        <path
           d="m 1079.775,11158.384 c 0,0.399 0,0.791 -0.01,1.176 -0.01,0.384 -0.01,0.766 -0.01,1.148 0.8238,-0.898 1.7429,-1.347 2.7574,-1.347 2.0411,0 3.0617,1.11 3.0617,3.329 l 0,5.93 -2.0196,0 0,-5.782 c -10e-5,-0.332 -0.026,-0.615 -0.078,-0.848 -0.052,-0.234 -0.1368,-0.425 -0.2536,-0.572 -0.1169,-0.148 -0.269,-0.255 -0.4565,-0.323 -0.1875,-0.07 -0.4166,-0.101 -0.6871,-0.101 -0.3873,0 -0.7715,0.1 -1.1527,0.299 -0.3812,0.2 -0.7654,0.527 -1.1528,0.982 l 0,6.345 -2.0196,0 0,-12.505 2.0196,0 z"
           style="font-weight:bold;word-spacing:-2.14068913px;fill:#c5c5c5;font-family:Shruti;-inkscape-font-specification:Shruti Bold"
           id="path14893-8-1"
           inkscape:connector-curvature="0" />
        <path
           d="m 1091.9019,11168.832 c -0.7193,0 -1.3617,-0.109 -1.9274,-0.327 -0.5656,-0.218 -1.042,-0.532 -1.4294,-0.941 -0.3873,-0.409 -0.6824,-0.907 -0.8853,-1.494 -0.2029,-0.587 -0.3043,-1.249 -0.3043,-1.987 0,-0.738 0.1014,-1.399 0.3043,-1.983 0.2029,-0.584 0.4949,-1.079 0.8761,-1.485 0.3812,-0.405 0.8423,-0.716 1.3833,-0.931 0.541,-0.215 1.1528,-0.323 1.8352,-0.323 0.6701,0 1.2757,0.103 1.8167,0.309 0.541,0.206 1.0037,0.509 1.3879,0.909 0.3843,0.399 0.6794,0.891 0.8853,1.475 0.206,0.584 0.309,1.254 0.309,2.01 l 0,0.48 -6.7044,0 c 0.025,0.498 0.1045,0.927 0.2398,1.286 0.1352,0.36 0.312,0.657 0.5302,0.89 0.2183,0.234 0.4719,0.408 0.7608,0.521 0.289,0.114 0.6025,0.171 0.9407,0.171 0.252,0 0.4934,-0.03 0.7239,-0.08 0.2306,-0.06 0.438,-0.143 0.6225,-0.263 0.1844,-0.12 0.3397,-0.273 0.4657,-0.461 0.126,-0.187 0.2075,-0.416 0.2444,-0.687 l 1.9827,0 c -0.074,0.467 -0.2259,0.882 -0.4565,1.245 -0.2305,0.363 -0.5226,0.667 -0.8761,0.913 -0.3535,0.246 -0.7608,0.433 -1.2219,0.563 -0.4611,0.129 -0.9621,0.193 -1.5032,0.193 z m 2.1764,-5.653 c -0.055,-0.43 -0.1491,-0.799 -0.2812,-1.106 -0.1322,-0.308 -0.2982,-0.561 -0.498,-0.761 -0.1998,-0.2 -0.4304,-0.348 -0.6917,-0.443 -0.2613,-0.1 -0.5456,-0.143 -0.853,-0.143 -0.5902,0 -1.0897,0.203 -1.4986,0.609 -0.4088,0.406 -0.6655,1.02 -0.77,1.844 z"
           style="font-weight:bold;word-spacing:-2.14068913px;fill:#c5c5c5;font-family:Shruti;-inkscape-font-specification:Shruti Bold"
           id="path14895-9-3"
           inkscape:connector-curvature="0" />
        <path
           d="m 1106.453,11168.832 c -1.2911,0 -2.264,-0.244 -2.9187,-0.733 -0.6548,-0.489 -1.016,-1.216 -1.0836,-2.181 l 1.9458,0 c 0.018,1.033 0.6978,1.549 2.0381,1.549 0.5963,0 1.0544,-0.121 1.3741,-0.364 0.3196,-0.243 0.4795,-0.549 0.4795,-0.917 0,-0.24 -0.08,-0.435 -0.2398,-0.586 -0.1598,-0.151 -0.3719,-0.278 -0.6363,-0.383 -0.2644,-0.104 -0.5641,-0.197 -0.8991,-0.276 -0.3351,-0.08 -0.6779,-0.166 -1.0283,-0.259 -0.3504,-0.09 -0.6932,-0.201 -1.0282,-0.327 -0.3351,-0.126 -0.6348,-0.289 -0.8992,-0.489 -0.2643,-0.2 -0.4764,-0.446 -0.6363,-0.738 -0.1598,-0.292 -0.2398,-0.653 -0.2398,-1.083 0,-0.394 0.082,-0.755 0.2444,-1.084 0.1629,-0.329 0.3966,-0.611 0.7009,-0.848 0.3043,-0.237 0.6763,-0.421 1.1158,-0.553 0.4396,-0.133 0.9361,-0.199 1.4894,-0.199 1.2234,0 2.1441,0.219 2.762,0.655 0.6178,0.437 0.9421,1.082 0.9729,1.937 l -1.9182,0 c -0.049,-0.818 -0.6301,-1.227 -1.7429,-1.227 -0.2337,0 -0.4534,0.02 -0.6594,0.07 -0.206,0.05 -0.3842,0.12 -0.5349,0.212 -0.1506,0.09 -0.2689,0.207 -0.355,0.346 -0.086,0.138 -0.1291,0.293 -0.1291,0.466 0,0.153 0.022,0.285 0.065,0.396 0.043,0.111 0.143,0.214 0.2997,0.309 0.1568,0.09 0.3874,0.191 0.6917,0.286 0.3043,0.09 0.7147,0.204 1.2311,0.327 0.5841,0.154 1.0867,0.306 1.5078,0.457 0.4211,0.15 0.7654,0.329 1.0329,0.535 0.2674,0.206 0.4641,0.452 0.5902,0.737 0.126,0.286 0.189,0.641 0.189,1.066 0,0.418 -0.08,0.803 -0.2397,1.157 -0.1599,0.353 -0.3981,0.659 -0.7147,0.917 -0.3167,0.259 -0.7101,0.46 -1.1805,0.605 -0.4703,0.144 -1.019,0.216 -1.6461,0.216 z"
           style="font-weight:bold;word-spacing:-2.14068913px;fill:#c5c5c5;font-family:Shruti;-inkscape-font-specification:Shruti Bold"
           id="path14897-0-4"
           inkscape:connector-curvature="0" />
        <path
           d="m 1119.4837,11168.62 -2.0196,0 0,-5.782 c 0,-0.363 -0.026,-0.662 -0.078,-0.899 -0.052,-0.237 -0.1307,-0.426 -0.2352,-0.567 -0.1045,-0.142 -0.2367,-0.24 -0.3965,-0.295 -0.1599,-0.06 -0.3474,-0.08 -0.5626,-0.08 -0.3689,0 -0.727,0.103 -1.0743,0.308 -0.3474,0.206 -0.6932,0.531 -1.0375,0.973 l 0,6.345 -2.0196,0 0,-9.047 1.9827,0 0,1.153 c 0.7808,-0.91 1.6507,-1.365 2.6098,-1.365 1.3341,0 2.1887,0.544 2.5637,1.633 0.2029,-0.234 0.4089,-0.451 0.6179,-0.651 0.209,-0.199 0.4273,-0.372 0.6548,-0.516 0.2274,-0.145 0.4703,-0.258 0.7285,-0.341 0.2582,-0.08 0.5349,-0.125 0.83,-0.125 1.8935,0 2.8403,1.11 2.8404,3.329 l 0,5.93 -2.0289,0 0,-5.782 c 0,-0.363 -0.026,-0.662 -0.078,-0.899 -0.052,-0.237 -0.1306,-0.426 -0.2351,-0.567 -0.1046,-0.142 -0.2367,-0.24 -0.3966,-0.295 -0.1598,-0.06 -0.3443,-0.08 -0.5533,-0.08 -0.3689,0 -0.7255,0.103 -1.0697,0.308 -0.3443,0.206 -0.6917,0.531 -1.0421,0.973 z"
           style="font-weight:bold;word-spacing:-2.14068913px;fill:#c5c5c5;font-family:Shruti;-inkscape-font-specification:Shruti Bold"
           id="path14899-1-5"
           inkscape:connector-curvature="0" />
        <path
           d="m 1132.8463,11164.35 -0.9775,0 c -1.0513,0 -1.8429,0.142 -2.3747,0.425 -0.5318,0.282 -0.7977,0.722 -0.7977,1.318 0,0.437 0.1568,0.766 0.4703,0.987 0.3136,0.221 0.7347,0.332 1.2635,0.332 0.2397,0 0.478,-0.03 0.7147,-0.08 0.2367,-0.06 0.4595,-0.134 0.6686,-0.235 0.209,-0.102 0.4011,-0.225 0.5763,-0.369 0.1752,-0.144 0.3274,-0.306 0.4565,-0.484 z m 0.019,3.403 c -0.8116,0.72 -1.8475,1.079 -3.1078,1.079 -0.4243,0 -0.827,-0.06 -1.2081,-0.17 -0.3812,-0.114 -0.7147,-0.282 -1.0006,-0.503 -0.2859,-0.221 -0.5118,-0.495 -0.6778,-0.821 -0.166,-0.326 -0.249,-0.704 -0.249,-1.134 0,-1.057 0.4534,-1.848 1.3602,-2.37 0.9068,-0.523 2.2702,-0.784 4.09,-0.784 l 0.7746,0 c 0,-0.27 0,-0.509 -0.014,-0.715 -0.01,-0.206 -0.029,-0.37 -0.06,-0.493 -0.074,-0.314 -0.2244,-0.559 -0.4518,-0.738 -0.289,-0.252 -0.7685,-0.378 -1.4387,-0.378 -0.6455,0 -1.1373,0.118 -1.4755,0.355 -0.3381,0.237 -0.5133,0.598 -0.5256,1.084 l -1.9274,0 c 0.1168,-1.869 1.4601,-2.804 4.03,-2.804 0.6086,0 1.145,0.05 1.6092,0.157 0.4642,0.105 0.8776,0.28 1.2404,0.526 0.3504,0.233 0.6117,0.561 0.7838,0.982 0.1722,0.421 0.2582,1 0.2583,1.738 l 0,5.856 -2.0104,0 z"
           style="font-weight:bold;word-spacing:-2.14068913px;fill:#c5c5c5;font-family:Shruti;-inkscape-font-specification:Shruti Bold"
           id="path14901-4-7"
           inkscape:connector-curvature="0" />
        <path
           d="m 1139.1634,11160.911 c 0.3504,-0.511 0.7316,-0.897 1.1435,-1.158 0.4119,-0.261 0.8546,-0.392 1.328,-0.392 0.1045,0 0.2167,0 0.3366,0.02 0.1198,0.01 0.2474,0.03 0.3827,0.05 l 0,1.881 c -0.1353,-0.03 -0.2905,-0.05 -0.4657,-0.07 -0.1753,-0.01 -0.3674,-0.02 -0.5764,-0.02 -0.3996,0 -0.7777,0.1 -1.1343,0.3 -0.3566,0.199 -0.6824,0.502 -0.9775,0.908 l 0,6.197 -2.0197,0 0,-9.047 1.9828,0 z"
           style="font-weight:bold;word-spacing:-2.14068913px;fill:#c5c5c5;font-family:Shruti;-inkscape-font-specification:Shruti Bold"
           id="path14903-0-7"
           inkscape:connector-curvature="0" />
        <path
           d="m 1146.7346,11167.237 c 0.123,0 0.249,0 0.3781,-0.01 0.1291,0 0.2613,-0.03 0.3966,-0.06 l 0,1.457 c -0.1906,0.05 -0.3843,0.08 -0.581,0.102 -0.1968,0.02 -0.412,0.03 -0.6456,0.03 -0.498,0 -0.9053,-0.06 -1.2219,-0.166 -0.3166,-0.11 -0.5656,-0.276 -0.747,-0.498 -0.1813,-0.221 -0.3043,-0.499 -0.3688,-0.834 -0.065,-0.335 -0.097,-0.727 -0.097,-1.176 l 0,-4.989 -1.1527,0 0,-1.513 1.1527,0 0,-2.25 2.0196,0 0,2.25 1.4663,0 0,1.513 -1.4663,0 0,4.74 c 0,0.295 0.02,0.535 0.06,0.719 0.04,0.185 0.097,0.328 0.1706,0.429 0.074,0.101 0.1644,0.171 0.272,0.207 0.1076,0.04 0.229,0.06 0.3643,0.06 z"
           style="font-weight:bold;word-spacing:-2.14068913px;fill:#c5c5c5;font-family:Shruti;-inkscape-font-specification:Shruti Bold"
           id="path14905-4-52"
           inkscape:connector-curvature="0" />
        <path
           d="m 1153.5669,11165.143 c 0,-0.393 0.058,-0.759 0.1752,-1.097 0.1168,-0.338 0.2936,-0.653 0.5303,-0.945 0.2367,-0.292 0.5302,-0.569 0.8807,-0.83 0.3504,-0.261 0.7593,-0.518 1.2265,-0.77 -0.4181,-0.541 -0.727,-1.022 -0.9268,-1.443 -0.1998,-0.422 -0.2997,-0.841 -0.2997,-1.259 0,-0.474 0.089,-0.89 0.2674,-1.25 0.1783,-0.36 0.4181,-0.661 0.7193,-0.904 0.3013,-0.242 0.6502,-0.425 1.0467,-0.548 0.3966,-0.123 0.8131,-0.185 1.2496,-0.185 0.4488,0 0.8623,0.07 1.2404,0.199 0.3781,0.132 0.7054,0.318 0.9821,0.557 0.2767,0.24 0.4918,0.529 0.6455,0.867 0.1537,0.338 0.2306,0.717 0.2306,1.135 0,0.325 -0.048,0.628 -0.143,0.908 -0.095,0.28 -0.2443,0.547 -0.4472,0.802 -0.2029,0.255 -0.4581,0.503 -0.7654,0.743 -0.3074,0.239 -0.6733,0.479 -1.0975,0.719 l 2.2871,2.776 c 0.1045,-0.289 0.1875,-0.592 0.249,-0.909 0.062,-0.316 0.098,-0.656 0.1106,-1.019 l 1.9459,0 c -0.043,0.652 -0.1476,1.264 -0.3136,1.836 -0.166,0.571 -0.3904,1.106 -0.6732,1.604 l 1.2266,1.448 -1.4387,1.273 -1.0697,-1.273 c -0.498,0.43 -1.0467,0.747 -1.6461,0.95 -0.5995,0.203 -1.2742,0.304 -2.0243,0.304 -0.6025,0 -1.1589,-0.08 -1.6691,-0.253 -0.5103,-0.169 -0.9499,-0.412 -1.3188,-0.729 -0.3689,-0.317 -0.6578,-0.702 -0.8669,-1.157 -0.209,-0.455 -0.3135,-0.972 -0.3135,-1.55 z m 4.2698,2.075 c 1.0082,0 1.8259,-0.313 2.453,-0.94 l -2.9049,-3.532 c -0.3074,0.196 -0.5733,0.381 -0.7977,0.553 -0.2244,0.172 -0.4073,0.347 -0.5487,0.526 -0.1414,0.178 -0.2459,0.364 -0.3136,0.558 -0.068,0.193 -0.1014,0.41 -0.1014,0.65 0,0.301 0.054,0.584 0.1614,0.848 0.1076,0.265 0.2582,0.497 0.4519,0.696 0.1936,0.2 0.4272,0.357 0.7008,0.471 0.2736,0.114 0.5733,0.17 0.8992,0.17 z m -0.7747,-8.567 c 0,0.258 0.055,0.5 0.166,0.724 0.1107,0.224 0.2736,0.484 0.4888,0.779 l 0.3596,0.48 c 0.2767,-0.148 0.5134,-0.294 0.7101,-0.438 0.1968,-0.145 0.3582,-0.295 0.4842,-0.452 0.126,-0.157 0.2167,-0.321 0.272,-0.493 0.055,-0.173 0.083,-0.36 0.083,-0.563 0,-0.197 -0.032,-0.378 -0.097,-0.544 -0.065,-0.166 -0.1552,-0.309 -0.272,-0.429 -0.1169,-0.12 -0.2521,-0.212 -0.4058,-0.277 -0.1537,-0.06 -0.3166,-0.1 -0.4888,-0.1 -0.1844,0 -0.3566,0.03 -0.5164,0.09 -0.1599,0.06 -0.2966,0.149 -0.4104,0.263 -0.1137,0.113 -0.2044,0.252 -0.272,0.415 -0.068,0.163 -0.1015,0.342 -0.1015,0.539 z"
           style="font-weight:bold;word-spacing:-2.14068913px;fill:#c5c5c5;font-family:Shruti;-inkscape-font-specification:Shruti Bold"
           id="path14907-9-67"
           inkscape:connector-curvature="0" />
        <path
           d="m 1174.9699,11168.832 c -0.6763,0 -1.2849,-0.106 -1.8259,-0.318 -0.5411,-0.212 -1.0022,-0.519 -1.3833,-0.922 -0.3812,-0.403 -0.6748,-0.899 -0.8807,-1.489 -0.206,-0.591 -0.309,-1.264 -0.309,-2.02 0,-0.75 0.103,-1.417 0.309,-2.001 0.2059,-0.584 0.4995,-1.078 0.8807,-1.48 0.3811,-0.403 0.8422,-0.71 1.3833,-0.923 0.541,-0.212 1.1496,-0.318 1.8259,-0.318 0.5226,0 1.0037,0.07 1.4433,0.199 0.4395,0.132 0.8238,0.327 1.1527,0.585 0.3289,0.258 0.5963,0.578 0.8023,0.959 0.206,0.381 0.3366,0.821 0.3919,1.319 l -1.9458,0 c -0.018,-0.24 -0.078,-0.455 -0.1798,-0.646 -0.1015,-0.19 -0.2337,-0.353 -0.3966,-0.488 -0.1629,-0.136 -0.3535,-0.239 -0.5717,-0.309 -0.2183,-0.07 -0.4504,-0.106 -0.6963,-0.106 -0.3443,0 -0.6594,0.07 -0.9452,0.198 -0.2859,0.132 -0.5303,0.332 -0.7332,0.599 -0.2029,0.268 -0.3612,0.603 -0.4749,1.006 -0.1138,0.402 -0.1706,0.871 -0.1706,1.406 0,0.547 0.057,1.022 0.1706,1.425 0.1137,0.402 0.272,0.739 0.4749,1.01 0.2029,0.27 0.4473,0.471 0.7332,0.604 0.2858,0.132 0.6009,0.198 0.9452,0.198 0.2459,0 0.4765,-0.04 0.6917,-0.106 0.2151,-0.07 0.4057,-0.174 0.5717,-0.309 0.166,-0.135 0.2997,-0.298 0.4012,-0.489 0.1014,-0.191 0.1614,-0.406 0.1798,-0.645 l 1.9458,0 c -0.061,0.491 -0.1952,0.928 -0.4011,1.309 -0.206,0.381 -0.4719,0.701 -0.7977,0.959 -0.3259,0.258 -0.7086,0.455 -1.1481,0.59 -0.4396,0.136 -0.9207,0.203 -1.4433,0.203 z"
           style="font-weight:bold;word-spacing:-2.14068913px;fill:#c5c5c5;font-family:Shruti;-inkscape-font-specification:Shruti Bold"
           id="path14909-5-0"
           inkscape:connector-curvature="0" />
        <path
           d="m 1184.0443,11159.361 c 0.6702,0 1.2773,0.103 1.8214,0.309 0.5441,0.206 1.0082,0.51 1.3925,0.913 0.3842,0.403 0.6809,0.898 0.8899,1.485 0.209,0.587 0.3136,1.259 0.3136,2.015 0,0.762 -0.1046,1.439 -0.3136,2.029 -0.209,0.59 -0.5057,1.086 -0.8899,1.489 -0.3843,0.403 -0.8484,0.709 -1.3925,0.918 -0.5441,0.209 -1.1512,0.313 -1.8214,0.313 -0.664,0 -1.268,-0.104 -1.8121,-0.313 -0.5441,-0.209 -1.0067,-0.515 -1.3879,-0.918 -0.3812,-0.403 -0.6763,-0.899 -0.8853,-1.489 -0.209,-0.59 -0.3135,-1.267 -0.3135,-2.029 0,-0.756 0.1045,-1.428 0.3135,-2.015 0.209,-0.587 0.5041,-1.082 0.8853,-1.485 0.3812,-0.403 0.8438,-0.707 1.3879,-0.913 0.5441,-0.206 1.1481,-0.309 1.8121,-0.309 z m 0,7.959 c 0.3505,0 0.6686,-0.07 0.9545,-0.203 0.2859,-0.135 0.5303,-0.338 0.7332,-0.609 0.2028,-0.27 0.3596,-0.607 0.4703,-1.01 0.1106,-0.402 0.166,-0.874 0.166,-1.415 0,-0.535 -0.055,-1.002 -0.166,-1.402 -0.1107,-0.399 -0.2675,-0.733 -0.4703,-1 -0.2029,-0.268 -0.4473,-0.469 -0.7332,-0.604 -0.2859,-0.136 -0.604,-0.203 -0.9545,-0.203 -0.3504,0 -0.6686,0.07 -0.9544,0.203 -0.2859,0.135 -0.5303,0.336 -0.7332,0.604 -0.2029,0.267 -0.3596,0.601 -0.4703,1 -0.1107,0.4 -0.166,0.867 -0.166,1.402 0,0.541 0.055,1.013 0.166,1.415 0.1107,0.403 0.2674,0.74 0.4703,1.01 0.2029,0.271 0.4473,0.474 0.7332,0.609 0.2858,0.135 0.604,0.203 0.9544,0.203 z"
           style="font-weight:bold;word-spacing:-2.14068913px;fill:#c5c5c5;font-family:Shruti;-inkscape-font-specification:Shruti Bold"
           id="path14911-3-3"
           inkscape:connector-curvature="0" />
        <path
           d="m 1192.2427,11168.62 -2.0196,0 0,-12.505 2.0196,0 z"
           style="font-weight:bold;word-spacing:-2.14068913px;fill:#c5c5c5;font-family:Shruti;-inkscape-font-specification:Shruti Bold"
           id="path14913-1-8"
           inkscape:connector-curvature="0" />
        <path
           d="m 1196.5586,11168.62 -2.0197,0 0,-12.505 2.0197,0 z"
           style="font-weight:bold;word-spacing:-2.14068913px;fill:#c5c5c5;font-family:Shruti;-inkscape-font-specification:Shruti Bold"
           id="path14915-4-6"
           inkscape:connector-curvature="0" />
        <path
           d="m 1204.554,11164.35 -0.9775,0 c -1.0513,0 -1.8429,0.142 -2.3747,0.425 -0.5318,0.282 -0.7977,0.722 -0.7977,1.318 0,0.437 0.1568,0.766 0.4703,0.987 0.3136,0.221 0.7347,0.332 1.2634,0.332 0.2398,0 0.4781,-0.03 0.7148,-0.08 0.2366,-0.06 0.4595,-0.134 0.6685,-0.235 0.2091,-0.102 0.4012,-0.225 0.5764,-0.369 0.1752,-0.144 0.3274,-0.306 0.4565,-0.484 z m 0.018,3.403 c -0.8116,0.72 -1.8475,1.079 -3.1079,1.079 -0.4242,0 -0.8269,-0.06 -1.208,-0.17 -0.3812,-0.114 -0.7147,-0.282 -1.0006,-0.503 -0.2859,-0.221 -0.5118,-0.495 -0.6778,-0.821 -0.166,-0.326 -0.249,-0.704 -0.249,-1.134 0,-1.057 0.4534,-1.848 1.3602,-2.37 0.9068,-0.523 2.2702,-0.784 4.09,-0.784 l 0.7746,0 c 0,-0.27 0,-0.509 -0.014,-0.715 -0.01,-0.206 -0.029,-0.37 -0.06,-0.493 -0.074,-0.314 -0.2244,-0.559 -0.4518,-0.738 -0.289,-0.252 -0.7685,-0.378 -1.4387,-0.378 -0.6455,0 -1.1374,0.118 -1.4755,0.355 -0.3381,0.237 -0.5133,0.598 -0.5256,1.084 l -1.9274,0 c 0.1168,-1.869 1.4601,-2.804 4.03,-2.804 0.6086,0 1.145,0.05 1.6092,0.157 0.4642,0.105 0.8776,0.28 1.2404,0.526 0.3504,0.233 0.6117,0.561 0.7838,0.982 0.1722,0.421 0.2582,1 0.2582,1.738 l 0,5.856 -2.0103,0 z"
           style="font-weight:bold;word-spacing:-2.14068913px;fill:#c5c5c5;font-family:Shruti;-inkscape-font-specification:Shruti Bold"
           id="path14917-8-5"
           inkscape:connector-curvature="0" />
        <path
           d="m 1210.908,11158.384 c 0,0.369 0,0.747 -0.01,1.134 -0.01,0.387 -0.01,0.765 -0.01,1.134 0.3504,-0.405 0.7501,-0.722 1.1989,-0.95 0.4488,-0.227 0.9252,-0.341 1.4294,-0.341 0.584,0 1.1035,0.111 1.5585,0.332 0.4549,0.222 0.8376,0.537 1.1481,0.945 0.3105,0.409 0.5472,0.901 0.7101,1.476 0.1629,0.575 0.2444,1.213 0.2444,1.914 0,0.725 -0.088,1.38 -0.2628,1.964 -0.1753,0.584 -0.4289,1.083 -0.7608,1.498 -0.332,0.415 -0.7332,0.735 -1.2035,0.96 -0.4703,0.224 -1.0006,0.336 -1.5908,0.336 -0.5103,0 -0.9652,-0.07 -1.3649,-0.198 -0.3996,-0.132 -0.7746,-0.355 -1.125,-0.669 l 0,0.701 -1.9828,0 0,-12.505 2.0197,0 z m 0,7.986 c 0.3135,0.314 0.644,0.55 0.9913,0.71 0.3474,0.16 0.7209,0.24 1.1205,0.24 0.6578,0 1.1696,-0.272 1.5354,-0.816 0.3658,-0.544 0.5487,-1.364 0.5488,-2.458 -10e-5,-1.045 -0.1722,-1.832 -0.5165,-2.361 -0.3443,-0.529 -0.833,-0.793 -1.4663,-0.793 -0.4057,0 -0.7931,0.122 -1.1619,0.364 -0.3689,0.243 -0.7194,0.595 -1.0513,1.056 z"
           style="font-weight:bold;word-spacing:-2.14068913px;fill:#c5c5c5;font-family:Shruti;-inkscape-font-specification:Shruti Bold"
           id="path14919-1-7"
           inkscape:connector-curvature="0" />
        <path
           d="m 1231.1426,11160.911 c 0.3504,-0.511 0.7316,-0.897 1.1435,-1.158 0.4119,-0.261 0.8545,-0.392 1.3279,-0.392 0.1046,0 0.2168,0 0.3366,0.02 0.1199,0.01 0.2475,0.03 0.3828,0.05 l 0,1.881 c -0.1353,-0.03 -0.2905,-0.05 -0.4658,-0.07 -0.1752,-0.01 -0.3673,-0.02 -0.5763,-0.02 -0.3996,0 -0.7777,0.1 -1.1343,0.3 -0.3566,0.199 -0.6825,0.502 -0.9776,0.908 l 0,6.197 -2.0196,0 0,-9.047 1.9828,0 z"
           style="font-weight:bold;word-spacing:-2.14068913px;fill:#c5c5c5;font-family:Shruti;-inkscape-font-specification:Shruti Bold"
           id="path14921-9-7"
           inkscape:connector-curvature="0" />
        <path
           d="m 1241.2775,11164.35 -0.9775,0 c -1.0513,0 -1.8429,0.142 -2.3747,0.425 -0.5318,0.282 -0.7977,0.722 -0.7977,1.318 0,0.437 0.1568,0.766 0.4703,0.987 0.3136,0.221 0.7347,0.332 1.2635,0.332 0.2397,0 0.478,-0.03 0.7147,-0.08 0.2367,-0.06 0.4595,-0.134 0.6686,-0.235 0.209,-0.102 0.4011,-0.225 0.5763,-0.369 0.1752,-0.144 0.3274,-0.306 0.4565,-0.484 z m 0.019,3.403 c -0.8116,0.72 -1.8475,1.079 -3.1078,1.079 -0.4243,0 -0.827,-0.06 -1.2081,-0.17 -0.3812,-0.114 -0.7147,-0.282 -1.0006,-0.503 -0.2859,-0.221 -0.5118,-0.495 -0.6778,-0.821 -0.166,-0.326 -0.249,-0.704 -0.249,-1.134 0,-1.057 0.4534,-1.848 1.3602,-2.37 0.9068,-0.523 2.2702,-0.784 4.09,-0.784 l 0.7746,0 c 0,-0.27 0,-0.509 -0.014,-0.715 -0.01,-0.206 -0.029,-0.37 -0.06,-0.493 -0.074,-0.314 -0.2244,-0.559 -0.4518,-0.738 -0.289,-0.252 -0.7685,-0.378 -1.4387,-0.378 -0.6455,0 -1.1373,0.118 -1.4755,0.355 -0.3381,0.237 -0.5133,0.598 -0.5256,1.084 l -1.9274,0 c 0.1168,-1.869 1.4601,-2.804 4.03,-2.804 0.6086,0 1.145,0.05 1.6092,0.157 0.4642,0.105 0.8776,0.28 1.2404,0.526 0.3504,0.233 0.6117,0.561 0.7838,0.982 0.1722,0.421 0.2582,1 0.2582,1.738 l 0,5.856 -2.0103,0 z"
           style="font-weight:bold;word-spacing:-2.14068913px;fill:#c5c5c5;font-family:Shruti;-inkscape-font-specification:Shruti Bold"
           id="path14923-8-9"
           inkscape:connector-curvature="0" />
        <path
           d="m 1248.7473,11167.237 c 0.123,0 0.249,0 0.3781,-0.01 0.1291,0 0.2613,-0.03 0.3966,-0.06 l 0,1.457 c -0.1906,0.05 -0.3843,0.08 -0.581,0.102 -0.1968,0.02 -0.4119,0.03 -0.6456,0.03 -0.498,0 -0.9053,-0.06 -1.2219,-0.166 -0.3166,-0.11 -0.5656,-0.276 -0.747,-0.498 -0.1813,-0.221 -0.3043,-0.499 -0.3688,-0.834 -0.065,-0.335 -0.097,-0.727 -0.097,-1.176 l 0,-4.989 -1.1527,0 0,-1.513 1.1527,0 0,-2.25 2.0196,0 0,2.25 1.4663,0 0,1.513 -1.4663,0 0,4.74 c 0,0.295 0.02,0.535 0.06,0.719 0.04,0.185 0.097,0.328 0.1706,0.429 0.074,0.101 0.1645,0.171 0.272,0.207 0.1076,0.04 0.2291,0.06 0.3643,0.06 z"
           style="font-weight:bold;word-spacing:-2.14068913px;fill:#c5c5c5;font-family:Shruti;-inkscape-font-specification:Shruti Bold"
           id="path14925-1-7"
           inkscape:connector-curvature="0" />
        <path
           d="m 1252.8326,11168.62 -2.0196,0 0,-9.047 2.0196,0 z m 0,-10.651 -2.0196,0 0,-1.891 2.0196,0 z"
           style="font-weight:bold;word-spacing:-2.14068913px;fill:#c5c5c5;font-family:Shruti;-inkscape-font-specification:Shruti Bold"
           id="path14927-8-4"
           inkscape:connector-curvature="0" />
        <path
           d="m 1262.7739,11159.573 -3.3199,9.047 -1.9458,0 -3.366,-9.047 2.1395,0 1.3187,4.141 0.8669,2.711 0.8576,-2.711 1.3372,-4.141 z"
           style="font-weight:bold;word-spacing:-2.14068913px;fill:#c5c5c5;font-family:Shruti;-inkscape-font-specification:Shruti Bold"
           id="path14929-3-8"
           inkscape:connector-curvature="0" />
        <path
           d="m 1268.1319,11168.832 c -0.7193,0 -1.3618,-0.109 -1.9274,-0.327 -0.5656,-0.218 -1.0421,-0.532 -1.4294,-0.941 -0.3873,-0.409 -0.6824,-0.907 -0.8853,-1.494 -0.2029,-0.587 -0.3043,-1.249 -0.3043,-1.987 0,-0.738 0.1014,-1.399 0.3043,-1.983 0.2029,-0.584 0.4949,-1.079 0.8761,-1.485 0.3811,-0.405 0.8422,-0.716 1.3833,-0.931 0.541,-0.215 1.1527,-0.323 1.8351,-0.323 0.6702,0 1.2757,0.103 1.8168,0.309 0.541,0.206 1.0036,0.509 1.3879,0.909 0.3842,0.399 0.6793,0.891 0.8853,1.475 0.2059,0.584 0.3089,1.254 0.3089,2.01 l 0,0.48 -6.7044,0 c 0.025,0.498 0.1046,0.927 0.2398,1.286 0.1353,0.36 0.312,0.657 0.5303,0.89 0.2182,0.234 0.4718,0.408 0.7608,0.521 0.2889,0.114 0.6025,0.171 0.9406,0.171 0.2521,0 0.4934,-0.03 0.724,-0.08 0.2305,-0.06 0.438,-0.143 0.6224,-0.263 0.1845,-0.12 0.3397,-0.273 0.4658,-0.461 0.126,-0.187 0.2074,-0.416 0.2443,-0.687 l 1.9828,0 c -0.074,0.467 -0.226,0.882 -0.4565,1.245 -0.2306,0.363 -0.5226,0.667 -0.8761,0.913 -0.3535,0.246 -0.7608,0.433 -1.2219,0.563 -0.4611,0.129 -0.9622,0.193 -1.5032,0.193 z m 2.1764,-5.653 c -0.055,-0.43 -0.1491,-0.799 -0.2813,-1.106 -0.1322,-0.308 -0.2982,-0.561 -0.498,-0.761 -0.1998,-0.2 -0.4303,-0.348 -0.6916,-0.443 -0.2613,-0.1 -0.5457,-0.143 -0.8531,-0.143 -0.5902,0 -1.0897,0.203 -1.4985,0.609 -0.4089,0.406 -0.6655,1.02 -0.7701,1.844 z"
           style="font-weight:bold;word-spacing:-2.14068913px;fill:#c5c5c5;font-family:Shruti;-inkscape-font-specification:Shruti Bold"
           id="path14931-5-00"
           inkscape:connector-curvature="0" />
        <path
           d="m 1281.3089,11160.671 c 0.3627,-0.418 0.7685,-0.741 1.2173,-0.969 0.4488,-0.227 0.9253,-0.341 1.4294,-0.341 0.5841,0 1.1036,0.111 1.5585,0.332 0.455,0.222 0.8377,0.537 1.1482,0.945 0.3104,0.409 0.5471,0.901 0.7101,1.476 0.1629,0.575 0.2443,1.213 0.2443,1.914 0,0.676 -0.081,1.306 -0.2443,1.89 -0.163,0.584 -0.4043,1.093 -0.724,1.526 -0.3197,0.434 -0.7178,0.773 -1.1942,1.019 -0.4765,0.246 -1.0283,0.369 -1.6554,0.369 -0.498,0 -0.9483,-0.07 -1.351,-0.216 -0.4027,-0.145 -0.7762,-0.371 -1.1204,-0.678 0.012,0.289 0.018,0.558 0.018,0.807 0,0.249 0,0.502 0,0.76 l 0,2.592 -2.0196,0 0,-12.524 1.9827,0 z m 0.037,5.699 c 0.3135,0.314 0.644,0.55 0.9914,0.71 0.3473,0.16 0.7208,0.24 1.1204,0.24 0.6579,0 1.1697,-0.272 1.5355,-0.816 0.3658,-0.544 0.5487,-1.364 0.5487,-2.458 0,-1.045 -0.1722,-1.832 -0.5164,-2.361 -0.3443,-0.529 -0.8331,-0.793 -1.4663,-0.793 -0.4058,0 -0.7931,0.122 -1.162,0.364 -0.3689,0.243 -0.7193,0.595 -1.0513,1.056 z"
           style="font-weight:bold;word-spacing:-2.14068913px;fill:#c5c5c5;font-family:Shruti;-inkscape-font-specification:Shruti Bold"
           id="path14933-5-8"
           inkscape:connector-curvature="0" />
        <path
           d="m 1291.4162,11168.62 -2.0196,0 0,-12.505 2.0196,0 z"
           style="font-weight:bold;word-spacing:-2.14068913px;fill:#c5c5c5;font-family:Shruti;-inkscape-font-specification:Shruti Bold"
           id="path14935-0-27"
           inkscape:connector-curvature="0" />
        <path
           d="m 1299.4116,11164.35 -0.9775,0 c -1.0513,0 -1.8429,0.142 -2.3746,0.425 -0.5319,0.282 -0.7978,0.722 -0.7977,1.318 -10e-5,0.437 0.1567,0.766 0.4703,0.987 0.3135,0.221 0.7347,0.332 1.2634,0.332 0.2397,0 0.478,-0.03 0.7147,-0.08 0.2367,-0.06 0.4595,-0.134 0.6686,-0.235 0.209,-0.102 0.4011,-0.225 0.5764,-0.369 0.1752,-0.144 0.3273,-0.306 0.4564,-0.484 z m 0.019,3.403 c -0.8116,0.72 -1.8475,1.079 -3.1078,1.079 -0.4242,0 -0.8269,-0.06 -1.2081,-0.17 -0.3812,-0.114 -0.7147,-0.282 -1.0006,-0.503 -0.2859,-0.221 -0.5118,-0.495 -0.6778,-0.821 -0.166,-0.326 -0.249,-0.704 -0.249,-1.134 0,-1.057 0.4534,-1.848 1.3602,-2.37 0.9069,-0.523 2.2702,-0.784 4.09,-0.784 l 0.7746,0 c 0,-0.27 0,-0.509 -0.014,-0.715 -0.01,-0.206 -0.029,-0.37 -0.06,-0.493 -0.074,-0.314 -0.2244,-0.559 -0.4519,-0.738 -0.289,-0.252 -0.7685,-0.378 -1.4386,-0.378 -0.6456,0 -1.1374,0.118 -1.4756,0.355 -0.3381,0.237 -0.5133,0.598 -0.5256,1.084 l -1.9274,0 c 0.1168,-1.869 1.4601,-2.804 4.03,-2.804 0.6086,0 1.1451,0.05 1.6092,0.157 0.4642,0.105 0.8777,0.28 1.2404,0.526 0.3504,0.233 0.6117,0.561 0.7839,0.982 0.1721,0.421 0.2582,1 0.2582,1.738 l 0,5.856 -2.0104,0 z"
           style="font-weight:bold;word-spacing:-2.14068913px;fill:#c5c5c5;font-family:Shruti;-inkscape-font-specification:Shruti Bold"
           id="path14937-3-7"
           inkscape:connector-curvature="0" />
        <path
           d="m 1304.4837,11170.548 c 0.1906,0 0.3643,-0.04 0.5211,-0.12 0.1567,-0.08 0.2997,-0.202 0.4288,-0.365 0.1291,-0.163 0.2521,-0.364 0.3689,-0.604 0.1168,-0.239 0.2305,-0.519 0.3412,-0.839 l -3.3845,-9.047 2.1211,0 1.3003,3.984 c 0.1537,0.486 0.3028,0.967 0.4472,1.443 0.1445,0.477 0.2967,0.952 0.4565,1.425 0.1537,-0.473 0.3043,-0.948 0.4519,-1.425 0.1475,-0.476 0.3012,-0.957 0.4611,-1.443 l 1.2634,-3.984 2.1303,0 -3.3568,9.047 c -0.1783,0.48 -0.3458,0.896 -0.5026,1.25 -0.1568,0.353 -0.3059,0.647 -0.4473,0.88 -0.1229,0.197 -0.2613,0.388 -0.415,0.572 -0.1537,0.185 -0.3258,0.348 -0.5164,0.489 -0.1906,0.141 -0.4042,0.255 -0.6409,0.341 -0.2367,0.09 -0.4996,0.129 -0.7885,0.129 -0.2459,0 -0.4473,-0.01 -0.604,-0.04 -0.1568,-0.02 -0.3244,-0.06 -0.5026,-0.11 l 0,-1.734 c 0.1475,0.06 0.2935,0.09 0.438,0.115 0.1445,0.02 0.2874,0.03 0.4288,0.03 z"
           style="font-weight:bold;word-spacing:-2.14068913px;fill:#c5c5c5;font-family:Shruti;-inkscape-font-specification:Shruti Bold"
           id="path14939-7-1"
           inkscape:connector-curvature="0" />
        <path
           d="m 1314.7662,11168.62 -2.0196,0 0,-12.505 2.0196,0 z"
           style="font-weight:bold;word-spacing:-2.14068913px;fill:#c5c5c5;font-family:Shruti;-inkscape-font-specification:Shruti Bold"
           id="path14941-9-1"
           inkscape:connector-curvature="0" />
        <path
           d="m 1319.0821,11168.62 -2.0196,0 0,-9.047 2.0196,0 z m 0,-10.651 -2.0196,0 0,-1.891 2.0196,0 z"
           style="font-weight:bold;word-spacing:-2.14068913px;fill:#c5c5c5;font-family:Shruti;-inkscape-font-specification:Shruti Bold"
           id="path14943-7-1"
           inkscape:connector-curvature="0" />
        <path
           d="m 1324.7352,11168.832 c -1.2911,0 -2.264,-0.244 -2.9188,-0.733 -0.6547,-0.489 -1.0159,-1.216 -1.0836,-2.181 l 1.9459,0 c 0.018,1.033 0.6978,1.549 2.038,1.549 0.5964,0 1.0544,-0.121 1.3741,-0.364 0.3197,-0.243 0.4795,-0.549 0.4796,-0.917 -10e-5,-0.24 -0.08,-0.435 -0.2398,-0.586 -0.1599,-0.151 -0.372,-0.278 -0.6363,-0.383 -0.2644,-0.104 -0.5641,-0.197 -0.8992,-0.276 -0.335,-0.08 -0.6778,-0.166 -1.0282,-0.259 -0.3505,-0.09 -0.6932,-0.201 -1.0283,-0.327 -0.335,-0.126 -0.6348,-0.289 -0.8991,-0.489 -0.2644,-0.2 -0.4765,-0.446 -0.6363,-0.738 -0.1599,-0.292 -0.2398,-0.653 -0.2398,-1.083 0,-0.394 0.082,-0.755 0.2444,-1.084 0.1629,-0.329 0.3965,-0.611 0.7008,-0.848 0.3044,-0.237 0.6763,-0.421 1.1159,-0.553 0.4396,-0.133 0.936,-0.199 1.4894,-0.199 1.2234,0 2.1441,0.219 2.7619,0.655 0.6179,0.437 0.9422,1.082 0.973,1.937 l -1.9182,0 c -0.049,-0.818 -0.6302,-1.227 -1.743,-1.227 -0.2336,0 -0.4534,0.02 -0.6593,0.07 -0.206,0.05 -0.3843,0.12 -0.5349,0.212 -0.1506,0.09 -0.269,0.207 -0.3551,0.346 -0.086,0.138 -0.1291,0.293 -0.1291,0.466 0,0.153 0.021,0.285 0.065,0.396 0.043,0.111 0.1429,0.214 0.2997,0.309 0.1568,0.09 0.3873,0.191 0.6916,0.286 0.3044,0.09 0.7147,0.204 1.2312,0.327 0.584,0.154 1.0866,0.306 1.5078,0.457 0.4211,0.15 0.7654,0.329 1.0328,0.535 0.2675,0.206 0.4642,0.452 0.5902,0.737 0.1261,0.286 0.1891,0.641 0.1891,1.066 0,0.418 -0.08,0.803 -0.2398,1.157 -0.1598,0.353 -0.3981,0.659 -0.7147,0.917 -0.3166,0.259 -0.7101,0.46 -1.1804,0.605 -0.4703,0.144 -1.019,0.216 -1.6461,0.216 z"
           style="font-weight:bold;word-spacing:-2.14068913px;fill:#c5c5c5;font-family:Shruti;-inkscape-font-specification:Shruti Bold"
           id="path14945-0-6"
           inkscape:connector-curvature="0" />
        <path
           d="m 1333.4776,11167.237 c 0.123,0 0.249,0 0.3781,-0.01 0.1291,0 0.2613,-0.03 0.3966,-0.06 l 0,1.457 c -0.1906,0.05 -0.3843,0.08 -0.581,0.102 -0.1968,0.02 -0.4119,0.03 -0.6456,0.03 -0.498,0 -0.9053,-0.06 -1.2219,-0.166 -0.3166,-0.11 -0.5656,-0.276 -0.747,-0.498 -0.1813,-0.221 -0.3043,-0.499 -0.3688,-0.834 -0.065,-0.335 -0.097,-0.727 -0.097,-1.176 l 0,-4.989 -1.1527,0 0,-1.513 1.1527,0 0,-2.25 2.0196,0 0,2.25 1.4663,0 0,1.513 -1.4663,0 0,4.74 c 0,0.295 0.02,0.535 0.06,0.719 0.04,0.185 0.097,0.328 0.1706,0.429 0.074,0.101 0.1645,0.171 0.272,0.207 0.1076,0.04 0.2291,0.06 0.3643,0.06 z"
           style="font-weight:bold;word-spacing:-2.14068913px;fill:#c5c5c5;font-family:Shruti;-inkscape-font-specification:Shruti Bold"
           id="path14947-5-34"
           inkscape:connector-curvature="0" />
        <path
           d="m 1222.9941,11159.361 c 0.6702,0 1.2773,0.103 1.8214,0.309 0.5441,0.206 1.0082,0.51 1.3925,0.913 0.3842,0.403 0.6809,0.898 0.8899,1.485 0.209,0.587 0.3136,1.259 0.3136,2.015 0,0.762 -0.1046,1.439 -0.3136,2.029 -0.209,0.59 -0.5057,1.086 -0.8899,1.489 -0.3843,0.403 -0.8484,0.709 -1.3925,0.918 -0.5441,0.209 -1.1512,0.313 -1.8214,0.313 -0.664,0 -1.268,-0.104 -1.8121,-0.313 -0.5441,-0.209 -1.0067,-0.515 -1.3879,-0.918 -0.3812,-0.403 -0.6763,-0.899 -0.8853,-1.489 -0.209,-0.59 -0.3135,-1.267 -0.3135,-2.029 0,-0.756 0.1045,-1.428 0.3135,-2.015 0.209,-0.587 0.5041,-1.082 0.8853,-1.485 0.3812,-0.403 0.8438,-0.707 1.3879,-0.913 0.5441,-0.206 1.1481,-0.309 1.8121,-0.309 z m 0,7.959 c 0.3505,0 0.6686,-0.07 0.9545,-0.203 0.2859,-0.135 0.5303,-0.338 0.7332,-0.609 0.2028,-0.27 0.3596,-0.607 0.4703,-1.01 0.1106,-0.402 0.166,-0.874 0.166,-1.415 0,-0.535 -0.055,-1.002 -0.166,-1.402 -0.1107,-0.399 -0.2675,-0.733 -0.4703,-1 -0.2029,-0.268 -0.4473,-0.469 -0.7332,-0.604 -0.2859,-0.136 -0.604,-0.203 -0.9545,-0.203 -0.3504,0 -0.6686,0.07 -0.9544,0.203 -0.2859,0.135 -0.5303,0.336 -0.7332,0.604 -0.2029,0.267 -0.3596,0.601 -0.4703,1 -0.1107,0.4 -0.166,0.867 -0.166,1.402 0,0.541 0.055,1.013 0.166,1.415 0.1107,0.403 0.2674,0.74 0.4703,1.01 0.2029,0.271 0.4473,0.474 0.7332,0.609 0.2858,0.135 0.604,0.203 0.9544,0.203 z"
           style="font-size:18.88660431px;font-style:normal;font-variant:normal;font-weight:bold;font-stretch:normal;line-height:125%;letter-spacing:0px;word-spacing:-2.14068913px;fill:#c5c5c5;fill-opacity:1;stroke:none;font-family:Shruti;-inkscape-font-specification:Shruti Bold"
           id="path14911-3-3-8"
           inkscape:connector-curvature="0" />
      </g>
    </g>
    <g
       id="g4632-7-6-4-2-1-7-9-20"
       transform="matrix(0.76737497,0,0,0.76737497,-1430.4155,-9795.3586)">
      <g
         transform="matrix(-1,0,0,1,2633.1187,2017.5054)"
         id="g5730-0-3-1-1-9-73-8-4-2">
        <path
           sodipodi:nodetypes="cssccscccc"
           inkscape:connector-curvature="0"
           style="color:#000000;fill:#698eab;fill-opacity:1;fill-rule:nonzero;stroke:none;stroke-width:0.24476303;marker:none;visibility:visible;display:inline;overflow:visible;enable-background:accumulate"
           d="m 437.82312,11466.551 c -9.02138,0 -12.48175,7.253 -12.48175,16.277 l 0,6.153 c 0,2.617 1.22716,5.841 5.96969,6.148 4.03516,0.231 10.92927,0.347 18.27026,0.347 3.66007,-4.526 17.50849,-9.047 24.28509,-9.047 l 2.53247,0 c -0.31836,-1.748 -5.01284,-19.617 -5.8487,-19.895 l -32.72706,0 z"
           id="path6027-5-0-4-5-3-19-9-7-2-2-7-4-8-5-9-2-4-5-5-4-1-2-2-9" />
        <path
           clip-path="url(#clipPath3786-8-7-09-3-58-9-3-5-2-06)"
           inkscape:connector-curvature="0"
           style="color:#000000;fill:#547b96;fill-opacity:1;fill-rule:nonzero;stroke:none;stroke-width:0.24476303;marker:none;visibility:visible;display:inline;overflow:visible;enable-background:accumulate"
           d="m 440.03125,11463.031 c 0.30859,0.785 0.66445,1.56 1.09375,2.313 4.81177,8.44 15.49928,11.372 23.9375,6.562 2.79871,-1.595 5.003,-3.868 6.53125,-6.468 -0.45968,-1.37 -0.85013,-2.347 -1.03125,-2.407 l -30.53125,0 z"
           id="path6027-5-0-4-5-3-19-9-7-2-2-7-4-8-5-1-4-5-8-9-8-23-4-62-2-7-56" />
        <path
           sodipodi:nodetypes="sssccs"
           inkscape:connector-curvature="0"
           style="color:#000000;fill:#698eab;fill-opacity:1;fill-rule:nonzero;stroke:none;stroke-width:0.24476303;marker:none;visibility:visible;display:inline;overflow:visible;enable-background:accumulate"
           d="m 456.45459,11434.714 c -9.71601,0 -17.54612,7.832 -17.54612,17.545 0,9.725 7.83011,17.73 17.54612,17.73 2.65634,0 5.14482,-0.746 7.41681,-1.811 1.00546,-7.225 4.78478,-13.476 10.12988,-17.91 -0.99793,-8.775 -8.50157,-15.554 -17.54669,-15.554 z"
           id="path6027-5-0-4-5-3-19-9-7-2-2-7-4-8-5-1-3-6-6-2-1-8-0-6-3-7" />
      </g>
      <g
         id="g6138-1-2-7-2-5-5-1-6-2-4-5-2-26"
         transform="matrix(5.7885056,0,0,5.7885056,-8150.0825,-54594.819)"
         inkscape:export-filename="C:\Users\jonescd\Desktop\CloudList\crowdplay_logo0.png"
         inkscape:export-xdpi="90"
         inkscape:export-ydpi="90"
         style="fill:url(#linearGradient18577-9);fill-opacity:1;stroke:none">
        <path
           id="path6027-5-0-4-5-3-19-9-7-2-2-7-4-8-5-0-1-9-8-7-6-2-0-2"
           d="m 1768.5091,11761.045 c -1.5585,0 -2.1563,1.253 -2.1563,2.812 l 0,1.063 c 0,0.452 0.212,1.009 1.0313,1.062 0.6971,0.04 1.8881,0.06 3.1563,0.06 0.6323,-0.782 3.0247,-1.563 4.1954,-1.563 l 0.4375,0 c -0.055,-0.302 -0.866,-3.389 -1.0104,-3.437 l -5.6538,0 z"
           style="color:#000000;fill:#698eab;fill-opacity:1;fill-rule:nonzero;stroke:none;stroke-width:0.24476303;marker:none;visibility:visible;display:inline;overflow:visible;enable-background:accumulate"
           inkscape:connector-curvature="0"
           sodipodi:nodetypes="cssccscccc" />
        <path
           style="color:#000000;fill:#93afc3;fill-opacity:1;fill-rule:nonzero;stroke:none;stroke-width:0.24476303;marker:none;visibility:visible;display:inline;overflow:visible;enable-background:accumulate"
           d="m 1772.6388,11763.904 c -2.562,0.01 -3.5823,2.555 -3.5823,5.117 l 0,1.729 c 0,0.744 0.3695,1.648 1.7164,1.735 3.0307,0.195 11.4404,0.117 14.1947,-0.09 1.5958,0.09 1.8448,-1.085 1.8448,-1.741 l 0,-1.632 c 0,-2.563 -1.0204,-5.118 -3.5823,-5.118 l -0.6231,0 c -3.3189,0 -6.5585,0 -9.3452,0 z"
           id="path6027-5-0-4-5-3-19-9-7-8-4-5-9-4-9-0-3-82-2-82-9-0-2"
           inkscape:connector-curvature="0"
           sodipodi:nodetypes="sssscssssss" />
      </g>
      <g
         inkscape:export-ydpi="90"
         inkscape:export-xdpi="90"
         inkscape:export-filename="C:\Users\jonescd\Desktop\CloudList\crowdplay_logo3.png"
         transform="translate(996.46614,2396.4164)"
         id="g4966-4-4-0-9-9-7-5-9-1-4-49">
        <g
           id="g4935-8-4-2-9-7-71-8-68-9-4-9"
           transform="translate(5.7924295,0)">
          <g
             transform="matrix(2.5713469,0,0,2.5713469,-1693.5666,-17428.06)"
             id="g4826-81-8-4-6-2-2-4-19-8-9-3">
            <g
               inkscape:export-ydpi="90"
               inkscape:export-xdpi="90"
               inkscape:export-filename="C:\Users\jonescd\Desktop\CloudList\crowdplay_logo0.png"
               id="g4777-3-2-8-8-1-6-7-63-8-1-8">
              <path
                 sodipodi:nodetypes="cssccssscsccsccc"
                 inkscape:connector-curvature="0"
                 id="path4366-6-7-6-3-3-0-3-9-1-9-9"
                 d="m 1101.6595,11053.906 c -21.7898,0 -39.4375,17.678 -39.4375,39.469 0,21.789 17.6477,39.469 39.4375,39.469 14.1534,0 26.5719,-7.464 33.5312,-18.657 l -1.1771,-0.51 c -6.5792,10.461 -18.4734,17.732 -32.3541,17.732 -21.4482,0 -37.8229,-16.586 -37.8229,-38.034 0,-21.448 16.3747,-38.844 37.8229,-38.844 21.4367,0 38.8275,17.376 38.8438,38.813 l 0,0.03 c 0,3.072 -0.3568,6.072 -1.0313,8.938 l 0.625,0.03 c 0.6674,-2.877 1,-5.889 1,-8.969 l 0,-0.03 c -0.016,-21.779 -17.6592,-39.438 -39.4375,-39.438 z"
                 style="color:#000000;fill:#7e7e7e;fill-opacity:1;stroke:none;stroke-width:1.0679903;marker:none;visibility:visible;display:inline;overflow:visible;enable-background:accumulate" />
            </g>
            <path
               transform="matrix(-0.94766953,0.31925299,0.31925299,0.94766953,0,0)"
               style="color:#000000;fill:#4f4f4f;fill-opacity:1;fill-rule:nonzero;stroke:none;stroke-width:1.10000002;marker:none;visibility:visible;display:inline;overflow:visible;enable-background:accumulate"
               d="m 2535.1433,10863.435 2.1073,0 0,4.678 -2.1073,0 z"
               id="rect4513-11-5-7-0-4-2-49-9-87-9-0-0"
               inkscape:connector-curvature="0" />
            <g
               inkscape:export-ydpi="90"
               inkscape:export-xdpi="90"
               inkscape:export-filename="C:\Users\jonescd\Desktop\CloudList\crowdplay_logo0.png"
               id="g4620-5-3-0-8-0-4-5-5-0-8-7"
               transform="translate(-355.96551,-126.12489)">
              <path
                 inkscape:connector-curvature="0"
                 id="path4366-5-5-5-9-6-4-92-6-1-3-6-8-9"
                 d="m 1457.5,11183.969 c -9.2375,0 -17.5718,3.824 -23.5312,9.968 l 1.5937,1.313 c 2.0981,1.766 3.2453,0.968 4.5937,0.03 0.052,-0.04 0.104,-0.08 0.1563,-0.125 4.7156,-3.755 10.6929,-6 17.1875,-6 6.3582,0 12.2047,2.171 16.875,5.781 0.053,0.04 0.1041,0.06 0.1562,0.09 0.053,0.04 0.1042,0.08 0.1563,0.125 1.4438,0.996 2.6063,1.951 4.8125,0.09 l 1.5625,-1.313 c -5.9632,-6.147 -14.3201,-9.968 -23.5625,-9.968 z"
                 style="color:#000000;fill:#7d7d7d;fill-opacity:1;fill-rule:nonzero;stroke:none;stroke-width:1.10000002;marker:none;visibility:visible;display:inline;overflow:visible;enable-background:accumulate" />
              <path
                 id="path4366-5-6-5-1-9-7-0-9-0-8-3-0"
                 d="m 1457.5,11178.875 c -21.8773,0 -39.6979,17.342 -40.4688,39.031 l 6.4063,0 c 0.7721,-18.142 15.7305,-32.625 34.0625,-32.625 18.3327,0 33.2933,14.478 34.0625,32.625 l 6.4063,0 c -0.7706,-21.692 -18.5927,-39.031 -40.4688,-39.031 z"
                 style="color:#000000;fill:#b0b0b0;fill-opacity:1;fill-rule:nonzero;stroke:none;stroke-width:1.10000002;marker:none;visibility:visible;display:inline;overflow:visible;enable-background:accumulate"
                 inkscape:connector-curvature="0" />
            </g>
            <g
               inkscape:export-ydpi="90"
               inkscape:export-xdpi="90"
               inkscape:export-filename="C:\Users\jonescd\Desktop\CloudList\crowdplay_logo0.png"
               id="g4407-6-1-3-9-45-3-0-05-9-7-7"
               transform="translate(-355.32428,-126.12471)"
               style="fill:#8d8d8d;fill-opacity:1;stroke:none">
              <path
                 style="color:#000000;fill:#acacac;fill-opacity:1;stroke-width:1.10000002;marker:none;visibility:visible;display:inline;overflow:visible;enable-background:accumulate"
                 d="m 1418.3033,11206.25 5.6109,0 c 1.0773,0 1.9446,0.867 1.9446,1.945 l 0,22.36 c 0,1.078 -0.8673,1.945 -1.9446,1.945 l -5.6109,0 c -1.0773,0 -1.9445,-0.867 -1.9445,-1.945 l 0,-22.36 c 0,-1.078 0.8672,-1.945 1.9445,-1.945 z"
                 id="rect4387-3-9-8-2-0-6-2-4-4-6-4"
                 inkscape:connector-curvature="0" />
              <path
                 style="color:#000000;stroke-width:1.21027493;marker:none;visibility:visible;display:inline;overflow:visible;enable-background:accumulate"
                 d="m 1424.4676,11203.3 c 2.6009,0 4.6948,2.094 4.6948,4.695 l 0,22.76 c 0,2.601 -2.0939,4.695 -4.6948,4.695 -2.601,0 -4.6949,-2.094 -4.6949,-4.695 l 0,-22.76 c 0,-2.601 2.0939,-4.695 4.6949,-4.695 z"
                 id="rect4387-9-0-0-9-5-3-24-8-1-7-4-9"
                 inkscape:connector-curvature="0" />
            </g>
            <g
               inkscape:export-ydpi="90"
               inkscape:export-xdpi="90"
               inkscape:export-filename="C:\Users\jonescd\Desktop\CloudList\crowdplay_logo0.png"
               id="g4544-0-2-3-5-2-58-3-35-5-5-4"
               transform="matrix(0.97122088,0.68325084,-0.68325084,0.97122088,7359.1654,-819.12427)">
              <g
                 id="g4644-8-8-4-3-9-8-1-73-6-9-7"
                 transform="matrix(1.2029343,0,0,1.2029343,-303.47199,-2279.9051)">
                <path
                   style="color:#000000;fill:#bbbbbb;fill-opacity:1;fill-rule:nonzero;stroke:none;stroke-width:1.10000002;marker:none;visibility:visible;display:inline;overflow:visible;enable-background:accumulate"
                   d="m 1494.6923,11230.515 -0.1091,0.202 0.085,0.255 -0.078,0.304 0,1.677 0.6746,0 -5e-4,-1.693 -0.1156,-0.318 0.088,-0.188 -0.1211,-0.261 z"
                   id="rect4513-1-7-8-3-46-3-7-1-4-7-6-2-1"
                   inkscape:connector-curvature="0"
                   sodipodi:nodetypes="ccccccccccc" />
              </g>
              <path
                 style="color:#000000;fill:#222222;fill-opacity:1;fill-rule:nonzero;stroke:none;stroke-width:1.10000002;marker:none;visibility:visible;display:inline;overflow:visible;enable-background:accumulate"
                 d="m 1493.6747,11231.954 2.2539,0 0,5.005 -2.2539,0 z"
                 id="rect4513-7-2-1-0-3-8-2-3-8-7-0-53"
                 inkscape:connector-curvature="0" />
              <path
                 style="color:#000000;fill:#424242;fill-opacity:1;fill-rule:nonzero;stroke:none;stroke-width:1.10000002;marker:none;visibility:visible;display:inline;overflow:visible;enable-background:accumulate"
                 d="m 1493.8363,11234.832 1.9307,0 0,4.287 -1.9307,0 z"
                 id="rect4513-1-3-4-6-7-0-1-1-42-0-2-42"
                 inkscape:connector-curvature="0" />
              <path
                 style="color:#000000;fill:#646464;fill-opacity:1;fill-rule:nonzero;stroke:none;stroke-width:1.10000002;marker:none;visibility:visible;display:inline;overflow:visible;enable-background:accumulate"
                 d="m 1493.4979,11232.181 2.6075,0 0,5.789 -2.6075,0 z"
                 id="rect4513-0-3-6-43-1-49-0-8-8-7-5"
                 inkscape:connector-curvature="0" />
            </g>
            <g
               inkscape:export-ydpi="90"
               inkscape:export-xdpi="90"
               inkscape:export-filename="C:\Users\jonescd\Desktop\CloudList\crowdplay_logo0.png"
               id="g4463-6-1-1-8-1-82-4-0-6-9-66"
               transform="translate(-352.82298,-126.12471)">
              <path
                 transform="scale(-1,1)"
                 style="color:#000000;fill:#acacac;fill-opacity:1;stroke:none;stroke-width:1.10000002;marker:none;visibility:visible;display:inline;overflow:visible;enable-background:accumulate"
                 d="m -1492.913,11206.25 5.6109,0 c 1.0773,0 1.9446,0.867 1.9446,1.945 l 0,22.36 c 0,1.078 -0.8673,1.945 -1.9446,1.945 l -5.6109,0 c -1.0773,0 -1.9445,-0.867 -1.9445,-1.945 l 0,-22.36 c 0,-1.078 0.8672,-1.945 1.9445,-1.945 z"
                 id="rect4387-8-5-0-8-08-4-4-0-4-8-1-4"
                 inkscape:connector-curvature="0" />
              <path
                 transform="scale(-1,1)"
                 style="color:#000000;fill:#848484;fill-opacity:1;stroke:none;stroke-width:1.21027493;marker:none;visibility:visible;display:inline;overflow:visible;enable-background:accumulate"
                 d="m -1486.7487,11203.3 c 2.6009,0 4.6948,2.094 4.6948,4.695 l 0,22.76 c 0,2.601 -2.0939,4.695 -4.6948,4.695 -2.601,0 -4.6949,-2.094 -4.6949,-4.695 l 0,-22.76 c 0,-2.601 2.0939,-4.695 4.6949,-4.695 z"
                 id="rect4387-9-8-0-4-49-8-7-52-7-1-0-4-1"
                 inkscape:connector-curvature="0" />
            </g>
          </g>
        </g>
      </g>
      <path
         clip-path="url(#clipPath3808-2-8-1-1-9-4-9-7-9-47)"
         inkscape:connector-curvature="0"
         id="path6027-5-0-4-5-3-19-9-7-2-2-7-4-8-5-1-4-6-0-4-9-9-6-0-1-2"
         d="m 440.03125,11463.031 c 0.30859,0.785 0.66445,1.56 1.09375,2.313 4.81177,8.44 15.49928,11.372 23.9375,6.562 2.79871,-1.595 5.003,-3.868 6.53125,-6.468 -0.45968,-1.37 -0.85013,-2.347 -1.03125,-2.407 l -30.53125,0 z"
         style="color:#000000;fill:#547b96;fill-opacity:1;fill-rule:nonzero;stroke:none;stroke-width:0.24476303;marker:none;visibility:visible;display:inline;overflow:visible;enable-background:accumulate"
         transform="translate(1649.1193,2017.5054)" />
      <path
         id="path6027-5-0-4-5-3-19-9-7-2-2-7-4-8-5-1-37-6-3-9-0-5-0-8-3"
         d="m 2105.5739,13452.22 c -9.7161,0 -17.5462,7.832 -17.5462,17.545 0,9.725 7.8301,17.73 17.5462,17.73 2.6563,0 5.1448,-0.746 7.4168,-1.811 1.0054,-7.225 4.7847,-13.476 10.1298,-17.91 -0.9979,-8.775 -8.5015,-15.554 -17.5466,-15.554 z"
         style="color:#000000;fill:#698eab;fill-opacity:1;fill-rule:nonzero;stroke:none;stroke-width:0.24476303;marker:none;visibility:visible;display:inline;overflow:visible;enable-background:accumulate"
         inkscape:connector-curvature="0"
         sodipodi:nodetypes="sssccs" />
      <path
         clip-path="url(#clipPath3737-7-5-0-1-4-2-5-6-7-1)"
         inkscape:connector-curvature="0"
         id="path6027-5-0-4-5-3-19-9-7-8-4-5-9-4-7-9-8-8-9-8-8-83-9-5-5"
         d="m 465.53125,11479.344 c 4.24112,10.667 14.6286,18.218 26.8125,18.218 12.18301,0 22.60948,-7.551 26.875,-18.218 l -53.6875,0 z"
         style="color:#000000;fill:#7997ac;fill-opacity:1;fill-rule:nonzero;stroke:none;stroke-width:0.24476303;marker:none;visibility:visible;display:inline;overflow:visible;enable-background:accumulate"
         transform="translate(1649.1193,2017.5054)" />
      <path
         style="color:#000000;fill:#93afc3;fill-opacity:1;fill-rule:nonzero;stroke:none;stroke-width:0.24476303;marker:none;visibility:visible;display:inline;overflow:visible;enable-background:accumulate"
         d="m 2141.4574,13451.143 c -15.9751,0 -28.8511,12.885 -28.8511,28.856 0,15.982 12.876,28.937 28.8511,28.937 15.9739,0 28.9385,-12.955 28.9385,-28.937 0,-15.965 -12.9732,-28.856 -28.9385,-28.856 z"
         id="path6027-5-0-4-5-3-19-9-7-8-4-5-9-4-7-82-1-9-3-1-7-8-6-1"
         inkscape:connector-curvature="0"
         sodipodi:nodetypes="sssss" />
    </g>
    <g
       id="g16917"
       transform="matrix(1.9829307,-0.33660312,0.30793764,1.7235751,640.91732,-19229.094)">
      <path
         style="fill:#cfa400;fill-opacity:1;stroke:none"
         d="m -1953.3179,11034.953 1.4079,-2.565 4.0691,-1.624 1.6584,-3.77 12.0097,0 1.7205,3.744 4.0328,1.666 1.3487,2.492 10.7162,28.438 -0.4259,4.245 -14.8501,4.774 -26.6285,-2.26 -7.1941,-5.717 1.0141,-2.337 z"
         id="path16921"
         inkscape:connector-curvature="0"
         sodipodi:nodetypes="ccccccccccccccc" />
      <path
         inkscape:connector-curvature="0"
         id="path15971-8"
         d="m -1940.1702,11026.599 c -2.0027,0 -4.0082,0.124 -6.0178,0.39 l 0.7881,22.648 -2.4009,-18.958 c -1.5291,0.242 -2.5318,0.862 -4.1117,1.711 l 2.016,8.175 -3.3724,-5.695 c -8.3315,5.756 -11.5432,16.061 -13.1352,27.035 -11.7182,4.521 7.3204,13.445 26.2279,13.446 18.9093,0 37.9536,-8.925 26.2338,-13.446 -1.5918,-10.974 -4.8037,-21.279 -13.1352,-27.035 l -3.3724,5.695 2.0162,-8.175 c -1.5801,-0.849 -2.5828,-1.469 -4.1118,-1.711 l -2.4071,18.958 0.7941,-22.642 c -2.0089,-0.259 -4.0089,-0.393 -6.0116,-0.396 z m -23.8879,37.09 c 4.3828,7.097 44.3038,6.143 47.5436,0 0.1891,7.863 -46.7911,8.131 -47.5436,0 z"
         style="fill:#f1dc42;fill-opacity:1;stroke:none" />
    </g>
  </g>
</svg>
