<?xml version="1.0" encoding="UTF-8" standalone="no"?>
<!-- Created with Inkscape (http://www.inkscape.org/) -->

<svg
   xmlns:dc="http://purl.org/dc/elements/1.1/"
   xmlns:cc="http://creativecommons.org/ns#"
   xmlns:rdf="http://www.w3.org/1999/02/22-rdf-syntax-ns#"
   xmlns:svg="http://www.w3.org/2000/svg"
   xmlns="http://www.w3.org/2000/svg"
   xmlns:xlink="http://www.w3.org/1999/xlink"
   xmlns:sodipodi="http://sodipodi.sourceforge.net/DTD/sodipodi-0.dtd"
   xmlns:inkscape="http://www.inkscape.org/namespaces/inkscape"
   width="1325.9047"
   height="298.29224"
   id="svg15350"
   version="1.1"
   inkscape:version="0.48.4 r9939"
   sodipodi:docname="ribbon_back.svg">
  <defs
     id="defs15352">
    <clipPath
       clipPathUnits="userSpaceOnUse"
       id="clipPath3786-8-7-09-3-58-9-6-2">
      <path
         id="path3788-6-7-4-3-3-5-0-63"
         d="m 437.82312,11466.551 c -9.02138,0 -12.48175,7.253 -12.48175,16.277 l 0,6.153 c 0,2.617 1.22716,5.841 5.96969,6.148 4.03516,0.231 10.92927,0.347 18.27026,0.347 3.66007,-4.526 17.50849,-9.047 24.28509,-9.047 l 2.53247,0 c -0.31836,-1.748 -5.01284,-19.617 -5.8487,-19.895 l -32.72706,0 z"
         style="color:#000000;fill:#698eab;fill-opacity:1;fill-rule:nonzero;stroke:none;stroke-width:0.24476303;marker:none;visibility:visible;display:inline;overflow:visible;enable-background:accumulate"
         inkscape:connector-curvature="0"
         sodipodi:nodetypes="cssccscccc" />
    </clipPath>
    <linearGradient
       inkscape:collect="always"
       xlink:href="#linearGradient5187-7-9-1-3-8-4-4-4-8-4"
       id="linearGradient4666-9-7-1-9-5-9-15"
       gradientUnits="userSpaceOnUse"
       x1="1766.3528"
       y1="11764.019"
       x2="1789.3842"
       y2="11764.019" />
    <linearGradient
       id="linearGradient5187-7-9-1-3-8-4-4-4-8-4">
      <stop
         style="stop-color:#8d8d8d;stop-opacity:1;"
         offset="0"
         id="stop5189-2-3-3-1-3-5-8-0-3-5" />
      <stop
         style="stop-color:#aaaaaa;stop-opacity:1;"
         offset="1"
         id="stop5191-2-19-5-9-5-6-3-3-5-3" />
    </linearGradient>
    <clipPath
       clipPathUnits="userSpaceOnUse"
       id="clipPath3808-2-8-1-1-9-4-7-4">
      <path
         sodipodi:nodetypes="cssccscccc"
         inkscape:connector-curvature="0"
         style="color:#000000;fill:#698eab;fill-opacity:1;fill-rule:nonzero;stroke:none;stroke-width:0.24476303;marker:none;visibility:visible;display:inline;overflow:visible;enable-background:accumulate"
         d="m 437.82312,11466.551 c -9.02138,0 -12.48175,7.253 -12.48175,16.277 l 0,6.153 c 0,2.616 1.22716,5.841 5.96969,6.147 4.03516,0.232 10.92927,0.348 18.27026,0.348 3.66007,-4.527 17.50849,-9.048 24.28509,-9.048 l 2.53247,0 c -0.31836,-1.748 -5.01284,-19.617 -5.8487,-19.895 l -32.72706,0 z"
         id="path3810-7-6-2-2-76-1-9-4" />
    </clipPath>
    <clipPath
       clipPathUnits="userSpaceOnUse"
       id="clipPath3737-7-5-0-1-4-2-0-73">
      <path
         sodipodi:nodetypes="sssscssssss"
         inkscape:connector-curvature="0"
         id="path3739-4-0-1-9-5-2-4-4"
         d="m 461.72791,11483.1 c -14.83015,0.06 -20.73616,14.79 -20.73616,29.62 l 0,10.008 c 0,4.307 2.13885,9.54 9.93539,10.043 17.54323,1.129 66.22282,0.678 82.1661,-0.521 9.2373,0.521 10.67864,-6.28 10.67864,-10.077 l 0,-9.447 c 0,-14.836 -5.90659,-29.626 -20.73617,-29.626 l -3.60682,0 c -19.21147,0 -37.96391,0 -54.09474,0 z"
         style="color:#000000;fill:#93afc3;fill-opacity:1;fill-rule:nonzero;stroke:none;stroke-width:0.24476303;marker:none;visibility:visible;display:inline;overflow:visible;enable-background:accumulate" />
    </clipPath>
    <clipPath
       clipPathUnits="userSpaceOnUse"
       id="clipPath3786-8-7-09-3-58-9-6-2-6">
      <path
         id="path3788-6-7-4-3-3-5-0-63-3"
         d="m 437.82312,11466.551 c -9.02138,0 -12.48175,7.253 -12.48175,16.277 l 0,6.153 c 0,2.617 1.22716,5.841 5.96969,6.148 4.03516,0.231 10.92927,0.347 18.27026,0.347 3.66007,-4.526 17.50849,-9.047 24.28509,-9.047 l 2.53247,0 c -0.31836,-1.748 -5.01284,-19.617 -5.8487,-19.895 l -32.72706,0 z"
         style="color:#000000;fill:#698eab;fill-opacity:1;fill-rule:nonzero;stroke:none;stroke-width:0.24476303;marker:none;visibility:visible;display:inline;overflow:visible;enable-background:accumulate"
         inkscape:connector-curvature="0"
         sodipodi:nodetypes="cssccscccc" />
    </clipPath>
    <linearGradient
       inkscape:collect="always"
       xlink:href="#linearGradient5187-7-9-1-3-8-4-4-4-8-4-6"
       id="linearGradient4666-9-7-1-9-5-9-15-1"
       gradientUnits="userSpaceOnUse"
       x1="1766.3528"
       y1="11764.019"
       x2="1789.3842"
       y2="11764.019" />
    <linearGradient
       id="linearGradient5187-7-9-1-3-8-4-4-4-8-4-6">
      <stop
         style="stop-color:#8d8d8d;stop-opacity:1;"
         offset="0"
         id="stop5189-2-3-3-1-3-5-8-0-3-5-0" />
      <stop
         style="stop-color:#aaaaaa;stop-opacity:1;"
         offset="1"
         id="stop5191-2-19-5-9-5-6-3-3-5-3-7" />
    </linearGradient>
    <clipPath
       clipPathUnits="userSpaceOnUse"
       id="clipPath3808-2-8-1-1-9-4-7-4-6">
      <path
         sodipodi:nodetypes="cssccscccc"
         inkscape:connector-curvature="0"
         style="color:#000000;fill:#698eab;fill-opacity:1;fill-rule:nonzero;stroke:none;stroke-width:0.24476303;marker:none;visibility:visible;display:inline;overflow:visible;enable-background:accumulate"
         d="m 437.82312,11466.551 c -9.02138,0 -12.48175,7.253 -12.48175,16.277 l 0,6.153 c 0,2.616 1.22716,5.841 5.96969,6.147 4.03516,0.232 10.92927,0.348 18.27026,0.348 3.66007,-4.527 17.50849,-9.048 24.28509,-9.048 l 2.53247,0 c -0.31836,-1.748 -5.01284,-19.617 -5.8487,-19.895 l -32.72706,0 z"
         id="path3810-7-6-2-2-76-1-9-4-2" />
    </clipPath>
    <clipPath
       clipPathUnits="userSpaceOnUse"
       id="clipPath3737-7-5-0-1-4-2-0-73-1">
      <path
         sodipodi:nodetypes="sssscssssss"
         inkscape:connector-curvature="0"
         id="path3739-4-0-1-9-5-2-4-4-5"
         d="m 461.72791,11483.1 c -14.83015,0.06 -20.73616,14.79 -20.73616,29.62 l 0,10.008 c 0,4.307 2.13885,9.54 9.93539,10.043 17.54323,1.129 66.22282,0.678 82.1661,-0.521 9.2373,0.521 10.67864,-6.28 10.67864,-10.077 l 0,-9.447 c 0,-14.836 -5.90659,-29.626 -20.73617,-29.626 l -3.60682,0 c -19.21147,0 -37.96391,0 -54.09474,0 z"
         style="color:#000000;fill:#93afc3;fill-opacity:1;fill-rule:nonzero;stroke:none;stroke-width:0.24476303;marker:none;visibility:visible;display:inline;overflow:visible;enable-background:accumulate" />
    </clipPath>
  </defs>
  <sodipodi:namedview
     id="base"
     pagecolor="#ffffff"
     bordercolor="#666666"
     borderopacity="1.0"
     inkscape:pageopacity="0.0"
     inkscape:pageshadow="2"
     inkscape:zoom="0.49497474"
     inkscape:cx="721.44033"
     inkscape:cy="-119.91663"
     inkscape:document-units="px"
     inkscape:current-layer="layer1"
     showgrid="false"
     inkscape:window-width="1855"
     inkscape:window-height="1056"
     inkscape:window-x="65"
     inkscape:window-y="24"
     inkscape:window-maximized="1"
     fit-margin-top="0"
     fit-margin-left="0"
     fit-margin-right="0"
     fit-margin-bottom="0" />
  <metadata
     id="metadata15355">
    <rdf:RDF>
      <cc:Work
         rdf:about="">
        <dc:format>image/svg+xml</dc:format>
        <dc:type
           rdf:resource="http://purl.org/dc/dcmitype/StillImage" />
        <dc:title />
      </cc:Work>
    </rdf:RDF>
  </metadata>
  <g
     inkscape:label="Layer 1"
     inkscape:groupmode="layer"
     id="layer1"
     transform="translate(1510.2165,373.84128)">
    <g
       transform="matrix(5.46613,0,0,9.4617999,-6027.2103,-119463.85)"
       id="g23522-1-4-9">
      <path
         style="fill:#bc6757;fill-opacity:1;stroke:none"
         d="m 826.36048,12593.069 8.60662,12.428 -8.59111,12.429 36.70768,0 0,-24.857 z"
         id="rect23497-9-2-2-0"
         inkscape:connector-curvature="0"
         sodipodi:nodetypes="cccccc" />
      <path
         style="fill:#71382d;fill-opacity:1;stroke:none"
         d="m -4662.3047,27021.112 32.2266,13.282 0,-19.532 z"
         id="path23520-8-8-4"
         inkscape:connector-curvature="0"
         transform="matrix(0.49713348,0,0,0.49713348,3164.7662,-821.84228)" />
    </g>
    <g
       id="g23522-2-1-0-5"
       transform="matrix(-5.46613,0,0,9.4617999,4332.682,-119463.84)">
      <path
         style="fill:#bc6757;fill-opacity:1;stroke:none"
         d="m 826.36048,12593.069 8.60662,12.428 -8.59111,12.429 36.70768,0 0,-24.857 z"
         id="rect23497-9-0-9-5-3"
         inkscape:connector-curvature="0"
         sodipodi:nodetypes="cccccc" />
      <path
         style="fill:#71382d;fill-opacity:1;stroke:none"
         d="m -4662.3047,27021.112 32.2266,13.282 0,-19.532 z"
         id="path23520-2-1-4-7"
         inkscape:connector-curvature="0"
         transform="matrix(0.49713348,0,0,0.49713348,3164.7662,-821.84228)" />
    </g>
  </g>
</svg>
