<?xml version="1.0" encoding="UTF-8" standalone="no"?>
<!-- Created with Inkscape (http://www.inkscape.org/) -->

<svg
   xmlns:dc="http://purl.org/dc/elements/1.1/"
   xmlns:cc="http://creativecommons.org/ns#"
   xmlns:rdf="http://www.w3.org/1999/02/22-rdf-syntax-ns#"
   xmlns:svg="http://www.w3.org/2000/svg"
   xmlns="http://www.w3.org/2000/svg"
   xmlns:sodipodi="http://sodipodi.sourceforge.net/DTD/sodipodi-0.dtd"
   xmlns:inkscape="http://www.inkscape.org/namespaces/inkscape"
   width="26.365242"
   height="26.382114"
   id="svg2"
   version="1.1"
   inkscape:version="0.48.4 r9939"
   sodipodi:docname="New document 1">
  <defs
     id="defs4" />
  <sodipodi:namedview
     id="base"
     pagecolor="#ffffff"
     bordercolor="#666666"
     borderopacity="1.0"
     inkscape:pageopacity="0.0"
     inkscape:pageshadow="2"
     inkscape:zoom="0.35"
     inkscape:cx="133.89691"
     inkscape:cy="-23.951798"
     inkscape:document-units="px"
     inkscape:current-layer="layer1"
     showgrid="false"
     fit-margin-top="0"
     fit-margin-left="0"
     fit-margin-right="0"
     fit-margin-bottom="0"
     inkscape:window-width="472"
     inkscape:window-height="383"
     inkscape:window-x="1448"
     inkscape:window-y="552"
     inkscape:window-maximized="0" />
  <metadata
     id="metadata7">
    <rdf:RDF>
      <cc:Work
         rdf:about="">
        <dc:format>image/svg+xml</dc:format>
        <dc:type
           rdf:resource="http://purl.org/dc/dcmitype/StillImage" />
        <dc:title></dc:title>
      </cc:Work>
    </rdf:RDF>
  </metadata>
  <g
     inkscape:label="Layer 1"
     inkscape:groupmode="layer"
     id="layer1"
     transform="translate(-241.10309,-482.02827)">
    <path
       sodipodi:nodetypes="cssccccssccscssscs"
       id="path3819-0-5-0-5-2-4"
       d="m 251.98349,482.02827 c -6.0266,0 -10.8804,4.899 -10.8804,10.924 0,6.027 4.8538,10.882 10.8804,10.882 2.0408,0 3.9155,-0.584 5.5512,-1.555 l 6.0523,5.989 c 1.1194,0.871 4.7583,-2.5 3.6859,-3.641 l -6.0078,-5.99 c 1.0243,-1.656 1.6431,-3.59 1.6431,-5.685 l 0,-0.04 c 0,-6.023 -4.9014,-10.88 -10.9247,-10.88 z m 0,4.797 c 3.3619,0 6.0814,2.721 6.0841,6.083 l 0,0.04 c 0,3.364 -2.7205,6.084 -6.0841,6.084 -3.3636,0 -6.0841,-2.72 -6.0841,-6.084 0,-3.364 2.7205,-6.128 6.0841,-6.128 z"
       style="color:#000000;fill:#51687d;fill-opacity:1;fill-rule:nonzero;stroke:none;stroke-width:2.55100012;marker:none;visibility:visible;display:inline;overflow:visible;enable-background:accumulate"
       inkscape:connector-curvature="0"
       inkscape:export-filename="C:\Users\jonescd\Desktop\CloudList\SearchMockup\4.png"
       inkscape:export-xdpi="90"
       inkscape:export-ydpi="90" />
  </g>
</svg>
