<?xml version="1.0" encoding="UTF-8" standalone="no"?>
<!-- Created with Inkscape (http://www.inkscape.org/) -->

<svg
   xmlns:dc="http://purl.org/dc/elements/1.1/"
   xmlns:cc="http://creativecommons.org/ns#"
   xmlns:rdf="http://www.w3.org/1999/02/22-rdf-syntax-ns#"
   xmlns:svg="http://www.w3.org/2000/svg"
   xmlns="http://www.w3.org/2000/svg"
   xmlns:xlink="http://www.w3.org/1999/xlink"
   xmlns:sodipodi="http://sodipodi.sourceforge.net/DTD/sodipodi-0.dtd"
   xmlns:inkscape="http://www.inkscape.org/namespaces/inkscape"
   width="903.50262"
   height="149.22809"
   id="svg2"
   version="1.1"
   inkscape:version="0.48.4 r9939"
   sodipodi:docname="song2a.svg">
  <defs
     id="defs4">
    <clipPath
       clipPathUnits="userSpaceOnUse"
       id="clipPath3786-8-7-09-3-58-9-3-5-2-1-7-8-5-7-6">
      <path
         id="path3788-6-7-4-3-3-5-6-2-5-2-3-8-2-8-5"
         d="m 437.82312,11466.551 c -9.02138,0 -12.48175,7.253 -12.48175,16.277 l 0,6.153 c 0,2.617 1.22716,5.841 5.96969,6.148 4.03516,0.231 10.92927,0.347 18.27026,0.347 3.66007,-4.526 17.50849,-9.047 24.28509,-9.047 l 2.53247,0 c -0.31836,-1.748 -5.01284,-19.617 -5.8487,-19.895 l -32.72706,0 z"
         style="color:#000000;fill:#698eab;fill-opacity:1;fill-rule:nonzero;stroke:none;stroke-width:0.24476303;marker:none;visibility:visible;display:inline;overflow:visible;enable-background:accumulate"
         inkscape:connector-curvature="0"
         sodipodi:nodetypes="cssccscccc" />
    </clipPath>
    <linearGradient
       inkscape:collect="always"
       xlink:href="#linearGradient5187-7-9-1-3-8-4-4-4-93-1-1-2-4-0-7-8-7"
       id="linearGradient24344"
       gradientUnits="userSpaceOnUse"
       x1="1766.3528"
       y1="11764.019"
       x2="1789.3842"
       y2="11764.019" />
    <linearGradient
       id="linearGradient5187-7-9-1-3-8-4-4-4-93-1-1-2-4-0-7-8-7">
      <stop
         style="stop-color:#8d8d8d;stop-opacity:1;"
         offset="0"
         id="stop5189-2-3-3-1-3-5-8-0-76-5-2-7-9-4-1-0-3" />
      <stop
         style="stop-color:#aaaaaa;stop-opacity:1;"
         offset="1"
         id="stop5191-2-19-5-9-5-6-3-3-3-9-3-1-6-1-4-0-7" />
    </linearGradient>
    <clipPath
       clipPathUnits="userSpaceOnUse"
       id="clipPath3808-2-8-1-1-9-4-9-7-9-9-2-3-6-9-9">
      <path
         sodipodi:nodetypes="cssccscccc"
         inkscape:connector-curvature="0"
         style="color:#000000;fill:#698eab;fill-opacity:1;fill-rule:nonzero;stroke:none;stroke-width:0.24476303;marker:none;visibility:visible;display:inline;overflow:visible;enable-background:accumulate"
         d="m 437.82312,11466.551 c -9.02138,0 -12.48175,7.253 -12.48175,16.277 l 0,6.153 c 0,2.616 1.22716,5.841 5.96969,6.147 4.03516,0.232 10.92927,0.348 18.27026,0.348 3.66007,-4.527 17.50849,-9.048 24.28509,-9.048 l 2.53247,0 c -0.31836,-1.748 -5.01284,-19.617 -5.8487,-19.895 l -32.72706,0 z"
         id="path3810-7-6-2-2-76-1-10-5-0-9-8-0-6-9-1" />
    </clipPath>
    <clipPath
       clipPathUnits="userSpaceOnUse"
       id="clipPath3737-7-5-0-1-4-2-5-6-7-6-7-2-4-7-2">
      <path
         sodipodi:nodetypes="sssscssssss"
         inkscape:connector-curvature="0"
         id="path3739-4-0-1-9-5-2-8-5-3-2-0-4-6-8-4"
         d="m 461.72791,11483.1 c -14.83015,0.06 -20.73616,14.79 -20.73616,29.62 l 0,10.008 c 0,4.307 2.13885,9.54 9.93539,10.043 17.54323,1.129 66.22282,0.678 82.1661,-0.521 9.2373,0.521 10.67864,-6.28 10.67864,-10.077 l 0,-9.447 c 0,-14.836 -5.90659,-29.626 -20.73617,-29.626 l -3.60682,0 c -19.21147,0 -37.96391,0 -54.09474,0 z"
         style="color:#000000;fill:#93afc3;fill-opacity:1;fill-rule:nonzero;stroke:none;stroke-width:0.24476303;marker:none;visibility:visible;display:inline;overflow:visible;enable-background:accumulate" />
    </clipPath>
    <linearGradient
       inkscape:collect="always"
       xlink:href="#linearGradient5187-7-9-1-3-8-4-4-4-93-1-1-2-4-0-7-8-7"
       id="linearGradient24722"
       gradientUnits="userSpaceOnUse"
       x1="1766.3528"
       y1="11764.019"
       x2="1789.3842"
       y2="11764.019" />
  </defs>
  <sodipodi:namedview
     id="base"
     pagecolor="#ffffff"
     bordercolor="#666666"
     borderopacity="1.0"
     inkscape:pageopacity="0.0"
     inkscape:pageshadow="2"
     inkscape:zoom="0.45254834"
     inkscape:cx="1012.4659"
     inkscape:cy="-292.37678"
     inkscape:document-units="px"
     inkscape:current-layer="g4076-5-6-2-88-9-2-1-9-0-7-3-1-6-0"
     showgrid="false"
     fit-margin-top="0"
     fit-margin-left="0"
     fit-margin-right="0"
     fit-margin-bottom="0"
     inkscape:window-width="1855"
     inkscape:window-height="1056"
     inkscape:window-x="65"
     inkscape:window-y="24"
     inkscape:window-maximized="1" />
  <metadata
     id="metadata7">
    <rdf:RDF>
      <cc:Work
         rdf:about="">
        <dc:format>image/svg+xml</dc:format>
        <dc:type
           rdf:resource="http://purl.org/dc/dcmitype/StillImage" />
        <dc:title />
      </cc:Work>
    </rdf:RDF>
  </metadata>
  <g
     inkscape:label="Layer 1"
     inkscape:groupmode="layer"
     id="layer1"
     transform="translate(1122.6066,1718.2048)">
    <g
       transform="matrix(4.3391437,0,0,4.3391437,-4136.993,-56607.203)"
       id="g21651-3-5-1">
      <g
         inkscape:export-ydpi="90"
         inkscape:export-xdpi="90"
         inkscape:export-filename="C:\Users\jonescd\Desktop\CloudList\SearchMockup\2.png"
         id="g4076-5-6-2-88-9-2-1-9-0-7-3-1-6-0"
         transform="matrix(0.49713348,0,0,0.49713348,311.90337,12986.962)">
        <path
           style="color:#000000;fill:#283a48;fill-opacity:1;fill-rule:nonzero;stroke:none;stroke-width:2.55100012;marker:none;visibility:visible;display:inline;overflow:visible;enable-background:accumulate"
           d="m 776.8717,-675.60181 405.1007,0 c 3.8069,0 6.8717,3.06478 6.8717,6.8717 l 0,52.68518 c 0,3.80692 -3.0648,6.8717 -6.8717,6.8717 l -405.1007,0 c -3.80692,0 -6.8717,-3.06478 -6.8717,-6.8717 l 0,-52.68518 c 0,-3.80692 3.06478,-6.8717 6.8717,-6.8717 z"
           id="rect4020-7-7-4-9-4-2-8-3-2-1-9-0-7-9-9" />
        <path
           style="color:#000000;fill:#3f5d72;fill-opacity:1;fill-rule:nonzero;stroke:none;stroke-width:2.55100012;marker:none;visibility:visible;display:inline;overflow:visible;enable-background:accumulate"
           d="m 776.8717,-678.35211 405.1007,0 c 3.8069,0 6.8717,3.06478 6.8717,6.8717 l 0,52.68517 c 0,3.80692 -3.0648,6.8717 -6.8717,6.8717 l -405.1007,0 c -3.80692,0 -6.8717,-3.06478 -6.8717,-6.8717 l 0,-52.68517 c 0,-3.80692 3.06478,-6.8717 6.8717,-6.8717 z"
           id="rect4020-7-7-4-9-4-2-8-7-9-2-8-1-0-7" />
        <g
           transform="translate(-35.310825,-0.13845501)"
           id="g10418-31-2-5-1-0-1-0">
          <g
             style="font-size:16.06182289px;font-style:normal;font-variant:normal;font-weight:normal;font-stretch:normal;line-height:125%;letter-spacing:0px;word-spacing:0px;fill:#ffffff;fill-opacity:1;stroke:none;font-family:Source Sans Pro;-inkscape-font-specification:Roboto"
             id="text18219-1-2-8-8-2-5-19-5-7-9-1-1-3-3-4-1-9-9-8-20-4-9-3-9-3-1">
            <path
               d="m 1199.7794,-640.62299 5.5291,0 0,1.33326 -7.4348,0 0,-1.33326 c 0.6012,-0.62219 1.4195,-1.45612 2.4547,-2.50182 1.0405,-1.05091 1.694,-1.728 1.9607,-2.03125 0.5072,-0.5699 0.8601,-1.05092 1.0588,-1.44306 0.2039,-0.39735 0.3058,-0.78687 0.3058,-1.16856 0,-0.62218 -0.2196,-1.12934 -0.6588,-1.52148 -0.4339,-0.39212 -1.0012,-0.58819 -1.7018,-0.5882 -0.4967,10e-6 -1.0222,0.0863 -1.5764,0.25881 -0.549,0.17255 -1.1372,0.43397 -1.7646,0.78427 l 0,-1.59991 c 0.6379,-0.25619 1.2339,-0.44964 1.7881,-0.58036 0.5542,-0.1307 1.0614,-0.19606 1.5215,-0.19607 1.213,10e-6 2.1803,0.30326 2.9018,0.90975 0.7215,0.60652 1.0823,1.41693 1.0823,2.43124 0,0.48102 -0.091,0.93851 -0.2745,1.37247 -0.1778,0.42874 -0.5046,0.9359 -0.9803,1.52148 -0.1308,0.15163 -0.5464,0.59082 -1.247,1.31757 -0.7006,0.72153 -1.6888,1.73324 -2.9646,3.03512"
               style="fill:#ffffff;font-family:Sans;-inkscape-font-specification:Sans"
               id="path3878" />
          </g>
          <path
             style="fill:#7b9bb5;fill-opacity:1"
             d="m 1201.948,-671.98441 -11.0462,11.046 3.8096,3.81 7.2366,-7.237 7.2366,7.237 3.8096,-3.81 -11.0462,-11.046 z"
             id="rect16037-1-6-3-5"
             inkscape:connector-curvature="0" />
          <path
             style="fill:#202e3a;fill-opacity:1"
             d="m 1201.948,-618.01433 -11.0462,-11.046 3.8096,-3.81 7.2366,7.237 7.2366,-7.237 3.8096,3.81 -11.0462,11.046 z"
             id="rect16037-3-8-3-3-6"
             inkscape:connector-curvature="0" />
        </g>
        <g
           transform="translate(0,149.59204)"
           id="g23257">
          <rect
             y="-827.94415"
             x="770"
             height="66.291672"
             width="66.291672"
             id="rect22433"
             style="fill:#304757;fill-opacity:1;stroke:none" />
          <g
             transform="matrix(0.26518471,0,0,0.26518471,235.35372,-4372.6136)"
             id="g4632-7-6-4-2-1-7-9-8-7-9-6-2">
            <g
               id="g5730-0-3-1-1-9-73-8-4-9-8-4-7-5"
               transform="matrix(-1,0,0,1,2633.1187,2017.5054)">
              <path
                 id="path6027-5-0-4-5-3-19-9-7-2-2-7-4-8-5-9-2-4-5-5-4-1-2-2-6-4-8-3-7"
                 d="m 437.82312,11466.551 c -9.02138,0 -12.48175,7.253 -12.48175,16.277 l 0,6.153 c 0,2.617 1.22716,5.841 5.96969,6.148 4.03516,0.231 10.92927,0.347 18.27026,0.347 3.66007,-4.526 17.50849,-9.047 24.28509,-9.047 l 2.53247,0 c -0.31836,-1.748 -5.01284,-19.617 -5.8487,-19.895 l -32.72706,0 z"
                 style="color:#000000;fill:#698eab;fill-opacity:1;fill-rule:nonzero;stroke:none;stroke-width:0.24476303;marker:none;visibility:visible;display:inline;overflow:visible;enable-background:accumulate"
                 inkscape:connector-curvature="0"
                 sodipodi:nodetypes="cssccscccc" />
              <path
                 id="path6027-5-0-4-5-3-19-9-7-2-2-7-4-8-5-1-4-5-8-9-8-23-4-62-2-7-3-3-7-0-8"
                 d="m 440.03125,11463.031 c 0.30859,0.785 0.66445,1.56 1.09375,2.313 4.81177,8.44 15.49928,11.372 23.9375,6.562 2.79871,-1.595 5.003,-3.868 6.53125,-6.468 -0.45968,-1.37 -0.85013,-2.347 -1.03125,-2.407 l -30.53125,0 z"
                 style="color:#000000;fill:#547b96;fill-opacity:1;fill-rule:nonzero;stroke:none;stroke-width:0.24476303;marker:none;visibility:visible;display:inline;overflow:visible;enable-background:accumulate"
                 inkscape:connector-curvature="0"
                 clip-path="url(#clipPath3786-8-7-09-3-58-9-3-5-2-1-7-8-5-7-6)" />
              <path
                 id="path6027-5-0-4-5-3-19-9-7-2-2-7-4-8-5-1-3-6-6-2-1-8-0-6-3-9-1-5-5-3"
                 d="m 456.45459,11434.714 c -9.71601,0 -17.54612,7.832 -17.54612,17.545 0,9.725 7.83011,17.73 17.54612,17.73 2.65634,0 5.14482,-0.746 7.41681,-1.811 1.00546,-7.225 4.78478,-13.476 10.12988,-17.91 -0.99793,-8.775 -8.50157,-15.554 -17.54669,-15.554 z"
                 style="color:#000000;fill:#698eab;fill-opacity:1;fill-rule:nonzero;stroke:none;stroke-width:0.24476303;marker:none;visibility:visible;display:inline;overflow:visible;enable-background:accumulate"
                 inkscape:connector-curvature="0"
                 sodipodi:nodetypes="sssccs" />
            </g>
            <g
               style="fill:url(#linearGradient24722);fill-opacity:1;stroke:none"
               inkscape:export-ydpi="90"
               inkscape:export-xdpi="90"
               inkscape:export-filename="C:\Users\jonescd\Desktop\CloudList\crowdplay_logo0.png"
               transform="matrix(5.7885056,0,0,5.7885056,-8150.0825,-54594.819)"
               id="g6138-1-2-7-2-5-5-1-6-2-4-5-2-2-8-0-4-3">
              <path
                 sodipodi:nodetypes="cssccscccc"
                 inkscape:connector-curvature="0"
                 style="color:#000000;fill:#698eab;fill-opacity:1;fill-rule:nonzero;stroke:none;stroke-width:0.24476303;marker:none;visibility:visible;display:inline;overflow:visible;enable-background:accumulate"
                 d="m 1768.5091,11761.045 c -1.5585,0 -2.1563,1.253 -2.1563,2.812 l 0,1.063 c 0,0.452 0.212,1.009 1.0313,1.062 0.6971,0.04 1.8881,0.06 3.1563,0.06 0.6323,-0.782 3.0247,-1.563 4.1954,-1.563 l 0.4375,0 c -0.055,-0.302 -0.866,-3.389 -1.0104,-3.437 l -5.6538,0 z"
                 id="path6027-5-0-4-5-3-19-9-7-2-2-7-4-8-5-0-1-9-8-7-6-2-0-3-7-4-3-0" />
              <path
                 sodipodi:nodetypes="sssscssssss"
                 inkscape:connector-curvature="0"
                 id="path6027-5-0-4-5-3-19-9-7-8-4-5-9-4-9-0-3-82-2-82-9-0-0-3-0-2-7"
                 d="m 1772.6388,11763.904 c -2.562,0.01 -3.5823,2.555 -3.5823,5.117 l 0,1.729 c 0,0.744 0.3695,1.648 1.7164,1.735 3.0307,0.195 11.4404,0.117 14.1947,-0.09 1.5958,0.09 1.8448,-1.085 1.8448,-1.741 l 0,-1.632 c 0,-2.563 -1.0204,-5.118 -3.5823,-5.118 l -0.6231,0 c -3.3189,0 -6.5585,0 -9.3452,0 z"
                 style="color:#000000;fill:#93afc3;fill-opacity:1;fill-rule:nonzero;stroke:none;stroke-width:0.24476303;marker:none;visibility:visible;display:inline;overflow:visible;enable-background:accumulate" />
            </g>
            <g
               id="g4966-4-4-0-9-9-7-5-9-1-4-9-5-3-9-5"
               transform="translate(996.46614,2396.4164)"
               inkscape:export-filename="C:\Users\jonescd\Desktop\CloudList\crowdplay_logo3.png"
               inkscape:export-xdpi="90"
               inkscape:export-ydpi="90">
              <g
                 transform="translate(5.7924295,0)"
                 id="g4935-8-4-2-9-7-71-8-68-9-4-3-2-6-2-0">
                <g
                   id="g4826-81-8-4-6-2-2-4-19-8-9-0-8-4-0-2"
                   transform="matrix(2.5713469,0,0,2.5713469,-1693.5666,-17428.06)">
                  <g
                     id="g4777-3-2-8-8-1-6-7-63-8-1-0-2-1-6-7"
                     inkscape:export-filename="C:\Users\jonescd\Desktop\CloudList\crowdplay_logo0.png"
                     inkscape:export-xdpi="90"
                     inkscape:export-ydpi="90">
                    <path
                       style="color:#000000;fill:#7e7e7e;fill-opacity:1;stroke:none;stroke-width:1.0679903;marker:none;visibility:visible;display:inline;overflow:visible;enable-background:accumulate"
                       d="m 1101.6595,11053.906 c -21.7898,0 -39.4375,17.678 -39.4375,39.469 0,21.789 17.6477,39.469 39.4375,39.469 14.1534,0 26.5719,-7.464 33.5312,-18.657 l -1.1771,-0.51 c -6.5792,10.461 -18.4734,17.732 -32.3541,17.732 -21.4482,0 -37.8229,-16.586 -37.8229,-38.034 0,-21.448 16.3747,-38.844 37.8229,-38.844 21.4367,0 38.8275,17.376 38.8438,38.813 l 0,0.03 c 0,3.072 -0.3568,6.072 -1.0313,8.938 l 0.625,0.03 c 0.6674,-2.877 1,-5.889 1,-8.969 l 0,-0.03 c -0.016,-21.779 -17.6592,-39.438 -39.4375,-39.438 z"
                       id="path4366-6-7-6-3-3-0-3-9-1-9-6-9-6-1-4"
                       inkscape:connector-curvature="0"
                       sodipodi:nodetypes="cssccssscsccsccc" />
                  </g>
                  <path
                     inkscape:connector-curvature="0"
                     id="rect4513-11-5-7-0-4-2-49-9-87-9-0-3-5-1-8-8"
                     d="m 2535.1433,10863.435 2.1073,0 0,4.678 -2.1073,0 z"
                     style="color:#000000;fill:#4f4f4f;fill-opacity:1;fill-rule:nonzero;stroke:none;stroke-width:1.10000002;marker:none;visibility:visible;display:inline;overflow:visible;enable-background:accumulate"
                     transform="matrix(-0.94766953,0.31925299,0.31925299,0.94766953,0,0)" />
                  <g
                     transform="translate(-355.96551,-126.12489)"
                     id="g4620-5-3-0-8-0-4-5-5-0-8-9-4-3-7-1"
                     inkscape:export-filename="C:\Users\jonescd\Desktop\CloudList\crowdplay_logo0.png"
                     inkscape:export-xdpi="90"
                     inkscape:export-ydpi="90">
                    <path
                       style="color:#000000;fill:#7d7d7d;fill-opacity:1;fill-rule:nonzero;stroke:none;stroke-width:1.10000002;marker:none;visibility:visible;display:inline;overflow:visible;enable-background:accumulate"
                       d="m 1457.5,11183.969 c -9.2375,0 -17.5718,3.824 -23.5312,9.968 l 1.5937,1.313 c 2.0981,1.766 3.2453,0.968 4.5937,0.03 0.052,-0.04 0.104,-0.08 0.1563,-0.125 4.7156,-3.755 10.6929,-6 17.1875,-6 6.3582,0 12.2047,2.171 16.875,5.781 0.053,0.04 0.1041,0.06 0.1562,0.09 0.053,0.04 0.1042,0.08 0.1563,0.125 1.4438,0.996 2.6063,1.951 4.8125,0.09 l 1.5625,-1.313 c -5.9632,-6.147 -14.3201,-9.968 -23.5625,-9.968 z"
                       id="path4366-5-5-5-9-6-4-92-6-1-3-6-8-4-8-0-3-1"
                       inkscape:connector-curvature="0" />
                    <path
                       inkscape:connector-curvature="0"
                       style="color:#000000;fill:#b0b0b0;fill-opacity:1;fill-rule:nonzero;stroke:none;stroke-width:1.10000002;marker:none;visibility:visible;display:inline;overflow:visible;enable-background:accumulate"
                       d="m 1457.5,11178.875 c -21.8773,0 -39.6979,17.342 -40.4688,39.031 l 6.4063,0 c 0.7721,-18.142 15.7305,-32.625 34.0625,-32.625 18.3327,0 33.2933,14.478 34.0625,32.625 l 6.4063,0 c -0.7706,-21.692 -18.5927,-39.031 -40.4688,-39.031 z"
                       id="path4366-5-6-5-1-9-7-0-9-0-8-3-5-7-5-9-4" />
                  </g>
                  <g
                     style="fill:#8d8d8d;fill-opacity:1;stroke:none"
                     transform="translate(-355.32428,-126.12471)"
                     id="g4407-6-1-3-9-45-3-0-05-9-7-5-6-8-7-3"
                     inkscape:export-filename="C:\Users\jonescd\Desktop\CloudList\crowdplay_logo0.png"
                     inkscape:export-xdpi="90"
                     inkscape:export-ydpi="90">
                    <path
                       inkscape:connector-curvature="0"
                       id="rect4387-3-9-8-2-0-6-2-4-4-6-9-7-2-4-9"
                       d="m 1418.3033,11206.25 5.6109,0 c 1.0773,0 1.9446,0.867 1.9446,1.945 l 0,22.36 c 0,1.078 -0.8673,1.945 -1.9446,1.945 l -5.6109,0 c -1.0773,0 -1.9445,-0.867 -1.9445,-1.945 l 0,-22.36 c 0,-1.078 0.8672,-1.945 1.9445,-1.945 z"
                       style="color:#000000;fill:#acacac;fill-opacity:1;stroke-width:1.10000002;marker:none;visibility:visible;display:inline;overflow:visible;enable-background:accumulate" />
                    <path
                       inkscape:connector-curvature="0"
                       id="rect4387-9-0-0-9-5-3-24-8-1-7-4-7-2-7-0-4"
                       d="m 1424.4676,11203.3 c 2.6009,0 4.6948,2.094 4.6948,4.695 l 0,22.76 c 0,2.601 -2.0939,4.695 -4.6948,4.695 -2.601,0 -4.6949,-2.094 -4.6949,-4.695 l 0,-22.76 c 0,-2.601 2.0939,-4.695 4.6949,-4.695 z"
                       style="color:#000000;stroke-width:1.21027493;marker:none;visibility:visible;display:inline;overflow:visible;enable-background:accumulate" />
                  </g>
                  <g
                     transform="matrix(0.97122088,0.68325084,-0.68325084,0.97122088,7359.1654,-819.12427)"
                     id="g4544-0-2-3-5-2-58-3-35-5-5-8-4-2-6-7"
                     inkscape:export-filename="C:\Users\jonescd\Desktop\CloudList\crowdplay_logo0.png"
                     inkscape:export-xdpi="90"
                     inkscape:export-ydpi="90">
                    <g
                       transform="matrix(1.2029343,0,0,1.2029343,-303.47199,-2279.9051)"
                       id="g4644-8-8-4-3-9-8-1-73-6-9-3-8-8-2-7">
                      <path
                         sodipodi:nodetypes="ccccccccccc"
                         inkscape:connector-curvature="0"
                         id="rect4513-1-7-8-3-46-3-7-1-4-7-6-2-9-8-2-0-9"
                         d="m 1494.6923,11230.515 -0.1091,0.202 0.085,0.255 -0.078,0.304 0,1.677 0.6746,0 -5e-4,-1.693 -0.1156,-0.318 0.088,-0.188 -0.1211,-0.261 z"
                         style="color:#000000;fill:#bbbbbb;fill-opacity:1;fill-rule:nonzero;stroke:none;stroke-width:1.10000002;marker:none;visibility:visible;display:inline;overflow:visible;enable-background:accumulate" />
                    </g>
                    <path
                       inkscape:connector-curvature="0"
                       id="rect4513-7-2-1-0-3-8-2-3-8-7-0-5-8-5-6-3"
                       d="m 1493.6747,11231.954 2.2539,0 0,5.005 -2.2539,0 z"
                       style="color:#000000;fill:#222222;fill-opacity:1;fill-rule:nonzero;stroke:none;stroke-width:1.10000002;marker:none;visibility:visible;display:inline;overflow:visible;enable-background:accumulate" />
                    <path
                       inkscape:connector-curvature="0"
                       id="rect4513-1-3-4-6-7-0-1-1-42-0-2-5-6-7-4-6"
                       d="m 1493.8363,11234.832 1.9307,0 0,4.287 -1.9307,0 z"
                       style="color:#000000;fill:#424242;fill-opacity:1;fill-rule:nonzero;stroke:none;stroke-width:1.10000002;marker:none;visibility:visible;display:inline;overflow:visible;enable-background:accumulate" />
                    <path
                       inkscape:connector-curvature="0"
                       id="rect4513-0-3-6-43-1-49-0-8-8-7-7-9-5-0-5"
                       d="m 1493.4979,11232.181 2.6075,0 0,5.789 -2.6075,0 z"
                       style="color:#000000;fill:#646464;fill-opacity:1;fill-rule:nonzero;stroke:none;stroke-width:1.10000002;marker:none;visibility:visible;display:inline;overflow:visible;enable-background:accumulate" />
                  </g>
                  <g
                     transform="translate(-352.82298,-126.12471)"
                     id="g4463-6-1-1-8-1-82-4-0-6-9-6-6-1-6-2"
                     inkscape:export-filename="C:\Users\jonescd\Desktop\CloudList\crowdplay_logo0.png"
                     inkscape:export-xdpi="90"
                     inkscape:export-ydpi="90">
                    <path
                       inkscape:connector-curvature="0"
                       id="rect4387-8-5-0-8-08-4-4-0-4-8-1-6-8-3-3-7"
                       d="m -1492.913,11206.25 5.6109,0 c 1.0773,0 1.9446,0.867 1.9446,1.945 l 0,22.36 c 0,1.078 -0.8673,1.945 -1.9446,1.945 l -5.6109,0 c -1.0773,0 -1.9445,-0.867 -1.9445,-1.945 l 0,-22.36 c 0,-1.078 0.8672,-1.945 1.9445,-1.945 z"
                       style="color:#000000;fill:#acacac;fill-opacity:1;stroke:none;stroke-width:1.10000002;marker:none;visibility:visible;display:inline;overflow:visible;enable-background:accumulate"
                       transform="scale(-1,1)" />
                    <path
                       inkscape:connector-curvature="0"
                       id="rect4387-9-8-0-4-49-8-7-52-7-1-0-4-8-8-1-8-8"
                       d="m -1486.7487,11203.3 c 2.6009,0 4.6948,2.094 4.6948,4.695 l 0,22.76 c 0,2.601 -2.0939,4.695 -4.6948,4.695 -2.601,0 -4.6949,-2.094 -4.6949,-4.695 l 0,-22.76 c 0,-2.601 2.0939,-4.695 4.6949,-4.695 z"
                       style="color:#000000;fill:#848484;fill-opacity:1;stroke:none;stroke-width:1.21027493;marker:none;visibility:visible;display:inline;overflow:visible;enable-background:accumulate"
                       transform="scale(-1,1)" />
                  </g>
                </g>
              </g>
            </g>
            <path
               transform="translate(1649.1193,2017.5054)"
               style="color:#000000;fill:#547b96;fill-opacity:1;fill-rule:nonzero;stroke:none;stroke-width:0.24476303;marker:none;visibility:visible;display:inline;overflow:visible;enable-background:accumulate"
               d="m 440.03125,11463.031 c 0.30859,0.785 0.66445,1.56 1.09375,2.313 4.81177,8.44 15.49928,11.372 23.9375,6.562 2.79871,-1.595 5.003,-3.868 6.53125,-6.468 -0.45968,-1.37 -0.85013,-2.347 -1.03125,-2.407 l -30.53125,0 z"
               id="path6027-5-0-4-5-3-19-9-7-2-2-7-4-8-5-1-4-6-0-4-9-9-6-0-1-3-7-5-6-5"
               inkscape:connector-curvature="0"
               clip-path="url(#clipPath3808-2-8-1-1-9-4-9-7-9-9-2-3-6-9-9)" />
            <path
               sodipodi:nodetypes="sssccs"
               inkscape:connector-curvature="0"
               style="color:#000000;fill:#698eab;fill-opacity:1;fill-rule:nonzero;stroke:none;stroke-width:0.24476303;marker:none;visibility:visible;display:inline;overflow:visible;enable-background:accumulate"
               d="m 2105.5739,13452.22 c -9.7161,0 -17.5462,7.832 -17.5462,17.545 0,9.725 7.8301,17.73 17.5462,17.73 2.6563,0 5.1448,-0.746 7.4168,-1.811 1.0054,-7.225 4.7847,-13.476 10.1298,-17.91 -0.9979,-8.775 -8.5015,-15.554 -17.5466,-15.554 z"
               id="path6027-5-0-4-5-3-19-9-7-2-2-7-4-8-5-1-37-6-3-9-0-5-0-8-8-1-9-3-1" />
            <path
               transform="translate(1649.1193,2017.5054)"
               style="color:#000000;fill:#7997ac;fill-opacity:1;fill-rule:nonzero;stroke:none;stroke-width:0.24476303;marker:none;visibility:visible;display:inline;overflow:visible;enable-background:accumulate"
               d="m 465.53125,11479.344 c 4.24112,10.667 14.6286,18.218 26.8125,18.218 12.18301,0 22.60948,-7.551 26.875,-18.218 l -53.6875,0 z"
               id="path6027-5-0-4-5-3-19-9-7-8-4-5-9-4-7-9-8-8-9-8-8-83-9-5-8-5-2-6-0"
               inkscape:connector-curvature="0"
               clip-path="url(#clipPath3737-7-5-0-1-4-2-5-6-7-6-7-2-4-7-2)" />
            <path
               sodipodi:nodetypes="sssss"
               inkscape:connector-curvature="0"
               id="path6027-5-0-4-5-3-19-9-7-8-4-5-9-4-7-82-1-9-3-1-7-8-6-4-7-2-5-0"
               d="m 2141.4574,13451.143 c -15.9751,0 -28.8511,12.885 -28.8511,28.856 0,15.982 12.876,28.937 28.8511,28.937 15.9739,0 28.9385,-12.955 28.9385,-28.937 0,-15.965 -12.9732,-28.856 -28.9385,-28.856 z"
               style="color:#000000;fill:#93afc3;fill-opacity:1;fill-rule:nonzero;stroke:none;stroke-width:0.24476303;marker:none;visibility:visible;display:inline;overflow:visible;enable-background:accumulate" />
          </g>
        </g>
        <text
           xml:space="preserve"
           style="font-size:17.52382469px;font-style:normal;font-weight:normal;line-height:125%;letter-spacing:0px;word-spacing:0px;fill:#ffffff;fill-opacity:1;stroke:none;font-family:Sans"
           x="853.69818"
           y="-649.35205"
           id="text25929-3-9"
           sodipodi:linespacing="125%"><tspan
             sodipodi:role="line"
             id="tspan25931-4-8"
             x="853.69818"
             y="-649.35205"
             style="font-family:Nanum;-inkscape-font-specification:Nanum">Q.U.E.E.N (feat. Erykah Badu)</tspan></text>
        <text
           xml:space="preserve"
           style="font-size:17.17451096px;font-style:normal;font-weight:normal;line-height:125%;letter-spacing:0px;word-spacing:0px;fill:#17222a;fill-opacity:1;stroke:none;font-family:Nanum;-inkscape-font-specification:Nanum"
           x="854.88007"
           y="-627.10333"
           id="text25929-1-2-8"
           sodipodi:linespacing="125%"><tspan
             sodipodi:role="line"
             id="tspan25931-8-3-6"
             x="854.88007"
             y="-627.10333">Janelle Monáe</tspan></text>
      </g>
    </g>
  </g>
</svg>
